<ttFont>
    <TTGlyph name=".notdef" xMin="90" yMin="-500" xMax="510" yMax="1050">
      <contour>
        <pt x="510" y="-500" on="1"/>
        <pt x="90" y="-500" on="1"/>
        <pt x="90" y="1050" on="1"/>
        <pt x="510" y="1050" on="1"/>
      </contour>
      <contour>
        <pt x="145" y="998" on="1"/>
        <pt x="145" y="-448" on="1"/>
        <pt x="456" y="-448" on="1"/>
        <pt x="456" y="998" on="1"/>
      </contour>
      <contour>
        <pt x="307" y="162" on="0"/>
        <pt x="292" y="149" on="0"/>
        <pt x="282" y="149" on="1"/>
        <pt x="272" y="149" on="0"/>
        <pt x="257" y="162" on="0"/>
        <pt x="257" y="173" on="1"/>
        <pt x="257" y="257" on="1"/>
        <pt x="310" y="260" on="0"/>
        <pt x="348" y="293" on="0"/>
        <pt x="348" y="334" on="1"/>
        <pt x="348" y="367" on="0"/>
        <pt x="322" y="403" on="0"/>
        <pt x="287" y="403" on="1"/>
        <pt x="258" y="403" on="0"/>
        <pt x="235" y="392" on="1"/>
        <pt x="228" y="389" on="0"/>
        <pt x="222" y="389" on="1"/>
        <pt x="211" y="389" on="0"/>
        <pt x="198" y="402" on="0"/>
        <pt x="198" y="412" on="1"/>
        <pt x="198" y="431" on="0"/>
        <pt x="257" y="451" on="0"/>
        <pt x="291" y="451" on="1"/>
        <pt x="351" y="451" on="0"/>
        <pt x="402" y="387" on="0"/>
        <pt x="402" y="336" on="1"/>
        <pt x="402" y="283" on="0"/>
        <pt x="357" y="225" on="0"/>
        <pt x="307" y="218" on="1"/>
        <pt x="307" y="173" on="1"/>
      </contour>
      <contour>
        <pt x="247" y="100" on="0"/>
        <pt x="267" y="120" on="0"/>
        <pt x="282" y="120" on="1"/>
        <pt x="297" y="120" on="0"/>
        <pt x="317" y="100" on="0"/>
        <pt x="317" y="85" on="1"/>
        <pt x="317" y="69" on="0"/>
        <pt x="297" y="48" on="0"/>
        <pt x="282" y="48" on="1"/>
        <pt x="267" y="48" on="0"/>
        <pt x="247" y="69" on="0"/>
        <pt x="247" y="85" on="1"/>
      </contour>
    </TTGlyph>
    <TTGlyph name="A" xMin="8" yMin="0" xMax="592" yMax="690">
      <contour>
        <pt x="127" y="0" on="1"/>
        <pt x="8" y="0" on="1"/>
        <pt x="228" y="690" on="1"/>
        <pt x="372" y="690" on="1"/>
        <pt x="592" y="0" on="1"/>
        <pt x="469" y="0" on="1"/>
        <pt x="421" y="166" on="1"/>
        <pt x="175" y="166" on="1"/>
      </contour>
      <contour>
        <pt x="298" y="600" on="1"/>
        <pt x="199" y="256" on="1"/>
        <pt x="397" y="256" on="1"/>
      </contour>
    </TTGlyph>
    <TTGlyph name="AE" xMin="-12" yMin="0" xMax="606" yMax="690">
      <contour>
        <pt x="103" y="0" on="1"/>
        <pt x="-12" y="0" on="1"/>
        <pt x="180" y="690" on="1"/>
        <pt x="566" y="690" on="1"/>
        <pt x="553" y="604" on="1"/>
        <pt x="338" y="604" on="1"/>
        <pt x="382" y="393" on="1"/>
        <pt x="557" y="393" on="1"/>
        <pt x="557" y="307" on="1"/>
        <pt x="398" y="307" on="1"/>
        <pt x="443" y="86" on="1"/>
        <pt x="606" y="86" on="1"/>
        <pt x="606" y="0" on="1"/>
        <pt x="355" y="0" on="1"/>
        <pt x="324" y="167" on="1"/>
        <pt x="144" y="167" on="1"/>
      </contour>
      <contour>
        <pt x="242" y="606" on="1"/>
        <pt x="165" y="255" on="1"/>
        <pt x="307" y="255" on="1"/>
      </contour>
    </TTGlyph>
    <TTGlyph name="AEacute" xMin="-12" yMin="0" xMax="606" yMax="924">
      <component glyphName="AE" x="0" y="0" flags="0x0"/>
      <component glyphName="acute.case" x="57" y="0" flags="0x0"/>
    </TTGlyph>
    <TTGlyph name="Aacute" xMin="8" yMin="0" xMax="592" yMax="924">
      <component glyphName="A" x="0" y="0" flags="0x0"/>
      <component glyphName="acute.case" x="0" y="0" flags="0x0"/>
    </TTGlyph>
    <TTGlyph name="Abreve" xMin="8" yMin="0" xMax="592" yMax="902">
      <component glyphName="A" x="0" y="0" flags="0x0"/>
      <component glyphName="breve.case" x="0" y="0" flags="0x0"/>
    </TTGlyph>
    <TTGlyph name="Acircumflex" xMin="8" yMin="0" xMax="592" yMax="923">
      <component glyphName="A" x="0" y="0" flags="0x0"/>
      <component glyphName="circumflex.case" x="0" y="0" flags="0x0"/>
    </TTGlyph>
    <TTGlyph name="Adieresis" xMin="8" yMin="0" xMax="592" yMax="893">
      <component glyphName="A" x="0" y="0" flags="0x0"/>
      <component glyphName="dieresis.case" x="-1" y="0" flags="0x0"/>
    </TTGlyph>
    <TTGlyph name="Agrave" xMin="8" yMin="0" xMax="592" yMax="926">
      <component glyphName="A" x="0" y="0" flags="0x0"/>
      <component glyphName="grave.case" x="-1" y="0" flags="0x0"/>
    </TTGlyph>
    <TTGlyph name="Alpha" xMin="8" yMin="0" xMax="592" yMax="690">
      <contour>
        <pt x="127" y="0" on="1"/>
        <pt x="8" y="0" on="1"/>
        <pt x="228" y="690" on="1"/>
        <pt x="372" y="690" on="1"/>
        <pt x="592" y="0" on="1"/>
        <pt x="469" y="0" on="1"/>
        <pt x="421" y="166" on="1"/>
        <pt x="175" y="166" on="1"/>
      </contour>
      <contour>
        <pt x="298" y="600" on="1"/>
        <pt x="199" y="256" on="1"/>
        <pt x="397" y="256" on="1"/>
      </contour>
    </TTGlyph>
    <TTGlyph name="Alphatonos" xMin="8" yMin="0" xMax="592" yMax="710">
      <component glyphName="A" x="0" y="0" flags="0x0"/>
      <component glyphName="tonos.case" x="-203" y="0" flags="0x0"/>
    </TTGlyph>
    <TTGlyph name="Amacron" xMin="8" yMin="0" xMax="592" yMax="872">
      <component glyphName="A" x="0" y="0" flags="0x0"/>
      <component glyphName="macron.case" x="-1" y="0" flags="0x0"/>
    </TTGlyph>
    <TTGlyph name="Aogonek" xMin="8" yMin="-239" xMax="592" yMax="690">
      <contour>
        <pt x="467" y="-28" on="0"/>
        <pt x="416" y="-81" on="0"/>
        <pt x="416" y="-113" on="1"/>
        <pt x="416" y="-161" on="0"/>
        <pt x="472" y="-161" on="1"/>
        <pt x="500" y="-161" on="0"/>
        <pt x="531" y="-154" on="1"/>
        <pt x="521" y="-231" on="1"/>
        <pt x="491" y="-239" on="0"/>
        <pt x="459" y="-239" on="1"/>
        <pt x="400" y="-239" on="0"/>
        <pt x="326" y="-179" on="0"/>
        <pt x="326" y="-131" on="1"/>
        <pt x="326" y="-80" on="0"/>
        <pt x="395" y="-7" on="0"/>
        <pt x="463" y="19" on="1"/>
        <pt x="421" y="166" on="1"/>
        <pt x="175" y="166" on="1"/>
        <pt x="127" y="0" on="1"/>
        <pt x="8" y="0" on="1"/>
        <pt x="228" y="690" on="1"/>
        <pt x="372" y="690" on="1"/>
        <pt x="592" y="0" on="1"/>
        <pt x="536" y="0" on="1"/>
      </contour>
      <contour>
        <pt x="298" y="600" on="1"/>
        <pt x="199" y="256" on="1"/>
        <pt x="397" y="256" on="1"/>
      </contour>
    </TTGlyph>
    <TTGlyph name="Aring" xMin="8" yMin="0" xMax="592" yMax="961">
      <component glyphName="A" x="0" y="0" flags="0x0"/>
      <component glyphName="ring.case" x="-1" y="0" flags="0x0"/>
    </TTGlyph>
    <TTGlyph name="Atilde" xMin="8" yMin="0" xMax="592" yMax="896">
      <component glyphName="A" x="0" y="0" flags="0x0"/>
      <component glyphName="tilde.case" x="-1" y="0" flags="0x0"/>
    </TTGlyph>
    <TTGlyph name="B" xMin="81" yMin="0" xMax="552" yMax="690">
      <contour>
        <pt x="552" y="92" on="0"/>
        <pt x="400" y="0" on="0"/>
        <pt x="283" y="0" on="1"/>
        <pt x="81" y="0" on="1"/>
        <pt x="81" y="690" on="1"/>
        <pt x="270" y="690" on="1"/>
        <pt x="380" y="690" on="0"/>
        <pt x="522" y="609" on="0"/>
        <pt x="522" y="515" on="1"/>
        <pt x="522" y="454" on="0"/>
        <pt x="449" y="378" on="0"/>
        <pt x="394" y="366" on="1"/>
        <pt x="462" y="354" on="0"/>
        <pt x="552" y="277" on="0"/>
        <pt x="552" y="199" on="1"/>
      </contour>
      <contour>
        <pt x="404" y="556" on="0"/>
        <pt x="341" y="603" on="0"/>
        <pt x="280" y="603" on="1"/>
        <pt x="197" y="603" on="1"/>
        <pt x="197" y="404" on="1"/>
        <pt x="287" y="404" on="1"/>
        <pt x="346" y="404" on="0"/>
        <pt x="404" y="453" on="0"/>
        <pt x="404" y="506" on="1"/>
      </contour>
      <contour>
        <pt x="430" y="264" on="0"/>
        <pt x="358" y="317" on="0"/>
        <pt x="295" y="317" on="1"/>
        <pt x="197" y="317" on="1"/>
        <pt x="197" y="90" on="1"/>
        <pt x="291" y="90" on="1"/>
        <pt x="430" y="90" on="0"/>
        <pt x="430" y="200" on="1"/>
      </contour>
    </TTGlyph>
    <TTGlyph name="Beta" xMin="81" yMin="0" xMax="552" yMax="690">
      <component glyphName="B" x="0" y="0" flags="0x0"/>
    </TTGlyph>
    <TTGlyph name="C" xMin="52" yMin="-13" xMax="576" yMax="704">
      <contour>
        <pt x="426" y="704" on="0"/>
        <pt x="522" y="670" on="0"/>
        <pt x="566" y="634" on="1"/>
        <pt x="506" y="562" on="1"/>
        <pt x="443" y="613" on="0"/>
        <pt x="363" y="613" on="1"/>
        <pt x="279" y="613" on="0"/>
        <pt x="173" y="484" on="0"/>
        <pt x="173" y="346" on="1"/>
        <pt x="173" y="210" on="0"/>
        <pt x="277" y="81" on="0"/>
        <pt x="364" y="81" on="1"/>
        <pt x="413" y="81" on="0"/>
        <pt x="485" y="112" on="0"/>
        <pt x="520" y="140" on="1"/>
        <pt x="576" y="69" on="1"/>
        <pt x="492" y="-13" on="0"/>
        <pt x="360" y="-13" on="1"/>
        <pt x="271" y="-13" on="0"/>
        <pt x="131" y="70" on="0"/>
        <pt x="52" y="232" on="0"/>
        <pt x="52" y="346" on="1"/>
        <pt x="52" y="458" on="0"/>
        <pt x="133" y="620" on="0"/>
        <pt x="272" y="704" on="0"/>
        <pt x="358" y="704" on="1"/>
      </contour>
    </TTGlyph>
    <TTGlyph name="Cacute" xMin="52" yMin="-13" xMax="576" yMax="924">
      <component glyphName="C" x="0" y="0" flags="0x0"/>
      <component glyphName="acute.case" x="64" y="0" flags="0x0"/>
    </TTGlyph>
    <TTGlyph name="Cacute.loclPLK" xMin="52" yMin="-13" xMax="576" yMax="937">
      <component glyphName="C" x="0" y="0" flags="0x0"/>
      <component glyphName="acute.case.loclPLK" x="100" y="0" flags="0x0"/>
    </TTGlyph>
    <TTGlyph name="Ccaron" xMin="52" yMin="-13" xMax="576" yMax="920">
      <component glyphName="C" x="0" y="0" flags="0x0"/>
      <component glyphName="caron.case" x="64" y="0" flags="0x0"/>
    </TTGlyph>
    <TTGlyph name="Ccedilla" xMin="52" yMin="-248" xMax="576" yMax="704">
      <contour>
        <pt x="423" y="-58" on="0"/>
        <pt x="472" y="-107" on="0"/>
        <pt x="472" y="-143" on="1"/>
        <pt x="472" y="-191" on="0"/>
        <pt x="396" y="-248" on="0"/>
        <pt x="339" y="-248" on="1"/>
        <pt x="308" y="-248" on="0"/>
        <pt x="251" y="-233" on="0"/>
        <pt x="230" y="-221" on="1"/>
        <pt x="260" y="-163" on="1"/>
        <pt x="294" y="-180" on="0"/>
        <pt x="326" y="-180" on="1"/>
        <pt x="383" y="-180" on="0"/>
        <pt x="383" y="-142" on="1"/>
        <pt x="383" y="-119" on="0"/>
        <pt x="340" y="-103" on="0"/>
        <pt x="295" y="-103" on="1"/>
        <pt x="303" y="-8" on="1"/>
        <pt x="189" y="11" on="0"/>
        <pt x="52" y="194" on="0"/>
        <pt x="52" y="346" on="1"/>
        <pt x="52" y="458" on="0"/>
        <pt x="133" y="620" on="0"/>
        <pt x="272" y="704" on="0"/>
        <pt x="358" y="704" on="1"/>
        <pt x="425" y="704" on="0"/>
        <pt x="522" y="670" on="0"/>
        <pt x="566" y="634" on="1"/>
        <pt x="506" y="562" on="1"/>
        <pt x="443" y="613" on="0"/>
        <pt x="363" y="613" on="1"/>
        <pt x="279" y="613" on="0"/>
        <pt x="173" y="484" on="0"/>
        <pt x="173" y="346" on="1"/>
        <pt x="173" y="210" on="0"/>
        <pt x="277" y="81" on="0"/>
        <pt x="364" y="81" on="1"/>
        <pt x="413" y="81" on="0"/>
        <pt x="485" y="112" on="0"/>
        <pt x="520" y="140" on="1"/>
        <pt x="576" y="69" on="1"/>
        <pt x="497" y="-8" on="0"/>
        <pt x="375" y="-13" on="1"/>
        <pt x="375" y="-54" on="1"/>
      </contour>
    </TTGlyph>
    <TTGlyph name="Ccircumflex" xMin="52" yMin="-13" xMax="576" yMax="923">
      <component glyphName="C" x="0" y="0" flags="0x0"/>
      <component glyphName="circumflex.case" x="64" y="0" flags="0x0"/>
    </TTGlyph>
    <TTGlyph name="Cdotaccent" xMin="52" yMin="-13" xMax="576" yMax="908">
      <component glyphName="C" x="0" y="0" flags="0x0"/>
      <component glyphName="dotaccent.case" x="62" y="0" flags="0x0"/>
    </TTGlyph>
    <TTGlyph name="Chi" xMin="20" yMin="0" xMax="580" yMax="690">
      <component glyphName="X" x="0" y="0" flags="0x0"/>
    </TTGlyph>
    <TTGlyph name="D" xMin="71" yMin="0" xMax="561" yMax="690">
      <contour>
        <pt x="561" y="153" on="0"/>
        <pt x="379" y="0" on="0"/>
        <pt x="240" y="0" on="1"/>
        <pt x="71" y="0" on="1"/>
        <pt x="71" y="690" on="1"/>
        <pt x="229" y="690" on="1"/>
        <pt x="379" y="690" on="0"/>
        <pt x="561" y="545" on="0"/>
        <pt x="561" y="349" on="1"/>
      </contour>
      <contour>
        <pt x="439" y="497" on="0"/>
        <pt x="336" y="601" on="0"/>
        <pt x="251" y="601" on="1"/>
        <pt x="188" y="601" on="1"/>
        <pt x="188" y="89" on="1"/>
        <pt x="252" y="89" on="1"/>
        <pt x="336" y="89" on="0"/>
        <pt x="439" y="204" on="0"/>
        <pt x="439" y="349" on="1"/>
      </contour>
    </TTGlyph>
    <TTGlyph name="Dcaron" xMin="71" yMin="0" xMax="561" yMax="920">
      <component glyphName="D" x="0" y="0" flags="0x0"/>
      <component glyphName="caron.case" x="-15" y="0" flags="0x0"/>
    </TTGlyph>
    <TTGlyph name="Dcroat" xMin="16" yMin="0" xMax="572" yMax="690">
      <component glyphName="Eth" x="0" y="0" flags="0x0"/>
    </TTGlyph>
    <TTGlyph name="Delta" xMin="8" yMin="0" xMax="592" yMax="690">
      <contour>
        <pt x="8" y="0" on="1"/>
        <pt x="228" y="690" on="1"/>
        <pt x="372" y="690" on="1"/>
        <pt x="592" y="0" on="1"/>
      </contour>
      <contour>
        <pt x="442" y="95" on="1"/>
        <pt x="298" y="599" on="1"/>
        <pt x="153" y="95" on="1"/>
      </contour>
    </TTGlyph>
    <TTGlyph name="E" xMin="113" yMin="0" xMax="534" yMax="690">
      <contour>
        <pt x="479" y="395" on="1"/>
        <pt x="479" y="307" on="1"/>
        <pt x="229" y="307" on="1"/>
        <pt x="229" y="88" on="1"/>
        <pt x="534" y="88" on="1"/>
        <pt x="534" y="0" on="1"/>
        <pt x="113" y="0" on="1"/>
        <pt x="113" y="690" on="1"/>
        <pt x="528" y="690" on="1"/>
        <pt x="515" y="602" on="1"/>
        <pt x="229" y="602" on="1"/>
        <pt x="229" y="395" on="1"/>
      </contour>
    </TTGlyph>
    <TTGlyph name="Eacute" xMin="113" yMin="0" xMax="534" yMax="924">
      <component glyphName="E" x="0" y="0" flags="0x0"/>
      <component glyphName="acute.case" x="21" y="0" flags="0x0"/>
    </TTGlyph>
    <TTGlyph name="Ebreve" xMin="113" yMin="0" xMax="534" yMax="902">
      <component glyphName="E" x="0" y="0" flags="0x0"/>
      <component glyphName="breve.case" x="20" y="0" flags="0x0"/>
    </TTGlyph>
    <TTGlyph name="Ecaron" xMin="113" yMin="0" xMax="534" yMax="920">
      <component glyphName="E" x="0" y="0" flags="0x0"/>
      <component glyphName="caron.case" x="21" y="0" flags="0x0"/>
    </TTGlyph>
    <TTGlyph name="Ecircumflex" xMin="113" yMin="0" xMax="534" yMax="923">
      <component glyphName="E" x="0" y="0" flags="0x0"/>
      <component glyphName="circumflex.case" x="21" y="0" flags="0x0"/>
    </TTGlyph>
    <TTGlyph name="Edieresis" xMin="113" yMin="0" xMax="534" yMax="893">
      <component glyphName="E" x="0" y="0" flags="0x0"/>
      <component glyphName="dieresis.case" x="19" y="0" flags="0x0"/>
    </TTGlyph>
    <TTGlyph name="Edotaccent" xMin="113" yMin="0" xMax="534" yMax="908">
      <component glyphName="E" x="0" y="0" flags="0x0"/>
      <component glyphName="dotaccent.case" x="19" y="0" flags="0x0"/>
    </TTGlyph>
    <TTGlyph name="Egrave" xMin="113" yMin="0" xMax="534" yMax="926">
      <component glyphName="E" x="0" y="0" flags="0x0"/>
      <component glyphName="grave.case" x="19" y="0" flags="0x0"/>
    </TTGlyph>
    <TTGlyph name="Emacron" xMin="113" yMin="0" xMax="534" yMax="872">
      <component glyphName="E" x="0" y="0" flags="0x0"/>
      <component glyphName="macron.case" x="19" y="0" flags="0x0"/>
    </TTGlyph>
    <TTGlyph name="Eng" xMin="71" yMin="-216" xMax="529" yMax="690">
      <contour>
        <pt x="529" y="-77" on="0"/>
        <pt x="429" y="-184" on="0"/>
        <pt x="337" y="-216" on="1"/>
        <pt x="309" y="-134" on="1"/>
        <pt x="372" y="-108" on="0"/>
        <pt x="419" y="-49" on="0"/>
        <pt x="421" y="0" on="1"/>
        <pt x="377" y="0" on="1"/>
        <pt x="162" y="570" on="1"/>
        <pt x="158" y="570" on="1"/>
        <pt x="163" y="542" on="0"/>
        <pt x="175" y="386" on="0"/>
        <pt x="175" y="313" on="1"/>
        <pt x="175" y="0" on="1"/>
        <pt x="71" y="0" on="1"/>
        <pt x="71" y="690" on="1"/>
        <pt x="222" y="690" on="1"/>
        <pt x="438" y="118" on="1"/>
        <pt x="442" y="118" on="1"/>
        <pt x="437" y="147" on="0"/>
        <pt x="425" y="294" on="0"/>
        <pt x="425" y="376" on="1"/>
        <pt x="425" y="690" on="1"/>
        <pt x="529" y="690" on="1"/>
        <pt x="529" y="14" on="1"/>
      </contour>
    </TTGlyph>
    <TTGlyph name="Eogonek" xMin="113" yMin="-239" xMax="534" yMax="690">
      <contour>
        <pt x="534" y="0" on="1"/>
        <pt x="467" y="0" on="1"/>
        <pt x="398" y="-28" on="0"/>
        <pt x="347" y="-81" on="0"/>
        <pt x="347" y="-113" on="1"/>
        <pt x="347" y="-161" on="0"/>
        <pt x="403" y="-161" on="1"/>
        <pt x="431" y="-161" on="0"/>
        <pt x="462" y="-154" on="1"/>
        <pt x="452" y="-231" on="1"/>
        <pt x="422" y="-239" on="0"/>
        <pt x="390" y="-239" on="1"/>
        <pt x="331" y="-239" on="0"/>
        <pt x="257" y="-179" on="0"/>
        <pt x="257" y="-131" on="1"/>
        <pt x="257" y="-88" on="0"/>
        <pt x="304" y="-25" on="0"/>
        <pt x="351" y="0" on="1"/>
        <pt x="113" y="0" on="1"/>
        <pt x="113" y="690" on="1"/>
        <pt x="528" y="690" on="1"/>
        <pt x="515" y="602" on="1"/>
        <pt x="229" y="602" on="1"/>
        <pt x="229" y="395" on="1"/>
        <pt x="479" y="395" on="1"/>
        <pt x="479" y="307" on="1"/>
        <pt x="229" y="307" on="1"/>
        <pt x="229" y="88" on="1"/>
        <pt x="534" y="88" on="1"/>
      </contour>
    </TTGlyph>
    <TTGlyph name="Epsilon" xMin="113" yMin="0" xMax="534" yMax="690">
      <contour>
        <pt x="479" y="395" on="1"/>
        <pt x="479" y="307" on="1"/>
        <pt x="229" y="307" on="1"/>
        <pt x="229" y="88" on="1"/>
        <pt x="534" y="88" on="1"/>
        <pt x="534" y="0" on="1"/>
        <pt x="113" y="0" on="1"/>
        <pt x="113" y="690" on="1"/>
        <pt x="528" y="690" on="1"/>
        <pt x="515" y="602" on="1"/>
        <pt x="229" y="602" on="1"/>
        <pt x="229" y="395" on="1"/>
      </contour>
    </TTGlyph>
    <TTGlyph name="Epsilontonos" xMin="-79" yMin="0" xMax="534" yMax="710">
      <component glyphName="E" x="0" y="0" flags="0x0"/>
      <component glyphName="tonos.case" x="-294" y="0" flags="0x0"/>
    </TTGlyph>
    <TTGlyph name="Eta" xMin="71" yMin="0" xMax="529" yMax="690">
      <contour>
        <pt x="188" y="313" on="1"/>
        <pt x="188" y="0" on="1"/>
        <pt x="71" y="0" on="1"/>
        <pt x="71" y="690" on="1"/>
        <pt x="188" y="690" on="1"/>
        <pt x="188" y="410" on="1"/>
        <pt x="412" y="410" on="1"/>
        <pt x="412" y="690" on="1"/>
        <pt x="529" y="690" on="1"/>
        <pt x="529" y="0" on="1"/>
        <pt x="412" y="0" on="1"/>
        <pt x="412" y="313" on="1"/>
      </contour>
    </TTGlyph>
    <TTGlyph name="Etatonos" xMin="-124" yMin="0" xMax="529" yMax="710">
      <component glyphName="H" x="0" y="0" flags="0x0"/>
      <component glyphName="tonos.case" x="-339" y="0" flags="0x0"/>
    </TTGlyph>
    <TTGlyph name="Eth" xMin="16" yMin="0" xMax="572" yMax="690">
      <contour>
        <pt x="389" y="690" on="0"/>
        <pt x="572" y="544" on="0"/>
        <pt x="572" y="349" on="1"/>
        <pt x="572" y="153" on="0"/>
        <pt x="390" y="0" on="0"/>
        <pt x="251" y="0" on="1"/>
        <pt x="82" y="0" on="1"/>
        <pt x="82" y="314" on="1"/>
        <pt x="16" y="314" on="1"/>
        <pt x="16" y="392" on="1"/>
        <pt x="82" y="392" on="1"/>
        <pt x="82" y="690" on="1"/>
        <pt x="240" y="690" on="1"/>
      </contour>
      <contour>
        <pt x="450" y="89" on="0"/>
        <pt x="450" y="349" on="1"/>
        <pt x="450" y="497" on="0"/>
        <pt x="347" y="601" on="0"/>
        <pt x="262" y="601" on="1"/>
        <pt x="198" y="601" on="1"/>
        <pt x="198" y="392" on="1"/>
        <pt x="342" y="392" on="1"/>
        <pt x="342" y="314" on="1"/>
        <pt x="198" y="314" on="1"/>
        <pt x="198" y="89" on="1"/>
        <pt x="263" y="89" on="1"/>
      </contour>
    </TTGlyph>
    <TTGlyph name="Euro" xMin="34" yMin="-13" xMax="556" yMax="704">
      <contour>
        <pt x="444" y="704" on="0"/>
        <pt x="520" y="680" on="0"/>
        <pt x="556" y="656" on="1"/>
        <pt x="507" y="581" on="1"/>
        <pt x="479" y="599" on="0"/>
        <pt x="428" y="615" on="0"/>
        <pt x="397" y="615" on="1"/>
        <pt x="335" y="615" on="0"/>
        <pt x="258" y="540" on="0"/>
        <pt x="244" y="458" on="1"/>
        <pt x="474" y="458" on="1"/>
        <pt x="457" y="390" on="1"/>
        <pt x="236" y="390" on="1"/>
        <pt x="236" y="306" on="1"/>
        <pt x="440" y="306" on="1"/>
        <pt x="423" y="237" on="1"/>
        <pt x="241" y="237" on="1"/>
        <pt x="253" y="153" on="0"/>
        <pt x="325" y="76" on="0"/>
        <pt x="392" y="76" on="1"/>
        <pt x="434" y="76" on="0"/>
        <pt x="505" y="103" on="0"/>
        <pt x="532" y="125" on="1"/>
        <pt x="532" y="23" on="1"/>
        <pt x="465" y="-13" on="0"/>
        <pt x="385" y="-13" on="1"/>
        <pt x="277" y="-13" on="0"/>
        <pt x="146" y="115" on="0"/>
        <pt x="127" y="237" on="1"/>
        <pt x="34" y="237" on="1"/>
        <pt x="51" y="306" on="1"/>
        <pt x="119" y="306" on="1"/>
        <pt x="120" y="390" on="1"/>
        <pt x="34" y="390" on="1"/>
        <pt x="51" y="458" on="1"/>
        <pt x="129" y="458" on="1"/>
        <pt x="152" y="575" on="0"/>
        <pt x="291" y="704" on="0"/>
        <pt x="391" y="704" on="1"/>
      </contour>
    </TTGlyph>
    <TTGlyph name="Euro.tosf" xMin="34" yMin="-13" xMax="556" yMax="704">
      <component glyphName="Euro" x="0" y="0" flags="0x0"/>
    </TTGlyph>
    <TTGlyph name="F" xMin="127" yMin="0" xMax="551" yMax="690">
      <contour>
        <pt x="503" y="382" on="1"/>
        <pt x="503" y="294" on="1"/>
        <pt x="243" y="294" on="1"/>
        <pt x="243" y="0" on="1"/>
        <pt x="127" y="0" on="1"/>
        <pt x="127" y="690" on="1"/>
        <pt x="551" y="690" on="1"/>
        <pt x="539" y="602" on="1"/>
        <pt x="243" y="602" on="1"/>
        <pt x="243" y="382" on="1"/>
      </contour>
    </TTGlyph>
    <TTGlyph name="G" xMin="37" yMin="-13" xMax="550" yMax="704">
      <contour>
        <pt x="184" y="-13" on="0"/>
        <pt x="37" y="170" on="0"/>
        <pt x="37" y="346" on="1"/>
        <pt x="37" y="460" on="0"/>
        <pt x="118" y="622" on="0"/>
        <pt x="255" y="704" on="0"/>
        <pt x="338" y="704" on="1"/>
        <pt x="405" y="704" on="0"/>
        <pt x="501" y="664" on="0"/>
        <pt x="544" y="624" on="1"/>
        <pt x="478" y="557" on="1"/>
        <pt x="446" y="586" on="0"/>
        <pt x="381" y="613" on="0"/>
        <pt x="341" y="613" on="1"/>
        <pt x="261" y="613" on="0"/>
        <pt x="159" y="484" on="0"/>
        <pt x="159" y="346" on="1"/>
        <pt x="159" y="204" on="0"/>
        <pt x="240" y="77" on="0"/>
        <pt x="324" y="77" on="1"/>
        <pt x="382" y="77" on="0"/>
        <pt x="437" y="106" on="1"/>
        <pt x="437" y="296" on="1"/>
        <pt x="320" y="296" on="1"/>
        <pt x="308" y="385" on="1"/>
        <pt x="550" y="385" on="1"/>
        <pt x="550" y="50" on="1"/>
        <pt x="497" y="20" on="0"/>
        <pt x="386" y="-13" on="0"/>
        <pt x="318" y="-13" on="1"/>
      </contour>
    </TTGlyph>
    <TTGlyph name="Gamma" xMin="118" yMin="0" xMax="550" yMax="690">
      <component glyphName="uni0413" x="0" y="0" flags="0x0"/>
    </TTGlyph>
    <TTGlyph name="Gbreve" xMin="37" yMin="-13" xMax="550" yMax="902">
      <component glyphName="G" x="0" y="0" flags="0x0"/>
      <component glyphName="breve.case" x="29" y="0" flags="0x0"/>
    </TTGlyph>
    <TTGlyph name="Gcircumflex" xMin="37" yMin="-13" xMax="550" yMax="923">
      <component glyphName="G" x="0" y="0" flags="0x0"/>
      <component glyphName="circumflex.case" x="30" y="0" flags="0x0"/>
    </TTGlyph>
    <TTGlyph name="Gcommaaccent" xMin="37" yMin="-300" xMax="550" yMax="704">
      <component glyphName="G" x="0" y="0" flags="0x0"/>
      <component glyphName="uni0326" x="29" y="0" flags="0x0"/>
    </TTGlyph>
    <TTGlyph name="Gdotaccent" xMin="37" yMin="-13" xMax="550" yMax="908">
      <component glyphName="G" x="0" y="0" flags="0x0"/>
      <component glyphName="dotaccent.case" x="29" y="0" flags="0x0"/>
    </TTGlyph>
    <TTGlyph name="H" xMin="71" yMin="0" xMax="529" yMax="690">
      <contour>
        <pt x="188" y="313" on="1"/>
        <pt x="188" y="0" on="1"/>
        <pt x="71" y="0" on="1"/>
        <pt x="71" y="690" on="1"/>
        <pt x="188" y="690" on="1"/>
        <pt x="188" y="410" on="1"/>
        <pt x="412" y="410" on="1"/>
        <pt x="412" y="690" on="1"/>
        <pt x="529" y="690" on="1"/>
        <pt x="529" y="0" on="1"/>
        <pt x="412" y="0" on="1"/>
        <pt x="412" y="313" on="1"/>
      </contour>
    </TTGlyph>
    <TTGlyph name="H18543" xMin="142" yMin="0" xMax="427" yMax="270">
      <contour>
        <pt x="142" y="0" on="1"/>
        <pt x="142" y="270" on="1"/>
        <pt x="427" y="270" on="1"/>
        <pt x="427" y="0" on="1"/>
      </contour>
    </TTGlyph>
    <TTGlyph name="H18551" xMin="142" yMin="0" xMax="427" yMax="270">
      <contour>
        <pt x="142" y="0" on="1"/>
        <pt x="142" y="270" on="1"/>
        <pt x="427" y="270" on="1"/>
        <pt x="427" y="0" on="1"/>
      </contour>
      <contour>
        <pt x="222" y="80" on="1"/>
        <pt x="347" y="80" on="1"/>
        <pt x="347" y="190" on="1"/>
        <pt x="222" y="190" on="1"/>
      </contour>
    </TTGlyph>
    <TTGlyph name="H22073" xMin="30" yMin="0" xMax="570" yMax="540">
      <contour>
        <pt x="30" y="0" on="1"/>
        <pt x="30" y="540" on="1"/>
        <pt x="570" y="540" on="1"/>
        <pt x="570" y="0" on="1"/>
      </contour>
      <contour>
        <pt x="110" y="80" on="1"/>
        <pt x="490" y="80" on="1"/>
        <pt x="490" y="460" on="1"/>
        <pt x="110" y="460" on="1"/>
      </contour>
    </TTGlyph>
    <TTGlyph name="Hbar" xMin="2" yMin="0" xMax="598" yMax="690">
      <contour>
        <pt x="527" y="506" on="1"/>
        <pt x="527" y="0" on="1"/>
        <pt x="411" y="0" on="1"/>
        <pt x="411" y="315" on="1"/>
        <pt x="189" y="315" on="1"/>
        <pt x="189" y="0" on="1"/>
        <pt x="73" y="0" on="1"/>
        <pt x="73" y="506" on="1"/>
        <pt x="2" y="506" on="1"/>
        <pt x="2" y="582" on="1"/>
        <pt x="73" y="582" on="1"/>
        <pt x="73" y="690" on="1"/>
        <pt x="189" y="690" on="1"/>
        <pt x="189" y="582" on="1"/>
        <pt x="411" y="582" on="1"/>
        <pt x="411" y="690" on="1"/>
        <pt x="527" y="690" on="1"/>
        <pt x="527" y="582" on="1"/>
        <pt x="598" y="582" on="1"/>
        <pt x="598" y="506" on="1"/>
      </contour>
      <contour>
        <pt x="189" y="506" on="1"/>
        <pt x="189" y="408" on="1"/>
        <pt x="411" y="408" on="1"/>
        <pt x="411" y="506" on="1"/>
      </contour>
    </TTGlyph>
    <TTGlyph name="Hcircumflex" xMin="71" yMin="0" xMax="529" yMax="923">
      <component glyphName="H" x="0" y="0" flags="0x0"/>
      <component glyphName="circumflex.case" x="0" y="0" flags="0x0"/>
    </TTGlyph>
    <TTGlyph name="I" xMin="92" yMin="0" xMax="508" yMax="690">
      <contour>
        <pt x="359" y="601" on="1"/>
        <pt x="359" y="89" on="1"/>
        <pt x="508" y="89" on="1"/>
        <pt x="508" y="0" on="1"/>
        <pt x="92" y="0" on="1"/>
        <pt x="92" y="89" on="1"/>
        <pt x="241" y="89" on="1"/>
        <pt x="241" y="601" on="1"/>
        <pt x="92" y="601" on="1"/>
        <pt x="92" y="690" on="1"/>
        <pt x="508" y="690" on="1"/>
        <pt x="508" y="601" on="1"/>
      </contour>
    </TTGlyph>
    <TTGlyph name="IJ" xMin="10" yMin="-154" xMax="542" yMax="690">
      <contour>
        <pt x="284" y="-59" on="0"/>
        <pt x="388" y="4" on="0"/>
        <pt x="427" y="105" on="0"/>
        <pt x="427" y="182" on="1"/>
        <pt x="427" y="607" on="1"/>
        <pt x="213" y="607" on="1"/>
        <pt x="213" y="83" on="1"/>
        <pt x="282" y="83" on="1"/>
        <pt x="282" y="0" on="1"/>
        <pt x="10" y="0" on="1"/>
        <pt x="10" y="83" on="1"/>
        <pt x="100" y="83" on="1"/>
        <pt x="100" y="607" on="1"/>
        <pt x="10" y="607" on="1"/>
        <pt x="10" y="690" on="1"/>
        <pt x="542" y="690" on="1"/>
        <pt x="542" y="181" on="1"/>
        <pt x="542" y="42" on="0"/>
        <pt x="389" y="-132" on="0"/>
        <pt x="203" y="-154" on="1"/>
        <pt x="189" y="-71" on="1"/>
      </contour>
    </TTGlyph>
    <TTGlyph name="Iacute" xMin="92" yMin="0" xMax="508" yMax="924">
      <component glyphName="I" x="0" y="0" flags="0x0"/>
      <component glyphName="acute.case" x="0" y="0" flags="0x0"/>
    </TTGlyph>
    <TTGlyph name="Ibreve" xMin="92" yMin="0" xMax="508" yMax="902">
      <component glyphName="I" x="0" y="0" flags="0x0"/>
      <component glyphName="breve.case" x="-1" y="0" flags="0x0"/>
    </TTGlyph>
    <TTGlyph name="Icircumflex" xMin="92" yMin="0" xMax="508" yMax="923">
      <component glyphName="I" x="0" y="0" flags="0x0"/>
      <component glyphName="circumflex.case" x="0" y="0" flags="0x0"/>
    </TTGlyph>
    <TTGlyph name="Idieresis" xMin="92" yMin="0" xMax="508" yMax="893">
      <component glyphName="I" x="0" y="0" flags="0x0"/>
      <component glyphName="dieresis.case" x="-2" y="0" flags="0x0"/>
    </TTGlyph>
    <TTGlyph name="Idotaccent" xMin="92" yMin="0" xMax="508" yMax="908">
      <component glyphName="I" x="0" y="0" flags="0x0"/>
      <component glyphName="dotaccent.case" x="-2" y="0" flags="0x0"/>
    </TTGlyph>
    <TTGlyph name="Igrave" xMin="92" yMin="0" xMax="508" yMax="926">
      <component glyphName="I" x="0" y="0" flags="0x0"/>
      <component glyphName="grave.case" x="-2" y="0" flags="0x0"/>
    </TTGlyph>
    <TTGlyph name="Imacron" xMin="92" yMin="0" xMax="508" yMax="872">
      <component glyphName="I" x="0" y="0" flags="0x0"/>
      <component glyphName="macron.case" x="-2" y="0" flags="0x0"/>
    </TTGlyph>
    <TTGlyph name="Iogonek" xMin="92" yMin="-239" xMax="508" yMax="690">
      <contour>
        <pt x="359" y="89" on="1"/>
        <pt x="508" y="89" on="1"/>
        <pt x="508" y="0" on="1"/>
        <pt x="358" y="0" on="1"/>
        <pt x="289" y="-28" on="0"/>
        <pt x="238" y="-81" on="0"/>
        <pt x="238" y="-113" on="1"/>
        <pt x="238" y="-161" on="0"/>
        <pt x="294" y="-161" on="1"/>
        <pt x="322" y="-161" on="0"/>
        <pt x="353" y="-154" on="1"/>
        <pt x="343" y="-231" on="1"/>
        <pt x="313" y="-239" on="0"/>
        <pt x="281" y="-239" on="1"/>
        <pt x="222" y="-239" on="0"/>
        <pt x="148" y="-179" on="0"/>
        <pt x="148" y="-131" on="1"/>
        <pt x="148" y="-88" on="0"/>
        <pt x="195" y="-25" on="0"/>
        <pt x="242" y="0" on="1"/>
        <pt x="92" y="0" on="1"/>
        <pt x="92" y="89" on="1"/>
        <pt x="241" y="89" on="1"/>
        <pt x="241" y="601" on="1"/>
        <pt x="92" y="601" on="1"/>
        <pt x="92" y="690" on="1"/>
        <pt x="508" y="690" on="1"/>
        <pt x="508" y="601" on="1"/>
        <pt x="359" y="601" on="1"/>
      </contour>
    </TTGlyph>
    <TTGlyph name="Iota" xMin="92" yMin="0" xMax="508" yMax="690">
      <contour>
        <pt x="359" y="601" on="1"/>
        <pt x="359" y="89" on="1"/>
        <pt x="508" y="89" on="1"/>
        <pt x="508" y="0" on="1"/>
        <pt x="92" y="0" on="1"/>
        <pt x="92" y="89" on="1"/>
        <pt x="241" y="89" on="1"/>
        <pt x="241" y="601" on="1"/>
        <pt x="92" y="601" on="1"/>
        <pt x="92" y="690" on="1"/>
        <pt x="508" y="690" on="1"/>
        <pt x="508" y="601" on="1"/>
      </contour>
    </TTGlyph>
    <TTGlyph name="Iotadieresis" xMin="92" yMin="0" xMax="508" yMax="893">
      <component glyphName="I" x="0" y="0" flags="0x0"/>
      <component glyphName="dieresis.case" x="-2" y="0" flags="0x0"/>
    </TTGlyph>
    <TTGlyph name="Iotatonos" xMin="-99" yMin="0" xMax="508" yMax="710">
      <component glyphName="I" x="0" y="0" flags="0x0"/>
      <component glyphName="tonos.case" x="-314" y="0" flags="0x0"/>
    </TTGlyph>
    <TTGlyph name="Itilde" xMin="92" yMin="0" xMax="508" yMax="896">
      <component glyphName="I" x="0" y="0" flags="0x0"/>
      <component glyphName="tilde.case" x="-2" y="0" flags="0x0"/>
    </TTGlyph>
    <TTGlyph name="J" xMin="60" yMin="-13" xMax="508" yMax="690">
      <contour>
        <pt x="508" y="128" on="0"/>
        <pt x="383" y="-13" on="0"/>
        <pt x="256" y="-13" on="1"/>
        <pt x="147" y="-13" on="0"/>
        <pt x="60" y="51" on="1"/>
        <pt x="107" y="125" on="1"/>
        <pt x="146" y="99" on="0"/>
        <pt x="215" y="79" on="0"/>
        <pt x="252" y="79" on="1"/>
        <pt x="317" y="79" on="0"/>
        <pt x="392" y="163" on="0"/>
        <pt x="392" y="239" on="1"/>
        <pt x="392" y="601" on="1"/>
        <pt x="185" y="601" on="1"/>
        <pt x="185" y="690" on="1"/>
        <pt x="508" y="690" on="1"/>
        <pt x="508" y="237" on="1"/>
      </contour>
    </TTGlyph>
    <TTGlyph name="Jcircumflex" xMin="60" yMin="-13" xMax="524" yMax="923">
      <component glyphName="J" x="0" y="0" flags="0x0"/>
      <component glyphName="circumflex.case" x="51" y="0" flags="0x0"/>
    </TTGlyph>
    <TTGlyph name="K" xMin="87" yMin="0" xMax="595" yMax="690">
      <contour>
        <pt x="87" y="690" on="1"/>
        <pt x="204" y="690" on="1"/>
        <pt x="204" y="0" on="1"/>
        <pt x="87" y="0" on="1"/>
      </contour>
      <contour>
        <pt x="576" y="690" on="1"/>
        <pt x="335" y="376" on="1"/>
        <pt x="595" y="0" on="1"/>
        <pt x="456" y="0" on="1"/>
        <pt x="209" y="369" on="1"/>
        <pt x="448" y="690" on="1"/>
      </contour>
    </TTGlyph>
    <TTGlyph name="Kappa" xMin="87" yMin="0" xMax="595" yMax="690">
      <component glyphName="K" x="0" y="0" flags="0x0"/>
    </TTGlyph>
    <TTGlyph name="Kcommaaccent" xMin="87" yMin="-300" xMax="595" yMax="690">
      <component glyphName="K" x="0" y="0" flags="0x0"/>
      <component glyphName="uni0326.case" x="14" y="0" flags="0x0"/>
    </TTGlyph>
    <TTGlyph name="L" xMin="119" yMin="0" xMax="545" yMax="690">
      <contour>
        <pt x="236" y="690" on="1"/>
        <pt x="236" y="97" on="1"/>
        <pt x="545" y="97" on="1"/>
        <pt x="532" y="0" on="1"/>
        <pt x="119" y="0" on="1"/>
        <pt x="119" y="690" on="1"/>
      </contour>
    </TTGlyph>
    <TTGlyph name="Lacute" xMin="54" yMin="0" xMax="545" yMax="924">
      <component glyphName="L" x="0" y="0" flags="0x0"/>
      <component glyphName="acute.case" x="-122" y="0" flags="0x0"/>
    </TTGlyph>
    <TTGlyph name="Lambda" xMin="12" yMin="0" xMax="587" yMax="690">
      <contour>
        <pt x="464" y="0" on="1"/>
        <pt x="298" y="594" on="1"/>
        <pt x="132" y="0" on="1"/>
        <pt x="12" y="0" on="1"/>
        <pt x="228" y="690" on="1"/>
        <pt x="372" y="690" on="1"/>
        <pt x="587" y="0" on="1"/>
      </contour>
    </TTGlyph>
    <TTGlyph name="Lcaron" xMin="119" yMin="0" xMax="545" yMax="704">
      <component glyphName="L" x="0" y="0" flags="0x0"/>
      <component glyphName="caron.alt" x="51" y="1" flags="0x0"/>
    </TTGlyph>
    <TTGlyph name="Lcommaaccent" xMin="119" yMin="-300" xMax="545" yMax="690">
      <component glyphName="L" x="0" y="0" flags="0x0"/>
      <component glyphName="uni0326.case" x="26" y="0" flags="0x0"/>
    </TTGlyph>
    <TTGlyph name="Ldot" xMin="119" yMin="0" xMax="545" yMax="690">
      <component glyphName="L" x="0" y="0" flags="0x0"/>
      <component glyphName="dotaccent" x="170" y="-336" flags="0x0"/>
    </TTGlyph>
    <TTGlyph name="Lslash" xMin="28" yMin="0" xMax="549" yMax="690">
      <contour>
        <pt x="536" y="0" on="1"/>
        <pt x="124" y="0" on="1"/>
        <pt x="124" y="253" on="1"/>
        <pt x="71" y="220" on="1"/>
        <pt x="28" y="289" on="1"/>
        <pt x="124" y="347" on="1"/>
        <pt x="124" y="690" on="1"/>
        <pt x="240" y="690" on="1"/>
        <pt x="240" y="419" on="1"/>
        <pt x="389" y="512" on="1"/>
        <pt x="433" y="445" on="1"/>
        <pt x="240" y="325" on="1"/>
        <pt x="240" y="97" on="1"/>
        <pt x="549" y="97" on="1"/>
      </contour>
    </TTGlyph>
    <TTGlyph name="M" xMin="25" yMin="0" xMax="575" yMax="690">
      <contour>
        <pt x="468" y="0" on="1"/>
        <pt x="452" y="336" on="1"/>
        <pt x="449" y="402" on="0"/>
        <pt x="449" y="461" on="1"/>
        <pt x="449" y="537" on="0"/>
        <pt x="452" y="570" on="1"/>
        <pt x="448" y="570" on="1"/>
        <pt x="350" y="122" on="1"/>
        <pt x="249" y="122" on="1"/>
        <pt x="145" y="570" on="1"/>
        <pt x="141" y="570" on="1"/>
        <pt x="145" y="522" on="0"/>
        <pt x="145" y="446" on="1"/>
        <pt x="145" y="411" on="0"/>
        <pt x="143" y="335" on="1"/>
        <pt x="130" y="0" on="1"/>
        <pt x="25" y="0" on="1"/>
        <pt x="64" y="690" on="1"/>
        <pt x="204" y="690" on="1"/>
        <pt x="302" y="228" on="1"/>
        <pt x="396" y="690" on="1"/>
        <pt x="536" y="690" on="1"/>
        <pt x="575" y="0" on="1"/>
      </contour>
    </TTGlyph>
    <TTGlyph name="Mu" xMin="25" yMin="0" xMax="575" yMax="690">
      <component glyphName="M" x="0" y="0" flags="0x0"/>
    </TTGlyph>
    <TTGlyph name="N" xMin="71" yMin="0" xMax="529" yMax="690">
      <contour>
        <pt x="158" y="570" on="1"/>
        <pt x="163" y="542" on="0"/>
        <pt x="175" y="386" on="0"/>
        <pt x="175" y="313" on="1"/>
        <pt x="175" y="0" on="1"/>
        <pt x="71" y="0" on="1"/>
        <pt x="71" y="690" on="1"/>
        <pt x="222" y="690" on="1"/>
        <pt x="438" y="118" on="1"/>
        <pt x="442" y="118" on="1"/>
        <pt x="437" y="147" on="0"/>
        <pt x="425" y="294" on="0"/>
        <pt x="425" y="376" on="1"/>
        <pt x="425" y="690" on="1"/>
        <pt x="529" y="690" on="1"/>
        <pt x="529" y="0" on="1"/>
        <pt x="377" y="0" on="1"/>
        <pt x="162" y="570" on="1"/>
      </contour>
    </TTGlyph>
    <TTGlyph name="Nacute" xMin="71" yMin="0" xMax="529" yMax="924">
      <component glyphName="N" x="0" y="0" flags="0x0"/>
      <component glyphName="acute.case" x="3" y="0" flags="0x0"/>
    </TTGlyph>
    <TTGlyph name="Nacute.loclPLK" xMin="71" yMin="0" xMax="529" yMax="937">
      <component glyphName="N" x="0" y="0" flags="0x0"/>
      <component glyphName="acute.case.loclPLK" x="39" y="0" flags="0x0"/>
    </TTGlyph>
    <TTGlyph name="Ncaron" xMin="71" yMin="0" xMax="529" yMax="920">
      <component glyphName="N" x="0" y="0" flags="0x0"/>
      <component glyphName="caron.case" x="3" y="0" flags="0x0"/>
    </TTGlyph>
    <TTGlyph name="Ncommaaccent" xMin="71" yMin="-300" xMax="529" yMax="690">
      <component glyphName="N" x="0" y="0" flags="0x0"/>
      <component glyphName="uni0326.case" x="0" y="0" flags="0x0"/>
    </TTGlyph>
    <TTGlyph name="Ntilde" xMin="71" yMin="0" xMax="529" yMax="896">
      <component glyphName="N" x="0" y="0" flags="0x0"/>
      <component glyphName="tilde.case" x="2" y="0" flags="0x0"/>
    </TTGlyph>
    <TTGlyph name="Nu" xMin="71" yMin="0" xMax="529" yMax="690">
      <component glyphName="N" x="0" y="0" flags="0x0"/>
    </TTGlyph>
    <TTGlyph name="O" xMin="37" yMin="-13" xMax="563" yMax="704">
      <contour>
        <pt x="563" y="181" on="0"/>
        <pt x="427" y="-13" on="0"/>
        <pt x="300" y="-13" on="1"/>
        <pt x="173" y="-13" on="0"/>
        <pt x="37" y="178" on="0"/>
        <pt x="37" y="344" on="1"/>
        <pt x="37" y="452" on="0"/>
        <pt x="97" y="614" on="0"/>
        <pt x="215" y="704" on="0"/>
        <pt x="300" y="704" on="1"/>
        <pt x="427" y="704" on="0"/>
        <pt x="563" y="511" on="0"/>
        <pt x="563" y="345" on="1"/>
      </contour>
      <contour>
        <pt x="442" y="481" on="0"/>
        <pt x="375" y="613" on="0"/>
        <pt x="300" y="613" on="1"/>
        <pt x="225" y="613" on="0"/>
        <pt x="158" y="481" on="0"/>
        <pt x="158" y="344" on="1"/>
        <pt x="158" y="209" on="0"/>
        <pt x="227" y="77" on="0"/>
        <pt x="300" y="77" on="1"/>
        <pt x="375" y="77" on="0"/>
        <pt x="442" y="209" on="0"/>
        <pt x="442" y="345" on="1"/>
      </contour>
    </TTGlyph>
    <TTGlyph name="OE" xMin="3" yMin="-13" xMax="609" yMax="704">
      <contour>
        <pt x="255" y="704" on="0"/>
        <pt x="297" y="690" on="1"/>
        <pt x="604" y="690" on="1"/>
        <pt x="591" y="604" on="1"/>
        <pt x="371" y="604" on="1"/>
        <pt x="419" y="538" on="0"/>
        <pt x="426" y="393" on="1"/>
        <pt x="567" y="393" on="1"/>
        <pt x="567" y="307" on="1"/>
        <pt x="426" y="307" on="1"/>
        <pt x="422" y="162" on="0"/>
        <pt x="367" y="86" on="1"/>
        <pt x="609" y="86" on="1"/>
        <pt x="609" y="0" on="1"/>
        <pt x="294" y="0" on="1"/>
        <pt x="253" y="-13" on="0"/>
        <pt x="217" y="-13" on="1"/>
        <pt x="108" y="-13" on="0"/>
        <pt x="3" y="167" on="0"/>
        <pt x="3" y="344" on="1"/>
        <pt x="3" y="519" on="0"/>
        <pt x="109" y="704" on="0"/>
        <pt x="217" y="704" on="1"/>
      </contour>
      <contour>
        <pt x="162" y="617" on="0"/>
        <pt x="114" y="491" on="0"/>
        <pt x="114" y="344" on="1"/>
        <pt x="114" y="199" on="0"/>
        <pt x="164" y="73" on="0"/>
        <pt x="217" y="73" on="1"/>
        <pt x="273" y="73" on="0"/>
        <pt x="322" y="199" on="0"/>
        <pt x="322" y="345" on="1"/>
        <pt x="322" y="445" on="0"/>
        <pt x="301" y="563" on="0"/>
        <pt x="255" y="617" on="0"/>
        <pt x="217" y="617" on="1"/>
      </contour>
    </TTGlyph>
    <TTGlyph name="Oacute" xMin="37" yMin="-13" xMax="563" yMax="924">
      <component glyphName="O" x="0" y="0" flags="0x0"/>
      <component glyphName="acute.case" x="0" y="0" flags="0x0"/>
    </TTGlyph>
    <TTGlyph name="Oacute.loclPLK" xMin="37" yMin="-13" xMax="563" yMax="937">
      <component glyphName="O" x="0" y="0" flags="0x0"/>
      <component glyphName="acute.case.loclPLK" x="36" y="0" flags="0x0"/>
    </TTGlyph>
    <TTGlyph name="Obreve" xMin="37" yMin="-13" xMax="563" yMax="902">
      <component glyphName="O" x="0" y="0" flags="0x0"/>
      <component glyphName="breve.case" x="-1" y="0" flags="0x0"/>
    </TTGlyph>
    <TTGlyph name="Ocircumflex" xMin="37" yMin="-13" xMax="563" yMax="923">
      <component glyphName="O" x="0" y="0" flags="0x0"/>
      <component glyphName="circumflex.case" x="0" y="0" flags="0x0"/>
    </TTGlyph>
    <TTGlyph name="Odieresis" xMin="37" yMin="-13" xMax="563" yMax="893">
      <component glyphName="O" x="0" y="0" flags="0x0"/>
      <component glyphName="dieresis.case" x="-2" y="0" flags="0x0"/>
    </TTGlyph>
    <TTGlyph name="Ograve" xMin="37" yMin="-13" xMax="563" yMax="926">
      <component glyphName="O" x="0" y="0" flags="0x0"/>
      <component glyphName="grave.case" x="-2" y="0" flags="0x0"/>
    </TTGlyph>
    <TTGlyph name="Ohungarumlaut" xMin="37" yMin="-13" xMax="563" yMax="965">
      <component glyphName="O" x="0" y="0" flags="0x0"/>
      <component glyphName="hungarumlaut.case" x="43" y="0" flags="0x0"/>
    </TTGlyph>
    <TTGlyph name="Omacron" xMin="37" yMin="-13" xMax="563" yMax="872">
      <component glyphName="O" x="0" y="0" flags="0x0"/>
      <component glyphName="macron.case" x="-2" y="0" flags="0x0"/>
    </TTGlyph>
    <TTGlyph name="Omega" xMin="37" yMin="0" xMax="563" yMax="704">
      <contour>
        <pt x="228" y="613" on="0"/>
        <pt x="158" y="492" on="0"/>
        <pt x="158" y="360" on="1"/>
        <pt x="158" y="245" on="0"/>
        <pt x="213" y="113" on="0"/>
        <pt x="269" y="84" on="1"/>
        <pt x="269" y="0" on="1"/>
        <pt x="48" y="0" on="1"/>
        <pt x="48" y="88" on="1"/>
        <pt x="160" y="88" on="1"/>
        <pt x="160" y="92" on="1"/>
        <pt x="37" y="156" on="0"/>
        <pt x="37" y="360" on="1"/>
        <pt x="37" y="465" on="0"/>
        <pt x="100" y="621" on="0"/>
        <pt x="219" y="704" on="0"/>
        <pt x="300" y="704" on="1"/>
        <pt x="381" y="704" on="0"/>
        <pt x="500" y="621" on="0"/>
        <pt x="563" y="465" on="0"/>
        <pt x="563" y="360" on="1"/>
        <pt x="563" y="158" on="0"/>
        <pt x="439" y="92" on="1"/>
        <pt x="439" y="88" on="1"/>
        <pt x="552" y="88" on="1"/>
        <pt x="552" y="0" on="1"/>
        <pt x="332" y="0" on="1"/>
        <pt x="332" y="84" on="1"/>
        <pt x="388" y="113" on="0"/>
        <pt x="442" y="245" on="0"/>
        <pt x="442" y="360" on="1"/>
        <pt x="442" y="492" on="0"/>
        <pt x="372" y="613" on="0"/>
        <pt x="300" y="613" on="1"/>
      </contour>
    </TTGlyph>
    <TTGlyph name="Omegatonos" xMin="-87" yMin="0" xMax="563" yMax="710">
      <component glyphName="Omega" x="0" y="0" flags="0x0"/>
      <component glyphName="tonos.case" x="-302" y="0" flags="0x0"/>
    </TTGlyph>
    <TTGlyph name="Omicron" xMin="37" yMin="-13" xMax="563" yMax="704">
      <contour>
        <pt x="563" y="181" on="0"/>
        <pt x="427" y="-13" on="0"/>
        <pt x="300" y="-13" on="1"/>
        <pt x="173" y="-13" on="0"/>
        <pt x="37" y="178" on="0"/>
        <pt x="37" y="344" on="1"/>
        <pt x="37" y="452" on="0"/>
        <pt x="97" y="614" on="0"/>
        <pt x="215" y="704" on="0"/>
        <pt x="300" y="704" on="1"/>
        <pt x="427" y="704" on="0"/>
        <pt x="563" y="511" on="0"/>
        <pt x="563" y="345" on="1"/>
      </contour>
      <contour>
        <pt x="442" y="481" on="0"/>
        <pt x="375" y="613" on="0"/>
        <pt x="300" y="613" on="1"/>
        <pt x="225" y="613" on="0"/>
        <pt x="158" y="481" on="0"/>
        <pt x="158" y="344" on="1"/>
        <pt x="158" y="209" on="0"/>
        <pt x="227" y="77" on="0"/>
        <pt x="300" y="77" on="1"/>
        <pt x="375" y="77" on="0"/>
        <pt x="442" y="209" on="0"/>
        <pt x="442" y="345" on="1"/>
      </contour>
    </TTGlyph>
    <TTGlyph name="Omicrontonos" xMin="-86" yMin="-13" xMax="563" yMax="710">
      <component glyphName="O" x="0" y="0" flags="0x0"/>
      <component glyphName="tonos.case" x="-301" y="0" flags="0x0"/>
    </TTGlyph>
    <TTGlyph name="Oslash" xMin="37" yMin="-110" xMax="563" yMax="803">
      <contour>
        <pt x="501" y="617" on="0"/>
        <pt x="563" y="454" on="0"/>
        <pt x="563" y="345" on="1"/>
        <pt x="563" y="181" on="0"/>
        <pt x="427" y="-13" on="0"/>
        <pt x="300" y="-13" on="1"/>
        <pt x="270" y="-13" on="0"/>
        <pt x="241" y="-7" on="1"/>
        <pt x="210" y="-110" on="1"/>
        <pt x="121" y="-85" on="1"/>
        <pt x="157" y="31" on="1"/>
        <pt x="99" y="74" on="0"/>
        <pt x="37" y="235" on="0"/>
        <pt x="37" y="344" on="1"/>
        <pt x="37" y="452" on="0"/>
        <pt x="97" y="614" on="0"/>
        <pt x="215" y="704" on="0"/>
        <pt x="300" y="704" on="1"/>
        <pt x="333" y="704" on="0"/>
        <pt x="360" y="697" on="1"/>
        <pt x="391" y="803" on="1"/>
        <pt x="479" y="778" on="1"/>
        <pt x="443" y="660" on="1"/>
      </contour>
      <contour>
        <pt x="224" y="614" on="0"/>
        <pt x="156" y="482" on="0"/>
        <pt x="156" y="344" on="1"/>
        <pt x="156" y="181" on="0"/>
        <pt x="201" y="121" on="1"/>
        <pt x="342" y="609" on="1"/>
        <pt x="322" y="614" on="0"/>
        <pt x="300" y="614" on="1"/>
      </contour>
      <contour>
        <pt x="376" y="77" on="0"/>
        <pt x="444" y="208" on="0"/>
        <pt x="444" y="345" on="1"/>
        <pt x="444" y="429" on="0"/>
        <pt x="422" y="538" on="0"/>
        <pt x="399" y="569" on="1"/>
        <pt x="258" y="82" on="1"/>
        <pt x="280" y="77" on="0"/>
        <pt x="300" y="77" on="1"/>
      </contour>
    </TTGlyph>
    <TTGlyph name="Oslashacute" xMin="37" yMin="-110" xMax="563" yMax="924">
      <component glyphName="Oslash" x="0" y="0" flags="0x0"/>
      <component glyphName="acute.case" x="0" y="0" flags="0x0"/>
    </TTGlyph>
    <TTGlyph name="Otilde" xMin="37" yMin="-13" xMax="563" yMax="896">
      <component glyphName="O" x="0" y="0" flags="0x0"/>
      <component glyphName="tilde.case" x="-2" y="0" flags="0x0"/>
    </TTGlyph>
    <TTGlyph name="P" xMin="95" yMin="0" xMax="564" yMax="690">
      <contour>
        <pt x="564" y="357" on="0"/>
        <pt x="420" y="246" on="0"/>
        <pt x="295" y="246" on="1"/>
        <pt x="212" y="246" on="1"/>
        <pt x="212" y="0" on="1"/>
        <pt x="95" y="0" on="1"/>
        <pt x="95" y="690" on="1"/>
        <pt x="287" y="690" on="1"/>
        <pt x="420" y="690" on="0"/>
        <pt x="564" y="581" on="0"/>
        <pt x="564" y="473" on="1"/>
      </contour>
      <contour>
        <pt x="442" y="603" on="0"/>
        <pt x="295" y="603" on="1"/>
        <pt x="212" y="603" on="1"/>
        <pt x="212" y="335" on="1"/>
        <pt x="296" y="335" on="1"/>
        <pt x="366" y="335" on="0"/>
        <pt x="442" y="399" on="0"/>
        <pt x="442" y="473" on="1"/>
      </contour>
    </TTGlyph>
    <TTGlyph name="Phi" xMin="8" yMin="0" xMax="592" yMax="690">
      <contour>
        <pt x="471" y="606" on="0"/>
        <pt x="592" y="476" on="0"/>
        <pt x="592" y="348" on="1"/>
        <pt x="592" y="219" on="0"/>
        <pt x="468" y="85" on="0"/>
        <pt x="348" y="81" on="1"/>
        <pt x="348" y="0" on="1"/>
        <pt x="252" y="0" on="1"/>
        <pt x="252" y="81" on="1"/>
        <pt x="131" y="85" on="0"/>
        <pt x="8" y="218" on="0"/>
        <pt x="8" y="348" on="1"/>
        <pt x="8" y="476" on="0"/>
        <pt x="128" y="606" on="0"/>
        <pt x="252" y="611" on="1"/>
        <pt x="252" y="690" on="1"/>
        <pt x="348" y="690" on="1"/>
        <pt x="348" y="611" on="1"/>
      </contour>
      <contour>
        <pt x="184" y="536" on="0"/>
        <pt x="118" y="448" on="0"/>
        <pt x="118" y="348" on="1"/>
        <pt x="118" y="250" on="0"/>
        <pt x="182" y="159" on="0"/>
        <pt x="257" y="155" on="1"/>
        <pt x="257" y="538" on="1"/>
      </contour>
      <contour>
        <pt x="418" y="159" on="0"/>
        <pt x="482" y="251" on="0"/>
        <pt x="482" y="348" on="1"/>
        <pt x="482" y="449" on="0"/>
        <pt x="416" y="537" on="0"/>
        <pt x="344" y="538" on="1"/>
        <pt x="344" y="155" on="1"/>
      </contour>
    </TTGlyph>
    <TTGlyph name="Pi" xMin="71" yMin="0" xMax="529" yMax="690">
      <component glyphName="uni041F" x="0" y="0" flags="0x0"/>
    </TTGlyph>
    <TTGlyph name="Psi" xMin="12" yMin="0" xMax="588" yMax="690">
      <contour>
        <pt x="128" y="201" on="0"/>
        <pt x="12" y="326" on="0"/>
        <pt x="12" y="427" on="1"/>
        <pt x="12" y="690" on="1"/>
        <pt x="120" y="690" on="1"/>
        <pt x="120" y="429" on="1"/>
        <pt x="120" y="357" on="0"/>
        <pt x="178" y="283" on="0"/>
        <pt x="250" y="274" on="1"/>
        <pt x="250" y="690" on="1"/>
        <pt x="351" y="690" on="1"/>
        <pt x="351" y="275" on="1"/>
        <pt x="422" y="284" on="0"/>
        <pt x="480" y="358" on="0"/>
        <pt x="480" y="429" on="1"/>
        <pt x="480" y="690" on="1"/>
        <pt x="588" y="690" on="1"/>
        <pt x="588" y="427" on="1"/>
        <pt x="588" y="327" on="0"/>
        <pt x="471" y="202" on="0"/>
        <pt x="356" y="190" on="1"/>
        <pt x="356" y="0" on="1"/>
        <pt x="245" y="0" on="1"/>
        <pt x="245" y="189" on="1"/>
      </contour>
    </TTGlyph>
    <TTGlyph name="Q" xMin="40" yMin="-173" xMax="608" yMax="704">
      <contour>
        <pt x="562" y="109" on="0"/>
        <pt x="422" y="32" on="1"/>
        <pt x="497" y="17" on="0"/>
        <pt x="582" y="-56" on="0"/>
        <pt x="608" y="-133" on="1"/>
        <pt x="501" y="-173" on="1"/>
        <pt x="478" y="-116" on="0"/>
        <pt x="426" y="-47" on="0"/>
        <pt x="348" y="-11" on="0"/>
        <pt x="290" y="-11" on="1"/>
        <pt x="169" y="-11" on="0"/>
        <pt x="40" y="178" on="0"/>
        <pt x="40" y="344" on="1"/>
        <pt x="40" y="509" on="0"/>
        <pt x="175" y="704" on="0"/>
        <pt x="301" y="704" on="1"/>
        <pt x="428" y="704" on="0"/>
        <pt x="562" y="512" on="0"/>
        <pt x="562" y="345" on="1"/>
      </contour>
      <contour>
        <pt x="441" y="482" on="0"/>
        <pt x="376" y="613" on="0"/>
        <pt x="301" y="613" on="1"/>
        <pt x="226" y="613" on="0"/>
        <pt x="161" y="481" on="0"/>
        <pt x="161" y="344" on="1"/>
        <pt x="161" y="208" on="0"/>
        <pt x="228" y="77" on="0"/>
        <pt x="301" y="77" on="1"/>
        <pt x="376" y="77" on="0"/>
        <pt x="441" y="208" on="0"/>
        <pt x="441" y="345" on="1"/>
      </contour>
    </TTGlyph>
    <TTGlyph name="R" xMin="85" yMin="0" xMax="585" yMax="690">
      <contour>
        <pt x="547" y="418" on="0"/>
        <pt x="461" y="322" on="0"/>
        <pt x="390" y="300" on="1"/>
        <pt x="585" y="0" on="1"/>
        <pt x="450" y="0" on="1"/>
        <pt x="276" y="284" on="1"/>
        <pt x="201" y="284" on="1"/>
        <pt x="201" y="0" on="1"/>
        <pt x="85" y="0" on="1"/>
        <pt x="85" y="690" on="1"/>
        <pt x="277" y="690" on="1"/>
        <pt x="547" y="690" on="0"/>
        <pt x="547" y="490" on="1"/>
      </contour>
      <contour>
        <pt x="425" y="549" on="0"/>
        <pt x="356" y="604" on="0"/>
        <pt x="284" y="604" on="1"/>
        <pt x="201" y="604" on="1"/>
        <pt x="201" y="369" on="1"/>
        <pt x="287" y="369" on="1"/>
        <pt x="355" y="369" on="0"/>
        <pt x="425" y="427" on="0"/>
        <pt x="425" y="490" on="1"/>
      </contour>
    </TTGlyph>
    <TTGlyph name="Racute" xMin="85" yMin="0" xMax="585" yMax="924">
      <component glyphName="R" x="0" y="0" flags="0x0"/>
      <component glyphName="acute.case" x="0" y="0" flags="0x0"/>
    </TTGlyph>
    <TTGlyph name="Rcaron" xMin="85" yMin="0" xMax="585" yMax="920">
      <component glyphName="R" x="0" y="0" flags="0x0"/>
      <component glyphName="caron.case" x="0" y="0" flags="0x0"/>
    </TTGlyph>
    <TTGlyph name="Rcommaaccent" xMin="85" yMin="-300" xMax="585" yMax="690">
      <component glyphName="R" x="0" y="0" flags="0x0"/>
      <component glyphName="uni0326.case" x="3" y="0" flags="0x0"/>
    </TTGlyph>
    <TTGlyph name="Rho" xMin="95" yMin="0" xMax="564" yMax="690">
      <component glyphName="P" x="0" y="0" flags="0x0"/>
    </TTGlyph>
    <TTGlyph name="S" xMin="31" yMin="-13" xMax="549" yMax="704">
      <contour>
        <pt x="549" y="133" on="0"/>
        <pt x="486" y="39" on="0"/>
        <pt x="367" y="-13" on="0"/>
        <pt x="285" y="-13" on="1"/>
        <pt x="126" y="-13" on="0"/>
        <pt x="31" y="79" on="1"/>
        <pt x="95" y="150" on="1"/>
        <pt x="173" y="78" on="0"/>
        <pt x="285" y="78" on="1"/>
        <pt x="347" y="78" on="0"/>
        <pt x="428" y="136" on="0"/>
        <pt x="428" y="189" on="1"/>
        <pt x="428" y="220" on="0"/>
        <pt x="403" y="262" on="0"/>
        <pt x="342" y="295" on="0"/>
        <pt x="286" y="312" on="1"/>
        <pt x="172" y="346" on="0"/>
        <pt x="64" y="440" on="0"/>
        <pt x="64" y="517" on="1"/>
        <pt x="64" y="572" on="0"/>
        <pt x="125" y="657" on="0"/>
        <pt x="233" y="704" on="0"/>
        <pt x="301" y="704" on="1"/>
        <pt x="441" y="704" on="0"/>
        <pt x="532" y="621" on="1"/>
        <pt x="471" y="552" on="1"/>
        <pt x="436" y="583" on="0"/>
        <pt x="352" y="613" on="0"/>
        <pt x="308" y="613" on="1"/>
        <pt x="253" y="613" on="0"/>
        <pt x="183" y="567" on="0"/>
        <pt x="183" y="524" on="1"/>
        <pt x="183" y="497" on="0"/>
        <pt x="212" y="460" on="0"/>
        <pt x="281" y="428" on="0"/>
        <pt x="345" y="409" on="1"/>
        <pt x="445" y="379" on="0"/>
        <pt x="549" y="285" on="0"/>
        <pt x="549" y="195" on="1"/>
      </contour>
    </TTGlyph>
    <TTGlyph name="Sacute" xMin="31" yMin="-13" xMax="549" yMax="924">
      <component glyphName="S" x="0" y="0" flags="0x0"/>
      <component glyphName="acute.case" x="7" y="0" flags="0x0"/>
    </TTGlyph>
    <TTGlyph name="Sacute.loclPLK" xMin="31" yMin="-13" xMax="549" yMax="937">
      <component glyphName="S" x="0" y="0" flags="0x0"/>
      <component glyphName="acute.case.loclPLK" x="43" y="0" flags="0x0"/>
    </TTGlyph>
    <TTGlyph name="Scaron" xMin="31" yMin="-13" xMax="549" yMax="920">
      <component glyphName="S" x="0" y="0" flags="0x0"/>
      <component glyphName="caron.case" x="7" y="0" flags="0x0"/>
    </TTGlyph>
    <TTGlyph name="Scedilla" xMin="31" yMin="-248" xMax="549" yMax="704">
      <contour>
        <pt x="549" y="109" on="0"/>
        <pt x="429" y="-3" on="0"/>
        <pt x="322" y="-12" on="1"/>
        <pt x="322" y="-54" on="1"/>
        <pt x="370" y="-58" on="0"/>
        <pt x="419" y="-107" on="0"/>
        <pt x="419" y="-143" on="1"/>
        <pt x="419" y="-191" on="0"/>
        <pt x="343" y="-248" on="0"/>
        <pt x="286" y="-248" on="1"/>
        <pt x="255" y="-248" on="0"/>
        <pt x="198" y="-233" on="0"/>
        <pt x="177" y="-221" on="1"/>
        <pt x="207" y="-163" on="1"/>
        <pt x="241" y="-180" on="0"/>
        <pt x="273" y="-180" on="1"/>
        <pt x="330" y="-180" on="0"/>
        <pt x="330" y="-142" on="1"/>
        <pt x="330" y="-119" on="0"/>
        <pt x="287" y="-103" on="0"/>
        <pt x="242" y="-103" on="1"/>
        <pt x="250" y="-12" on="1"/>
        <pt x="115" y="-2" on="0"/>
        <pt x="31" y="79" on="1"/>
        <pt x="95" y="150" on="1"/>
        <pt x="173" y="78" on="0"/>
        <pt x="285" y="78" on="1"/>
        <pt x="347" y="78" on="0"/>
        <pt x="428" y="136" on="0"/>
        <pt x="428" y="189" on="1"/>
        <pt x="428" y="220" on="0"/>
        <pt x="403" y="262" on="0"/>
        <pt x="342" y="295" on="0"/>
        <pt x="286" y="312" on="1"/>
        <pt x="172" y="346" on="0"/>
        <pt x="64" y="440" on="0"/>
        <pt x="64" y="517" on="1"/>
        <pt x="64" y="572" on="0"/>
        <pt x="125" y="657" on="0"/>
        <pt x="233" y="704" on="0"/>
        <pt x="301" y="704" on="1"/>
        <pt x="441" y="704" on="0"/>
        <pt x="532" y="621" on="1"/>
        <pt x="471" y="552" on="1"/>
        <pt x="436" y="583" on="0"/>
        <pt x="352" y="613" on="0"/>
        <pt x="308" y="613" on="1"/>
        <pt x="253" y="613" on="0"/>
        <pt x="183" y="567" on="0"/>
        <pt x="183" y="524" on="1"/>
        <pt x="183" y="497" on="0"/>
        <pt x="212" y="460" on="0"/>
        <pt x="281" y="428" on="0"/>
        <pt x="345" y="409" on="1"/>
        <pt x="445" y="379" on="0"/>
        <pt x="549" y="285" on="0"/>
        <pt x="549" y="195" on="1"/>
      </contour>
    </TTGlyph>
    <TTGlyph name="Scircumflex" xMin="31" yMin="-13" xMax="549" yMax="923">
      <component glyphName="S" x="0" y="0" flags="0x0"/>
      <component glyphName="circumflex.case" x="7" y="0" flags="0x0"/>
    </TTGlyph>
    <TTGlyph name="Scommaaccent" xMin="31" yMin="-300" xMax="549" yMax="704">
      <component glyphName="S" x="0" y="0" flags="0x0"/>
      <component glyphName="uni0326.case" x="-2" y="0" flags="0x0"/>
    </TTGlyph>
    <TTGlyph name="Sigma" xMin="66" yMin="0" xMax="534" yMax="690">
      <contour>
        <pt x="534" y="92" on="1"/>
        <pt x="534" y="0" on="1"/>
        <pt x="66" y="0" on="1"/>
        <pt x="66" y="91" on="1"/>
        <pt x="304" y="343" on="1"/>
        <pt x="66" y="599" on="1"/>
        <pt x="66" y="690" on="1"/>
        <pt x="534" y="690" on="1"/>
        <pt x="534" y="600" on="1"/>
        <pt x="197" y="600" on="1"/>
        <pt x="411" y="377" on="1"/>
        <pt x="411" y="314" on="1"/>
        <pt x="198" y="92" on="1"/>
      </contour>
    </TTGlyph>
    <TTGlyph name="T" xMin="33" yMin="0" xMax="569" yMax="690">
      <contour>
        <pt x="241" y="0" on="1"/>
        <pt x="241" y="596" on="1"/>
        <pt x="33" y="596" on="1"/>
        <pt x="33" y="690" on="1"/>
        <pt x="569" y="690" on="1"/>
        <pt x="557" y="596" on="1"/>
        <pt x="357" y="596" on="1"/>
        <pt x="357" y="0" on="1"/>
      </contour>
    </TTGlyph>
    <TTGlyph name="Tau" xMin="33" yMin="0" xMax="569" yMax="690">
      <component glyphName="T" x="0" y="0" flags="0x0"/>
    </TTGlyph>
    <TTGlyph name="Tbar" xMin="33" yMin="0" xMax="569" yMax="690">
      <contour>
        <pt x="357" y="413" on="1"/>
        <pt x="483" y="413" on="1"/>
        <pt x="483" y="336" on="1"/>
        <pt x="357" y="336" on="1"/>
        <pt x="357" y="0" on="1"/>
        <pt x="241" y="0" on="1"/>
        <pt x="241" y="336" on="1"/>
        <pt x="115" y="336" on="1"/>
        <pt x="115" y="413" on="1"/>
        <pt x="241" y="413" on="1"/>
        <pt x="241" y="596" on="1"/>
        <pt x="33" y="596" on="1"/>
        <pt x="33" y="690" on="1"/>
        <pt x="569" y="690" on="1"/>
        <pt x="557" y="596" on="1"/>
        <pt x="357" y="596" on="1"/>
      </contour>
    </TTGlyph>
    <TTGlyph name="Tcaron" xMin="33" yMin="0" xMax="569" yMax="920">
      <component glyphName="T" x="0" y="0" flags="0x0"/>
      <component glyphName="caron.case" x="-1" y="0" flags="0x0"/>
    </TTGlyph>
    <TTGlyph name="Tcedilla" xMin="33" yMin="-248" xMax="569" yMax="690">
      <contour>
        <pt x="335" y="-54" on="1"/>
        <pt x="383" y="-58" on="0"/>
        <pt x="432" y="-107" on="0"/>
        <pt x="432" y="-143" on="1"/>
        <pt x="432" y="-191" on="0"/>
        <pt x="357" y="-248" on="0"/>
        <pt x="300" y="-248" on="1"/>
        <pt x="269" y="-248" on="0"/>
        <pt x="211" y="-233" on="0"/>
        <pt x="190" y="-221" on="1"/>
        <pt x="221" y="-163" on="1"/>
        <pt x="253" y="-180" on="0"/>
        <pt x="287" y="-180" on="1"/>
        <pt x="344" y="-180" on="0"/>
        <pt x="344" y="-142" on="1"/>
        <pt x="344" y="-119" on="0"/>
        <pt x="301" y="-103" on="0"/>
        <pt x="255" y="-103" on="1"/>
        <pt x="265" y="0" on="1"/>
        <pt x="241" y="0" on="1"/>
        <pt x="241" y="596" on="1"/>
        <pt x="33" y="596" on="1"/>
        <pt x="33" y="690" on="1"/>
        <pt x="569" y="690" on="1"/>
        <pt x="557" y="596" on="1"/>
        <pt x="357" y="596" on="1"/>
        <pt x="357" y="0" on="1"/>
        <pt x="335" y="0" on="1"/>
      </contour>
    </TTGlyph>
    <TTGlyph name="Theta" xMin="37" yMin="-13" xMax="563" yMax="704">
      <contour>
        <pt x="563" y="181" on="0"/>
        <pt x="427" y="-13" on="0"/>
        <pt x="300" y="-13" on="1"/>
        <pt x="173" y="-13" on="0"/>
        <pt x="37" y="178" on="0"/>
        <pt x="37" y="344" on="1"/>
        <pt x="37" y="452" on="0"/>
        <pt x="97" y="614" on="0"/>
        <pt x="215" y="704" on="0"/>
        <pt x="300" y="704" on="1"/>
        <pt x="427" y="704" on="0"/>
        <pt x="563" y="511" on="0"/>
        <pt x="563" y="345" on="1"/>
      </contour>
      <contour>
        <pt x="444" y="481" on="0"/>
        <pt x="375" y="613" on="0"/>
        <pt x="300" y="613" on="1"/>
        <pt x="225" y="613" on="0"/>
        <pt x="156" y="481" on="0"/>
        <pt x="156" y="344" on="1"/>
        <pt x="156" y="209" on="0"/>
        <pt x="226" y="77" on="0"/>
        <pt x="300" y="77" on="1"/>
        <pt x="375" y="77" on="0"/>
        <pt x="444" y="209" on="0"/>
        <pt x="444" y="345" on="1"/>
      </contour>
      <contour>
        <pt x="208" y="392" on="1"/>
        <pt x="391" y="392" on="1"/>
        <pt x="391" y="313" on="1"/>
        <pt x="208" y="313" on="1"/>
      </contour>
    </TTGlyph>
    <TTGlyph name="Thorn" xMin="89" yMin="0" xMax="564" yMax="690">
      <contour>
        <pt x="287" y="575" on="1"/>
        <pt x="420" y="575" on="0"/>
        <pt x="564" y="465" on="0"/>
        <pt x="564" y="355" on="1"/>
        <pt x="564" y="238" on="0"/>
        <pt x="421" y="124" on="0"/>
        <pt x="295" y="124" on="1"/>
        <pt x="205" y="124" on="1"/>
        <pt x="205" y="0" on="1"/>
        <pt x="89" y="0" on="1"/>
        <pt x="89" y="690" on="1"/>
        <pt x="205" y="690" on="1"/>
        <pt x="205" y="575" on="1"/>
      </contour>
      <contour>
        <pt x="205" y="212" on="1"/>
        <pt x="298" y="212" on="1"/>
        <pt x="367" y="212" on="0"/>
        <pt x="442" y="276" on="0"/>
        <pt x="442" y="353" on="1"/>
        <pt x="442" y="423" on="0"/>
        <pt x="366" y="488" on="0"/>
        <pt x="296" y="488" on="1"/>
        <pt x="205" y="488" on="1"/>
      </contour>
    </TTGlyph>
    <TTGlyph name="U" xMin="61" yMin="-13" xMax="539" yMax="690">
      <contour>
        <pt x="539" y="156" on="0"/>
        <pt x="482" y="48" on="0"/>
        <pt x="374" y="-13" on="0"/>
        <pt x="299" y="-13" on="1"/>
        <pt x="186" y="-13" on="0"/>
        <pt x="61" y="117" on="0"/>
        <pt x="61" y="226" on="1"/>
        <pt x="61" y="690" on="1"/>
        <pt x="177" y="690" on="1"/>
        <pt x="177" y="248" on="1"/>
        <pt x="177" y="163" on="0"/>
        <pt x="236" y="79" on="0"/>
        <pt x="299" y="79" on="1"/>
        <pt x="363" y="79" on="0"/>
        <pt x="422" y="163" on="0"/>
        <pt x="422" y="248" on="1"/>
        <pt x="422" y="690" on="1"/>
        <pt x="539" y="690" on="1"/>
        <pt x="539" y="226" on="1"/>
      </contour>
    </TTGlyph>
    <TTGlyph name="Uacute" xMin="61" yMin="-13" xMax="539" yMax="924">
      <component glyphName="U" x="0" y="0" flags="0x0"/>
      <component glyphName="acute.case" x="0" y="0" flags="0x0"/>
    </TTGlyph>
    <TTGlyph name="Ubreve" xMin="61" yMin="-13" xMax="539" yMax="902">
      <component glyphName="U" x="0" y="0" flags="0x0"/>
      <component glyphName="breve.case" x="-1" y="0" flags="0x0"/>
    </TTGlyph>
    <TTGlyph name="Ucircumflex" xMin="61" yMin="-13" xMax="539" yMax="923">
      <component glyphName="U" x="0" y="0" flags="0x0"/>
      <component glyphName="circumflex.case" x="0" y="0" flags="0x0"/>
    </TTGlyph>
    <TTGlyph name="Udieresis" xMin="61" yMin="-13" xMax="539" yMax="893">
      <component glyphName="U" x="0" y="0" flags="0x0"/>
      <component glyphName="dieresis.case" x="-2" y="0" flags="0x0"/>
    </TTGlyph>
    <TTGlyph name="Ugrave" xMin="61" yMin="-13" xMax="539" yMax="926">
      <component glyphName="U" x="0" y="0" flags="0x0"/>
      <component glyphName="grave.case" x="-2" y="0" flags="0x0"/>
    </TTGlyph>
    <TTGlyph name="Uhungarumlaut" xMin="61" yMin="-13" xMax="539" yMax="965">
      <component glyphName="U" x="0" y="0" flags="0x0"/>
      <component glyphName="hungarumlaut.case" x="43" y="0" flags="0x0"/>
    </TTGlyph>
    <TTGlyph name="Umacron" xMin="61" yMin="-13" xMax="539" yMax="872">
      <component glyphName="U" x="0" y="0" flags="0x0"/>
      <component glyphName="macron.case" x="-2" y="0" flags="0x0"/>
    </TTGlyph>
    <TTGlyph name="Uogonek" xMin="61" yMin="-239" xMax="539" yMax="690">
      <contour>
        <pt x="539" y="226" on="1"/>
        <pt x="539" y="142" on="0"/>
        <pt x="459" y="22" on="0"/>
        <pt x="385" y="-1" on="1"/>
        <pt x="317" y="-28" on="0"/>
        <pt x="267" y="-81" on="0"/>
        <pt x="267" y="-113" on="1"/>
        <pt x="267" y="-161" on="0"/>
        <pt x="323" y="-161" on="1"/>
        <pt x="351" y="-161" on="0"/>
        <pt x="382" y="-154" on="1"/>
        <pt x="372" y="-231" on="1"/>
        <pt x="342" y="-239" on="0"/>
        <pt x="310" y="-239" on="1"/>
        <pt x="251" y="-239" on="0"/>
        <pt x="177" y="-179" on="0"/>
        <pt x="177" y="-131" on="1"/>
        <pt x="177" y="-93" on="0"/>
        <pt x="216" y="-34" on="0"/>
        <pt x="254" y="-10" on="1"/>
        <pt x="162" y="3" on="0"/>
        <pt x="61" y="129" on="0"/>
        <pt x="61" y="226" on="1"/>
        <pt x="61" y="690" on="1"/>
        <pt x="177" y="690" on="1"/>
        <pt x="177" y="248" on="1"/>
        <pt x="177" y="163" on="0"/>
        <pt x="236" y="79" on="0"/>
        <pt x="299" y="79" on="1"/>
        <pt x="363" y="79" on="0"/>
        <pt x="422" y="163" on="0"/>
        <pt x="422" y="248" on="1"/>
        <pt x="422" y="690" on="1"/>
        <pt x="539" y="690" on="1"/>
      </contour>
    </TTGlyph>
    <TTGlyph name="Upsilon" xMin="11" yMin="0" xMax="589" yMax="690">
      <contour>
        <pt x="241" y="0" on="1"/>
        <pt x="241" y="263" on="1"/>
        <pt x="11" y="690" on="1"/>
        <pt x="139" y="690" on="1"/>
        <pt x="302" y="363" on="1"/>
        <pt x="467" y="690" on="1"/>
        <pt x="589" y="690" on="1"/>
        <pt x="359" y="264" on="1"/>
        <pt x="359" y="0" on="1"/>
      </contour>
    </TTGlyph>
    <TTGlyph name="Upsilondieresis" xMin="11" yMin="0" xMax="589" yMax="893">
      <component glyphName="Y" x="0" y="0" flags="0x0"/>
      <component glyphName="dieresis.case" x="1" y="0" flags="0x0"/>
    </TTGlyph>
    <TTGlyph name="Upsilontonos" xMin="-164" yMin="0" xMax="589" yMax="710">
      <component glyphName="Y" x="0" y="0" flags="0x0"/>
      <component glyphName="tonos.case" x="-379" y="0" flags="0x0"/>
    </TTGlyph>
    <TTGlyph name="Uring" xMin="61" yMin="-13" xMax="539" yMax="961">
      <component glyphName="U" x="0" y="0" flags="0x0"/>
      <component glyphName="ring.case" x="-2" y="0" flags="0x0"/>
    </TTGlyph>
    <TTGlyph name="Utilde" xMin="61" yMin="-13" xMax="539" yMax="896">
      <component glyphName="U" x="0" y="0" flags="0x0"/>
      <component glyphName="tilde.case" x="-2" y="0" flags="0x0"/>
    </TTGlyph>
    <TTGlyph name="V" xMin="15" yMin="0" xMax="585" yMax="690">
      <contour>
        <pt x="585" y="690" on="1"/>
        <pt x="367" y="0" on="1"/>
        <pt x="233" y="0" on="1"/>
        <pt x="15" y="690" on="1"/>
        <pt x="139" y="690" on="1"/>
        <pt x="302" y="110" on="1"/>
        <pt x="467" y="690" on="1"/>
      </contour>
    </TTGlyph>
    <TTGlyph name="W" xMin="2" yMin="0" xMax="598" yMax="690">
      <contour>
        <pt x="367" y="0" on="1"/>
        <pt x="301" y="498" on="1"/>
        <pt x="297" y="498" on="1"/>
        <pt x="229" y="0" on="1"/>
        <pt x="90" y="0" on="1"/>
        <pt x="2" y="690" on="1"/>
        <pt x="114" y="690" on="1"/>
        <pt x="165" y="122" on="1"/>
        <pt x="169" y="122" on="1"/>
        <pt x="242" y="610" on="1"/>
        <pt x="361" y="610" on="1"/>
        <pt x="428" y="124" on="1"/>
        <pt x="432" y="124" on="1"/>
        <pt x="494" y="690" on="1"/>
        <pt x="598" y="690" on="1"/>
        <pt x="503" y="0" on="1"/>
      </contour>
    </TTGlyph>
    <TTGlyph name="Wacute" xMin="2" yMin="0" xMax="598" yMax="924">
      <component glyphName="W" x="0" y="0" flags="0x0"/>
      <component glyphName="acute.case" x="0" y="0" flags="0x0"/>
    </TTGlyph>
    <TTGlyph name="Wcircumflex" xMin="2" yMin="0" xMax="598" yMax="923">
      <component glyphName="W" x="0" y="0" flags="0x0"/>
      <component glyphName="circumflex.case" x="0" y="0" flags="0x0"/>
    </TTGlyph>
    <TTGlyph name="Wdieresis" xMin="2" yMin="0" xMax="598" yMax="893">
      <component glyphName="W" x="0" y="0" flags="0x0"/>
      <component glyphName="dieresis.case" x="-2" y="0" flags="0x0"/>
    </TTGlyph>
    <TTGlyph name="Wgrave" xMin="2" yMin="0" xMax="598" yMax="926">
      <component glyphName="W" x="0" y="0" flags="0x0"/>
      <component glyphName="grave.case" x="-2" y="0" flags="0x0"/>
    </TTGlyph>
    <TTGlyph name="X" xMin="20" yMin="0" xMax="580" yMax="690">
      <contour>
        <pt x="300" y="442" on="1"/>
        <pt x="435" y="690" on="1"/>
        <pt x="559" y="690" on="1"/>
        <pt x="368" y="373" on="1"/>
        <pt x="580" y="0" on="1"/>
        <pt x="450" y="0" on="1"/>
        <pt x="298" y="293" on="1"/>
        <pt x="145" y="0" on="1"/>
        <pt x="20" y="0" on="1"/>
        <pt x="229" y="367" on="1"/>
        <pt x="38" y="690" on="1"/>
        <pt x="167" y="690" on="1"/>
      </contour>
    </TTGlyph>
    <TTGlyph name="Xi" xMin="67" yMin="0" xMax="533" yMax="690">
      <contour>
        <pt x="67" y="591" on="1"/>
        <pt x="67" y="690" on="1"/>
        <pt x="526" y="690" on="1"/>
        <pt x="511" y="591" on="1"/>
      </contour>
      <contour>
        <pt x="121" y="302" on="1"/>
        <pt x="121" y="399" on="1"/>
        <pt x="472" y="399" on="1"/>
        <pt x="472" y="302" on="1"/>
      </contour>
      <contour>
        <pt x="67" y="0" on="1"/>
        <pt x="67" y="102" on="1"/>
        <pt x="533" y="102" on="1"/>
        <pt x="533" y="0" on="1"/>
      </contour>
    </TTGlyph>
    <TTGlyph name="Y" xMin="11" yMin="0" xMax="589" yMax="690">
      <contour>
        <pt x="241" y="0" on="1"/>
        <pt x="241" y="263" on="1"/>
        <pt x="11" y="690" on="1"/>
        <pt x="139" y="690" on="1"/>
        <pt x="302" y="363" on="1"/>
        <pt x="467" y="690" on="1"/>
        <pt x="589" y="690" on="1"/>
        <pt x="359" y="264" on="1"/>
        <pt x="359" y="0" on="1"/>
      </contour>
    </TTGlyph>
    <TTGlyph name="Yacute" xMin="11" yMin="0" xMax="589" yMax="924">
      <component glyphName="Y" x="0" y="0" flags="0x0"/>
      <component glyphName="acute.case" x="2" y="0" flags="0x0"/>
    </TTGlyph>
    <TTGlyph name="Ycircumflex" xMin="11" yMin="0" xMax="589" yMax="923">
      <component glyphName="Y" x="0" y="0" flags="0x0"/>
      <component glyphName="circumflex.case" x="2" y="0" flags="0x0"/>
    </TTGlyph>
    <TTGlyph name="Ydieresis" xMin="11" yMin="0" xMax="589" yMax="893">
      <component glyphName="Y" x="0" y="0" flags="0x0"/>
      <component glyphName="dieresis.case" x="1" y="0" flags="0x0"/>
    </TTGlyph>
    <TTGlyph name="Ygrave" xMin="11" yMin="0" xMax="589" yMax="926">
      <component glyphName="Y" x="0" y="0" flags="0x0"/>
      <component glyphName="grave.case" x="1" y="0" flags="0x0"/>
    </TTGlyph>
    <TTGlyph name="Z" xMin="59" yMin="0" xMax="541" yMax="690">
      <contour>
        <pt x="528" y="0" on="1"/>
        <pt x="59" y="0" on="1"/>
        <pt x="59" y="90" on="1"/>
        <pt x="409" y="596" on="1"/>
        <pt x="95" y="596" on="1"/>
        <pt x="95" y="690" on="1"/>
        <pt x="538" y="690" on="1"/>
        <pt x="538" y="599" on="1"/>
        <pt x="192" y="96" on="1"/>
        <pt x="541" y="96" on="1"/>
      </contour>
    </TTGlyph>
    <TTGlyph name="Zacute" xMin="59" yMin="0" xMax="541" yMax="924">
      <component glyphName="Z" x="0" y="0" flags="0x0"/>
      <component glyphName="acute.case" x="16" y="0" flags="0x0"/>
    </TTGlyph>
    <TTGlyph name="Zacute.loclPLK" xMin="59" yMin="0" xMax="541" yMax="937">
      <component glyphName="Z" x="0" y="0" flags="0x0"/>
      <component glyphName="acute.case.loclPLK" x="52" y="0" flags="0x0"/>
    </TTGlyph>
    <TTGlyph name="Zcaron" xMin="59" yMin="0" xMax="541" yMax="920">
      <component glyphName="Z" x="0" y="0" flags="0x0"/>
      <component glyphName="caron.case" x="17" y="0" flags="0x0"/>
    </TTGlyph>
    <TTGlyph name="Zdotaccent" xMin="59" yMin="0" xMax="541" yMax="908">
      <component glyphName="Z" x="0" y="0" flags="0x0"/>
      <component glyphName="dotaccent.case" x="15" y="0" flags="0x0"/>
    </TTGlyph>
    <TTGlyph name="Zeta" xMin="59" yMin="0" xMax="541" yMax="690">
      <component glyphName="Z" x="0" y="0" flags="0x0"/>
    </TTGlyph>
    <TTGlyph name="a" xMin="56" yMin="-13" xMax="533" yMax="542">
      <contour>
        <pt x="493" y="99" on="0"/>
        <pt x="511" y="70" on="0"/>
        <pt x="533" y="63" on="1"/>
        <pt x="507" y="-13" on="1"/>
        <pt x="424" y="-3" on="0"/>
        <pt x="398" y="60" on="1"/>
        <pt x="369" y="24" on="0"/>
        <pt x="281" y="-13" on="0"/>
        <pt x="229" y="-13" on="1"/>
        <pt x="149" y="-13" on="0"/>
        <pt x="56" y="77" on="0"/>
        <pt x="56" y="151" on="1"/>
        <pt x="56" y="234" on="0"/>
        <pt x="186" y="324" on="0"/>
        <pt x="307" y="324" on="1"/>
        <pt x="382" y="324" on="1"/>
        <pt x="382" y="358" on="1"/>
        <pt x="382" y="408" on="0"/>
        <pt x="322" y="454" on="0"/>
        <pt x="265" y="454" on="1"/>
        <pt x="237" y="454" on="0"/>
        <pt x="163" y="440" on="0"/>
        <pt x="125" y="427" on="1"/>
        <pt x="97" y="506" on="1"/>
        <pt x="192" y="542" on="0"/>
        <pt x="282" y="542" on="1"/>
        <pt x="387" y="542" on="0"/>
        <pt x="493" y="450" on="0"/>
        <pt x="493" y="365" on="1"/>
        <pt x="493" y="130" on="1"/>
      </contour>
      <contour>
        <pt x="298" y="69" on="0"/>
        <pt x="363" y="106" on="0"/>
        <pt x="382" y="138" on="1"/>
        <pt x="382" y="254" on="1"/>
        <pt x="320" y="254" on="1"/>
        <pt x="244" y="254" on="0"/>
        <pt x="174" y="203" on="0"/>
        <pt x="174" y="155" on="1"/>
        <pt x="174" y="113" on="0"/>
        <pt x="219" y="69" on="0"/>
        <pt x="263" y="69" on="1"/>
      </contour>
    </TTGlyph>
    <TTGlyph name="aacute" xMin="56" yMin="-13" xMax="533" yMax="804">
      <component glyphName="a" x="0" y="0" flags="0x0"/>
      <component glyphName="acute" x="-8" y="0" flags="0x0"/>
    </TTGlyph>
    <TTGlyph name="abreve" xMin="56" yMin="-13" xMax="533" yMax="787">
      <component glyphName="a" x="0" y="0" flags="0x0"/>
      <component glyphName="breve" x="-8" y="0" flags="0x0"/>
    </TTGlyph>
    <TTGlyph name="acircumflex" xMin="56" yMin="-13" xMax="533" yMax="799">
      <component glyphName="a" x="0" y="0" flags="0x0"/>
      <component glyphName="circumflex" x="-8" y="0" flags="0x0"/>
    </TTGlyph>
    <TTGlyph name="acute" xMin="175" yMin="618" xMax="425" yMax="804">
      <contour>
        <pt x="425" y="714" on="1"/>
        <pt x="210" y="618" on="1"/>
        <pt x="175" y="677" on="1"/>
        <pt x="371" y="804" on="1"/>
      </contour>
    </TTGlyph>
    <TTGlyph name="acute.case" xMin="176" yMin="754" xMax="427" yMax="924">
      <contour>
        <pt x="204" y="754" on="1"/>
        <pt x="176" y="812" on="1"/>
        <pt x="381" y="924" on="1"/>
        <pt x="427" y="834" on="1"/>
      </contour>
    </TTGlyph>
    <TTGlyph name="acute.case.loclPLK" xMin="205" yMin="732" xMax="396" yMax="937">
      <contour>
        <pt x="259" y="732" on="1"/>
        <pt x="205" y="766" on="1"/>
        <pt x="309" y="937" on="1"/>
        <pt x="396" y="881" on="1"/>
      </contour>
    </TTGlyph>
    <TTGlyph name="acute.loclPLK" xMin="205" yMin="578" xMax="395" yMax="792">
      <contour>
        <pt x="259" y="578" on="1"/>
        <pt x="205" y="613" on="1"/>
        <pt x="308" y="792" on="1"/>
        <pt x="395" y="735" on="1"/>
      </contour>
    </TTGlyph>
    <TTGlyph name="acutecomb" xMin="175" yMin="621" xMax="425" yMax="791">
      <contour>
        <pt x="203" y="621" on="1"/>
        <pt x="175" y="679" on="1"/>
        <pt x="379" y="791" on="1"/>
        <pt x="425" y="701" on="1"/>
      </contour>
    </TTGlyph>
    <TTGlyph name="adieresis" xMin="56" yMin="-13" xMax="533" yMax="771">
      <component glyphName="a" x="0" y="0" flags="0x0"/>
      <component glyphName="dieresis" x="-8" y="0" flags="0x0"/>
    </TTGlyph>
    <TTGlyph name="ae" xMin="-6" yMin="-13" xMax="604" yMax="542">
      <contour>
        <pt x="604" y="542" on="0"/>
        <pt x="604" y="278" on="1"/>
        <pt x="604" y="258" on="0"/>
        <pt x="602" y="230" on="1"/>
        <pt x="344" y="230" on="1"/>
        <pt x="351" y="147" on="0"/>
        <pt x="401" y="70" on="0"/>
        <pt x="450" y="70" on="1"/>
        <pt x="476" y="70" on="0"/>
        <pt x="520" y="88" on="0"/>
        <pt x="545" y="107" on="1"/>
        <pt x="592" y="41" on="1"/>
        <pt x="560" y="15" on="0"/>
        <pt x="490" y="-13" on="0"/>
        <pt x="446" y="-13" on="1"/>
        <pt x="344" y="-13" on="0"/>
        <pt x="293" y="74" on="1"/>
        <pt x="260" y="27" on="0"/>
        <pt x="194" y="-13" on="0"/>
        <pt x="145" y="-13" on="1"/>
        <pt x="76" y="-13" on="0"/>
        <pt x="-6" y="77" on="0"/>
        <pt x="-6" y="151" on="1"/>
        <pt x="-6" y="235" on="0"/>
        <pt x="100" y="323" on="0"/>
        <pt x="204" y="323" on="1"/>
        <pt x="247" y="323" on="1"/>
        <pt x="247" y="358" on="1"/>
        <pt x="247" y="462" on="0"/>
        <pt x="157" y="462" on="1"/>
        <pt x="133" y="462" on="0"/>
        <pt x="90" y="450" on="0"/>
        <pt x="57" y="435" on="1"/>
        <pt x="29" y="507" on="1"/>
        <pt x="105" y="542" on="0"/>
        <pt x="168" y="542" on="1"/>
        <pt x="223" y="542" on="0"/>
        <pt x="288" y="500" on="0"/>
        <pt x="306" y="461" on="1"/>
        <pt x="322" y="499" on="0"/>
        <pt x="386" y="542" on="0"/>
        <pt x="432" y="542" on="1"/>
      </contour>
      <contour>
        <pt x="388" y="461" on="0"/>
        <pt x="349" y="391" on="0"/>
        <pt x="344" y="304" on="1"/>
        <pt x="508" y="304" on="1"/>
        <pt x="506" y="386" on="0"/>
        <pt x="471" y="461" on="0"/>
        <pt x="428" y="461" on="1"/>
      </contour>
      <contour>
        <pt x="153" y="254" on="0"/>
        <pt x="100" y="204" on="0"/>
        <pt x="100" y="157" on="1"/>
        <pt x="100" y="113" on="0"/>
        <pt x="134" y="66" on="0"/>
        <pt x="164" y="66" on="1"/>
        <pt x="191" y="66" on="0"/>
        <pt x="234" y="106" on="0"/>
        <pt x="258" y="149" on="1"/>
        <pt x="247" y="199" on="0"/>
        <pt x="247" y="254" on="1"/>
        <pt x="213" y="254" on="1"/>
      </contour>
    </TTGlyph>
    <TTGlyph name="aeacute" xMin="-6" yMin="-13" xMax="604" yMax="804">
      <component glyphName="ae" x="0" y="0" flags="0x0"/>
      <component glyphName="acute" x="6" y="0" flags="0x0"/>
    </TTGlyph>
    <TTGlyph name="agrave" xMin="56" yMin="-13" xMax="533" yMax="804">
      <component glyphName="a" x="0" y="0" flags="0x0"/>
      <component glyphName="grave" x="-8" y="0" flags="0x0"/>
    </TTGlyph>
    <TTGlyph name="alpha" xMin="49" yMin="-14" xMax="555" yMax="542">
      <contour>
        <pt x="322" y="542" on="0"/>
        <pt x="401" y="467" on="0"/>
        <pt x="414" y="385" on="1"/>
        <pt x="441" y="528" on="1"/>
        <pt x="543" y="528" on="1"/>
        <pt x="479" y="260" on="1"/>
        <pt x="505" y="132" on="1"/>
        <pt x="510" y="107" on="0"/>
        <pt x="532" y="83" on="0"/>
        <pt x="555" y="75" on="1"/>
        <pt x="517" y="-14" on="1"/>
        <pt x="433" y="0" on="0"/>
        <pt x="418" y="81" on="1"/>
        <pt x="408" y="136" on="1"/>
        <pt x="364" y="-13" on="0"/>
        <pt x="244" y="-13" on="1"/>
        <pt x="152" y="-13" on="0"/>
        <pt x="49" y="127" on="0"/>
        <pt x="49" y="260" on="1"/>
        <pt x="49" y="343" on="0"/>
        <pt x="97" y="470" on="0"/>
        <pt x="188" y="542" on="0"/>
        <pt x="252" y="542" on="1"/>
      </contour>
      <contour>
        <pt x="217" y="456" on="0"/>
        <pt x="167" y="356" on="0"/>
        <pt x="167" y="260" on="1"/>
        <pt x="167" y="72" on="0"/>
        <pt x="260" y="72" on="1"/>
        <pt x="349" y="72" on="0"/>
        <pt x="385" y="267" on="1"/>
        <pt x="367" y="372" on="0"/>
        <pt x="310" y="456" on="0"/>
        <pt x="264" y="456" on="1"/>
      </contour>
    </TTGlyph>
    <TTGlyph name="alphatonos" xMin="49" yMin="-14" xMax="555" yMax="825">
      <component glyphName="alpha" x="0" y="0" flags="0x0"/>
      <component glyphName="tonos" x="8" y="0" flags="0x0"/>
    </TTGlyph>
    <TTGlyph name="amacron" xMin="56" yMin="-13" xMax="533" yMax="751">
      <component glyphName="a" x="0" y="0" flags="0x0"/>
      <component glyphName="macron" x="-8" y="0" flags="0x0"/>
    </TTGlyph>
    <TTGlyph name="ampersand" xMin="48" yMin="-13" xMax="575" yMax="703">
      <contour>
        <pt x="333" y="703" on="0"/>
        <pt x="417" y="669" on="0"/>
        <pt x="456" y="627" on="1"/>
        <pt x="393" y="570" on="1"/>
        <pt x="367" y="598" on="0"/>
        <pt x="318" y="623" on="0"/>
        <pt x="285" y="623" on="1"/>
        <pt x="240" y="623" on="0"/>
        <pt x="192" y="572" on="0"/>
        <pt x="192" y="530" on="1"/>
        <pt x="192" y="486" on="0"/>
        <pt x="256" y="425" on="0"/>
        <pt x="304" y="425" on="1"/>
        <pt x="575" y="425" on="1"/>
        <pt x="575" y="345" on="1"/>
        <pt x="495" y="345" on="1"/>
        <pt x="495" y="77" on="1"/>
        <pt x="463" y="40" on="0"/>
        <pt x="357" y="-13" on="0"/>
        <pt x="278" y="-13" on="1"/>
        <pt x="203" y="-13" on="0"/>
        <pt x="99" y="44" on="0"/>
        <pt x="48" y="139" on="0"/>
        <pt x="48" y="196" on="1"/>
        <pt x="48" y="274" on="0"/>
        <pt x="127" y="371" on="0"/>
        <pt x="202" y="388" on="1"/>
        <pt x="202" y="391" on="1"/>
        <pt x="141" y="406" on="0"/>
        <pt x="83" y="483" on="0"/>
        <pt x="83" y="537" on="1"/>
        <pt x="83" y="583" on="0"/>
        <pt x="132" y="658" on="0"/>
        <pt x="221" y="703" on="0"/>
        <pt x="279" y="703" on="1"/>
      </contour>
      <contour>
        <pt x="227" y="345" on="0"/>
        <pt x="157" y="259" on="0"/>
        <pt x="157" y="202" on="1"/>
        <pt x="157" y="146" on="0"/>
        <pt x="221" y="72" on="0"/>
        <pt x="283" y="72" on="1"/>
        <pt x="318" y="72" on="0"/>
        <pt x="375" y="95" on="0"/>
        <pt x="392" y="115" on="1"/>
        <pt x="392" y="345" on="1"/>
        <pt x="293" y="345" on="1"/>
      </contour>
    </TTGlyph>
    <TTGlyph name="aogonek" xMin="56" yMin="-252" xMax="533" yMax="542">
      <contour>
        <pt x="438" y="-41" on="0"/>
        <pt x="387" y="-94" on="0"/>
        <pt x="387" y="-126" on="1"/>
        <pt x="387" y="-174" on="0"/>
        <pt x="443" y="-174" on="1"/>
        <pt x="471" y="-174" on="0"/>
        <pt x="502" y="-167" on="1"/>
        <pt x="492" y="-244" on="1"/>
        <pt x="462" y="-252" on="0"/>
        <pt x="430" y="-252" on="1"/>
        <pt x="371" y="-252" on="0"/>
        <pt x="297" y="-192" on="0"/>
        <pt x="297" y="-144" on="1"/>
        <pt x="297" y="-92" on="0"/>
        <pt x="369" y="-18" on="0"/>
        <pt x="440" y="9" on="1"/>
        <pt x="411" y="27" on="0"/>
        <pt x="398" y="60" on="1"/>
        <pt x="369" y="24" on="0"/>
        <pt x="281" y="-13" on="0"/>
        <pt x="229" y="-13" on="1"/>
        <pt x="149" y="-13" on="0"/>
        <pt x="56" y="77" on="0"/>
        <pt x="56" y="151" on="1"/>
        <pt x="56" y="234" on="0"/>
        <pt x="186" y="324" on="0"/>
        <pt x="307" y="324" on="1"/>
        <pt x="382" y="324" on="1"/>
        <pt x="382" y="358" on="1"/>
        <pt x="382" y="408" on="0"/>
        <pt x="322" y="454" on="0"/>
        <pt x="265" y="454" on="1"/>
        <pt x="237" y="454" on="0"/>
        <pt x="163" y="440" on="0"/>
        <pt x="125" y="427" on="1"/>
        <pt x="97" y="506" on="1"/>
        <pt x="192" y="542" on="0"/>
        <pt x="282" y="542" on="1"/>
        <pt x="387" y="542" on="0"/>
        <pt x="493" y="450" on="0"/>
        <pt x="493" y="365" on="1"/>
        <pt x="493" y="130" on="1"/>
        <pt x="493" y="99" on="0"/>
        <pt x="511" y="70" on="0"/>
        <pt x="533" y="63" on="1"/>
        <pt x="507" y="-13" on="1"/>
      </contour>
      <contour>
        <pt x="320" y="254" on="1"/>
        <pt x="244" y="254" on="0"/>
        <pt x="174" y="203" on="0"/>
        <pt x="174" y="155" on="1"/>
        <pt x="174" y="113" on="0"/>
        <pt x="219" y="69" on="0"/>
        <pt x="263" y="69" on="1"/>
        <pt x="298" y="69" on="0"/>
        <pt x="363" y="106" on="0"/>
        <pt x="382" y="138" on="1"/>
        <pt x="382" y="254" on="1"/>
      </contour>
    </TTGlyph>
    <TTGlyph name="approxequal" xMin="81" yMin="146" xMax="519" yMax="480">
      <contour>
        <pt x="255" y="480" on="0"/>
        <pt x="302" y="461" on="0"/>
        <pt x="329" y="444" on="1"/>
        <pt x="347" y="433" on="0"/>
        <pt x="370" y="422" on="0"/>
        <pt x="383" y="422" on="1"/>
        <pt x="406" y="422" on="0"/>
        <pt x="436" y="448" on="0"/>
        <pt x="450" y="474" on="1"/>
        <pt x="519" y="437" on="1"/>
        <pt x="467" y="336" on="0"/>
        <pt x="377" y="336" on="1"/>
        <pt x="345" y="336" on="0"/>
        <pt x="300" y="354" on="0"/>
        <pt x="271" y="371" on="1"/>
        <pt x="253" y="382" on="0"/>
        <pt x="230" y="393" on="0"/>
        <pt x="217" y="393" on="1"/>
        <pt x="194" y="393" on="0"/>
        <pt x="164" y="367" on="0"/>
        <pt x="150" y="341" on="1"/>
        <pt x="81" y="377" on="1"/>
        <pt x="133" y="480" on="0"/>
        <pt x="223" y="480" on="1"/>
      </contour>
      <contour>
        <pt x="255" y="290" on="0"/>
        <pt x="302" y="271" on="0"/>
        <pt x="329" y="254" on="1"/>
        <pt x="347" y="243" on="0"/>
        <pt x="370" y="232" on="0"/>
        <pt x="383" y="232" on="1"/>
        <pt x="406" y="232" on="0"/>
        <pt x="436" y="258" on="0"/>
        <pt x="450" y="284" on="1"/>
        <pt x="519" y="247" on="1"/>
        <pt x="467" y="146" on="0"/>
        <pt x="377" y="146" on="1"/>
        <pt x="345" y="146" on="0"/>
        <pt x="300" y="164" on="0"/>
        <pt x="271" y="181" on="1"/>
        <pt x="253" y="192" on="0"/>
        <pt x="230" y="203" on="0"/>
        <pt x="217" y="203" on="1"/>
        <pt x="194" y="203" on="0"/>
        <pt x="164" y="177" on="0"/>
        <pt x="150" y="151" on="1"/>
        <pt x="81" y="187" on="1"/>
        <pt x="133" y="290" on="0"/>
        <pt x="223" y="290" on="1"/>
      </contour>
    </TTGlyph>
    <TTGlyph name="approxequal.tosf" xMin="81" yMin="146" xMax="519" yMax="480">
      <component glyphName="approxequal" x="0" y="0" flags="0x0"/>
    </TTGlyph>
    <TTGlyph name="aring" xMin="56" yMin="-13" xMax="533" yMax="839">
      <component glyphName="a" x="0" y="0" flags="0x0"/>
      <component glyphName="ring" x="-8" y="0" flags="0x0"/>
    </TTGlyph>
    <TTGlyph name="arrowdown" xMin="-14" yMin="-32" xMax="614" yMax="644">
      <contour>
        <pt x="367" y="149" on="0"/>
        <pt x="397" y="185" on="0"/>
        <pt x="422" y="209" on="1"/>
        <pt x="548" y="326" on="1"/>
        <pt x="614" y="254" on="1"/>
        <pt x="300" y="-32" on="1"/>
        <pt x="-14" y="254" on="1"/>
        <pt x="52" y="326" on="1"/>
        <pt x="178" y="208" on="1"/>
        <pt x="204" y="184" on="0"/>
        <pt x="234" y="149" on="0"/>
        <pt x="246" y="126" on="1"/>
        <pt x="246" y="644" on="1"/>
        <pt x="354" y="644" on="1"/>
        <pt x="354" y="125" on="1"/>
      </contour>
    </TTGlyph>
    <TTGlyph name="arrowdownwhite" xMin="0" yMin="-94" xMax="600" yMax="750">
      <contour>
        <pt x="404" y="750" on="0"/>
        <pt x="431" y="723" on="0"/>
        <pt x="431" y="700" on="1"/>
        <pt x="431" y="204" on="1"/>
        <pt x="600" y="204" on="1"/>
        <pt x="300" y="-94" on="1"/>
        <pt x="0" y="204" on="1"/>
        <pt x="169" y="204" on="1"/>
        <pt x="169" y="700" on="1"/>
        <pt x="169" y="723" on="0"/>
        <pt x="197" y="750" on="0"/>
        <pt x="219" y="750" on="1"/>
        <pt x="381" y="750" on="1"/>
      </contour>
      <contour>
        <pt x="216" y="159" on="1"/>
        <pt x="109" y="159" on="1"/>
        <pt x="300" y="-30" on="1"/>
        <pt x="491" y="159" on="1"/>
        <pt x="384" y="159" on="1"/>
        <pt x="384" y="706" on="1"/>
        <pt x="216" y="706" on="1"/>
      </contour>
    </TTGlyph>
    <TTGlyph name="arrowleft" xMin="13" yMin="12" xMax="587" yMax="646">
      <contour>
        <pt x="260" y="453" on="1"/>
        <pt x="232" y="422" on="0"/>
        <pt x="199" y="392" on="0"/>
        <pt x="175" y="377" on="1"/>
        <pt x="587" y="377" on="1"/>
        <pt x="587" y="282" on="1"/>
        <pt x="175" y="282" on="1"/>
        <pt x="215" y="255" on="0"/>
        <pt x="260" y="205" on="1"/>
        <pt x="375" y="79" on="1"/>
        <pt x="297" y="12" on="1"/>
        <pt x="13" y="329" on="1"/>
        <pt x="297" y="646" on="1"/>
        <pt x="375" y="579" on="1"/>
      </contour>
    </TTGlyph>
    <TTGlyph name="arrowleftwhite" xMin="-40" yMin="13" xMax="640" yMax="613">
      <contour>
        <pt x="590" y="437" on="1"/>
        <pt x="613" y="437" on="0"/>
        <pt x="640" y="410" on="0"/>
        <pt x="640" y="387" on="1"/>
        <pt x="640" y="239" on="1"/>
        <pt x="640" y="217" on="0"/>
        <pt x="613" y="189" on="0"/>
        <pt x="590" y="189" on="1"/>
        <pt x="258" y="189" on="1"/>
        <pt x="258" y="13" on="1"/>
        <pt x="-40" y="313" on="1"/>
        <pt x="258" y="613" on="1"/>
        <pt x="258" y="437" on="1"/>
      </contour>
      <contour>
        <pt x="213" y="122" on="1"/>
        <pt x="213" y="233" on="1"/>
        <pt x="596" y="233" on="1"/>
        <pt x="596" y="393" on="1"/>
        <pt x="213" y="393" on="1"/>
        <pt x="213" y="504" on="1"/>
        <pt x="24" y="313" on="1"/>
      </contour>
    </TTGlyph>
    <TTGlyph name="arrowright" xMin="13" yMin="12" xMax="587" yMax="646">
      <contour>
        <pt x="303" y="12" on="1"/>
        <pt x="225" y="79" on="1"/>
        <pt x="340" y="205" on="1"/>
        <pt x="385" y="255" on="0"/>
        <pt x="425" y="282" on="1"/>
        <pt x="13" y="282" on="1"/>
        <pt x="13" y="377" on="1"/>
        <pt x="425" y="377" on="1"/>
        <pt x="401" y="392" on="0"/>
        <pt x="368" y="422" on="0"/>
        <pt x="340" y="453" on="1"/>
        <pt x="225" y="579" on="1"/>
        <pt x="303" y="646" on="1"/>
        <pt x="587" y="329" on="1"/>
      </contour>
    </TTGlyph>
    <TTGlyph name="arrowrightwhite" xMin="-40" yMin="13" xMax="640" yMax="613">
      <contour>
        <pt x="342" y="13" on="1"/>
        <pt x="342" y="189" on="1"/>
        <pt x="10" y="189" on="1"/>
        <pt x="-13" y="189" on="0"/>
        <pt x="-40" y="217" on="0"/>
        <pt x="-40" y="239" on="1"/>
        <pt x="-40" y="387" on="1"/>
        <pt x="-40" y="410" on="0"/>
        <pt x="-13" y="437" on="0"/>
        <pt x="10" y="437" on="1"/>
        <pt x="342" y="437" on="1"/>
        <pt x="342" y="613" on="1"/>
        <pt x="640" y="313" on="1"/>
      </contour>
      <contour>
        <pt x="4" y="393" on="1"/>
        <pt x="4" y="233" on="1"/>
        <pt x="387" y="233" on="1"/>
        <pt x="387" y="122" on="1"/>
        <pt x="576" y="313" on="1"/>
        <pt x="387" y="504" on="1"/>
        <pt x="387" y="393" on="1"/>
      </contour>
    </TTGlyph>
    <TTGlyph name="arrowup" xMin="-14" yMin="0" xMax="614" yMax="676">
      <contour>
        <pt x="548" y="318" on="1"/>
        <pt x="422" y="436" on="1"/>
        <pt x="397" y="458" on="0"/>
        <pt x="367" y="494" on="0"/>
        <pt x="354" y="519" on="1"/>
        <pt x="354" y="0" on="1"/>
        <pt x="246" y="0" on="1"/>
        <pt x="246" y="519" on="1"/>
        <pt x="234" y="496" on="0"/>
        <pt x="204" y="461" on="0"/>
        <pt x="178" y="436" on="1"/>
        <pt x="52" y="318" on="1"/>
        <pt x="-14" y="390" on="1"/>
        <pt x="300" y="676" on="1"/>
        <pt x="614" y="390" on="1"/>
      </contour>
    </TTGlyph>
    <TTGlyph name="arrowupdn" xMin="-14" yMin="-202" xMax="614" yMax="875">
      <contour>
        <pt x="548" y="517" on="1"/>
        <pt x="422" y="634" on="1"/>
        <pt x="397" y="658" on="0"/>
        <pt x="367" y="694" on="0"/>
        <pt x="354" y="718" on="1"/>
        <pt x="354" y="-44" on="1"/>
        <pt x="367" y="-20" on="0"/>
        <pt x="397" y="16" on="0"/>
        <pt x="422" y="39" on="1"/>
        <pt x="548" y="157" on="1"/>
        <pt x="614" y="84" on="1"/>
        <pt x="300" y="-202" on="1"/>
        <pt x="-14" y="84" on="1"/>
        <pt x="52" y="157" on="1"/>
        <pt x="178" y="39" on="1"/>
        <pt x="203" y="15" on="0"/>
        <pt x="234" y="-21" on="0"/>
        <pt x="246" y="-44" on="1"/>
        <pt x="246" y="717" on="1"/>
        <pt x="234" y="694" on="0"/>
        <pt x="204" y="659" on="0"/>
        <pt x="178" y="635" on="1"/>
        <pt x="52" y="517" on="1"/>
        <pt x="-14" y="589" on="1"/>
        <pt x="300" y="875" on="1"/>
        <pt x="614" y="589" on="1"/>
      </contour>
    </TTGlyph>
    <TTGlyph name="arrowupwhite" xMin="0" yMin="-12" xMax="600" yMax="832">
      <contour>
        <pt x="431" y="534" on="1"/>
        <pt x="431" y="38" on="1"/>
        <pt x="431" y="16" on="0"/>
        <pt x="404" y="-12" on="0"/>
        <pt x="381" y="-12" on="1"/>
        <pt x="219" y="-12" on="1"/>
        <pt x="197" y="-12" on="0"/>
        <pt x="169" y="16" on="0"/>
        <pt x="169" y="38" on="1"/>
        <pt x="169" y="534" on="1"/>
        <pt x="0" y="534" on="1"/>
        <pt x="300" y="832" on="1"/>
        <pt x="600" y="534" on="1"/>
      </contour>
      <contour>
        <pt x="216" y="579" on="1"/>
        <pt x="216" y="32" on="1"/>
        <pt x="384" y="32" on="1"/>
        <pt x="384" y="579" on="1"/>
        <pt x="491" y="579" on="1"/>
        <pt x="300" y="768" on="1"/>
        <pt x="109" y="579" on="1"/>
      </contour>
    </TTGlyph>
    <TTGlyph name="asciicircum" xMin="60" yMin="527" xMax="540" yMax="841">
      <contour>
        <pt x="424" y="527" on="1"/>
        <pt x="299" y="750" on="1"/>
        <pt x="176" y="527" on="1"/>
        <pt x="60" y="527" on="1"/>
        <pt x="249" y="841" on="1"/>
        <pt x="351" y="841" on="1"/>
        <pt x="540" y="527" on="1"/>
      </contour>
    </TTGlyph>
    <TTGlyph name="asciitilde" xMin="35" yMin="221" xMax="565" yMax="412">
      <contour>
        <pt x="241" y="412" on="0"/>
        <pt x="293" y="382" on="0"/>
        <pt x="326" y="353" on="1"/>
        <pt x="351" y="331" on="0"/>
        <pt x="381" y="312" on="0"/>
        <pt x="399" y="312" on="1"/>
        <pt x="427" y="312" on="0"/>
        <pt x="473" y="354" on="0"/>
        <pt x="494" y="394" on="1"/>
        <pt x="565" y="360" on="1"/>
        <pt x="533" y="295" on="0"/>
        <pt x="456" y="221" on="0"/>
        <pt x="396" y="221" on="1"/>
        <pt x="361" y="221" on="0"/>
        <pt x="309" y="251" on="0"/>
        <pt x="277" y="279" on="1"/>
        <pt x="253" y="300" on="0"/>
        <pt x="220" y="321" on="0"/>
        <pt x="201" y="321" on="1"/>
        <pt x="172" y="321" on="0"/>
        <pt x="128" y="279" on="0"/>
        <pt x="106" y="239" on="1"/>
        <pt x="35" y="273" on="1"/>
        <pt x="67" y="337" on="0"/>
        <pt x="144" y="412" on="0"/>
        <pt x="204" y="412" on="1"/>
      </contour>
    </TTGlyph>
    <TTGlyph name="asciitilde.tosf" xMin="35" yMin="221" xMax="565" yMax="412">
      <component glyphName="asciitilde" x="0" y="0" flags="0x0"/>
    </TTGlyph>
    <TTGlyph name="asterisk" xMin="89" yMin="122" xMax="511" yMax="528">
      <contour>
        <pt x="480" y="432" on="1"/>
        <pt x="511" y="335" on="1"/>
        <pt x="357" y="303" on="1"/>
        <pt x="466" y="187" on="1"/>
        <pt x="382" y="124" on="1"/>
        <pt x="300" y="262" on="1"/>
        <pt x="224" y="122" on="1"/>
        <pt x="138" y="182" on="1"/>
        <pt x="244" y="303" on="1"/>
        <pt x="89" y="335" on="1"/>
        <pt x="120" y="432" on="1"/>
        <pt x="265" y="369" on="1"/>
        <pt x="248" y="528" on="1"/>
        <pt x="352" y="528" on="1"/>
        <pt x="334" y="369" on="1"/>
      </contour>
    </TTGlyph>
    <TTGlyph name="at" xMin="5" yMin="-92" xMax="591" yMax="704">
      <contour>
        <pt x="458" y="704" on="0"/>
        <pt x="591" y="480" on="0"/>
        <pt x="591" y="289" on="1"/>
        <pt x="591" y="155" on="0"/>
        <pt x="566" y="-9" on="0"/>
        <pt x="500" y="-92" on="0"/>
        <pt x="440" y="-92" on="1"/>
        <pt x="402" y="-92" on="0"/>
        <pt x="349" y="-48" on="0"/>
        <pt x="323" y="17" on="0"/>
        <pt x="321" y="49" on="1"/>
        <pt x="317" y="49" on="1"/>
        <pt x="300" y="7" on="0"/>
        <pt x="232" y="-47" on="0"/>
        <pt x="179" y="-47" on="1"/>
        <pt x="99" y="-47" on="0"/>
        <pt x="24" y="77" on="0"/>
        <pt x="24" y="182" on="1"/>
        <pt x="24" y="310" on="0"/>
        <pt x="128" y="444" on="0"/>
        <pt x="227" y="444" on="1"/>
        <pt x="303" y="444" on="0"/>
        <pt x="378" y="404" on="1"/>
        <pt x="378" y="107" on="1"/>
        <pt x="378" y="40" on="0"/>
        <pt x="408" y="-13" on="0"/>
        <pt x="437" y="-13" on="1"/>
        <pt x="462" y="-13" on="0"/>
        <pt x="485" y="55" on="0"/>
        <pt x="491" y="172" on="0"/>
        <pt x="491" y="285" on="1"/>
        <pt x="491" y="394" on="0"/>
        <pt x="458" y="539" on="0"/>
        <pt x="366" y="621" on="0"/>
        <pt x="283" y="621" on="1"/>
        <pt x="227" y="621" on="0"/>
        <pt x="117" y="580" on="0"/>
        <pt x="59" y="529" on="1"/>
        <pt x="5" y="592" on="1"/>
        <pt x="133" y="704" on="0"/>
        <pt x="285" y="704" on="1"/>
      </contour>
      <contour>
        <pt x="172" y="368" on="0"/>
        <pt x="129" y="282" on="0"/>
        <pt x="129" y="182" on="1"/>
        <pt x="129" y="107" on="0"/>
        <pt x="159" y="30" on="0"/>
        <pt x="196" y="30" on="1"/>
        <pt x="235" y="30" on="0"/>
        <pt x="271" y="77" on="0"/>
        <pt x="282" y="111" on="1"/>
        <pt x="282" y="355" on="1"/>
        <pt x="256" y="368" on="0"/>
        <pt x="228" y="368" on="1"/>
      </contour>
    </TTGlyph>
    <TTGlyph name="atilde" xMin="56" yMin="-13" xMax="533" yMax="775">
      <component glyphName="a" x="0" y="0" flags="0x0"/>
      <component glyphName="tilde" x="-8" y="0" flags="0x0"/>
    </TTGlyph>
    <TTGlyph name="b" xMin="89" yMin="-13" xMax="543" yMax="753">
      <contour>
        <pt x="228" y="502" on="0"/>
        <pt x="303" y="542" on="0"/>
        <pt x="346" y="542" on="1"/>
        <pt x="447" y="542" on="0"/>
        <pt x="543" y="396" on="0"/>
        <pt x="543" y="265" on="1"/>
        <pt x="543" y="141" on="0"/>
        <pt x="432" y="-13" on="0"/>
        <pt x="333" y="-13" on="1"/>
        <pt x="244" y="-13" on="0"/>
        <pt x="194" y="52" on="1"/>
        <pt x="188" y="0" on="1"/>
        <pt x="89" y="0" on="1"/>
        <pt x="89" y="740" on="1"/>
        <pt x="201" y="753" on="1"/>
        <pt x="201" y="465" on="1"/>
      </contour>
      <contour>
        <pt x="363" y="72" on="0"/>
        <pt x="424" y="167" on="0"/>
        <pt x="424" y="264" on="1"/>
        <pt x="424" y="364" on="0"/>
        <pt x="369" y="456" on="0"/>
        <pt x="315" y="456" on="1"/>
        <pt x="281" y="456" on="0"/>
        <pt x="222" y="414" on="0"/>
        <pt x="201" y="380" on="1"/>
        <pt x="201" y="133" on="1"/>
        <pt x="220" y="104" on="0"/>
        <pt x="273" y="72" on="0"/>
        <pt x="305" y="72" on="1"/>
      </contour>
    </TTGlyph>
    <TTGlyph name="backslash" xMin="43" yMin="-106" xMax="557" yMax="812">
      <contour>
        <pt x="557" y="-66" on="1"/>
        <pt x="467" y="-106" on="1"/>
        <pt x="43" y="771" on="1"/>
        <pt x="132" y="812" on="1"/>
      </contour>
    </TTGlyph>
    <TTGlyph name="bar" xMin="248" yMin="-103" xMax="351" yMax="808">
      <contour>
        <pt x="248" y="-103" on="1"/>
        <pt x="248" y="808" on="1"/>
        <pt x="351" y="808" on="1"/>
        <pt x="351" y="-103" on="1"/>
      </contour>
    </TTGlyph>
    <TTGlyph name="beta" xMin="77" yMin="-218" xMax="554" yMax="754">
      <contour>
        <pt x="554" y="383" on="0"/>
        <pt x="554" y="205" on="1"/>
        <pt x="554" y="140" on="0"/>
        <pt x="495" y="40" on="0"/>
        <pt x="394" y="-14" on="0"/>
        <pt x="332" y="-14" on="1"/>
        <pt x="255" y="-14" on="0"/>
        <pt x="189" y="34" on="1"/>
        <pt x="189" y="-201" on="1"/>
        <pt x="77" y="-218" on="1"/>
        <pt x="77" y="543" on="1"/>
        <pt x="77" y="642" on="0"/>
        <pt x="192" y="754" on="0"/>
        <pt x="289" y="754" on="1"/>
        <pt x="350" y="754" on="0"/>
        <pt x="446" y="708" on="0"/>
        <pt x="501" y="625" on="0"/>
        <pt x="501" y="570" on="1"/>
        <pt x="501" y="499" on="0"/>
        <pt x="424" y="417" on="0"/>
        <pt x="357" y="405" on="1"/>
      </contour>
      <contour>
        <pt x="366" y="73" on="0"/>
        <pt x="439" y="143" on="0"/>
        <pt x="439" y="209" on="1"/>
        <pt x="439" y="281" on="0"/>
        <pt x="358" y="356" on="0"/>
        <pt x="284" y="356" on="1"/>
        <pt x="238" y="356" on="1"/>
        <pt x="248" y="439" on="1"/>
        <pt x="288" y="439" on="1"/>
        <pt x="334" y="439" on="0"/>
        <pt x="391" y="499" on="0"/>
        <pt x="391" y="559" on="1"/>
        <pt x="391" y="613" on="0"/>
        <pt x="336" y="668" on="0"/>
        <pt x="290" y="668" on="1"/>
        <pt x="189" y="668" on="0"/>
        <pt x="189" y="546" on="1"/>
        <pt x="189" y="113" on="1"/>
        <pt x="238" y="73" on="0"/>
        <pt x="310" y="73" on="1"/>
      </contour>
    </TTGlyph>
    <TTGlyph name="blackDiamond" xMin="30" yMin="0" xMax="570" yMax="540">
      <contour>
        <pt x="300" y="0" on="1"/>
        <pt x="30" y="270" on="1"/>
        <pt x="300" y="540" on="1"/>
        <pt x="570" y="270" on="1"/>
      </contour>
    </TTGlyph>
    <TTGlyph name="blackcircle" xMin="30" yMin="0" xMax="570" yMax="540">
      <contour>
        <pt x="373" y="540" on="0"/>
        <pt x="497" y="467" on="0"/>
        <pt x="570" y="343" on="0"/>
        <pt x="570" y="270" on="1"/>
        <pt x="570" y="196" on="0"/>
        <pt x="497" y="72" on="0"/>
        <pt x="373" y="0" on="0"/>
        <pt x="300" y="0" on="1"/>
        <pt x="226" y="0" on="0"/>
        <pt x="102" y="72" on="0"/>
        <pt x="30" y="196" on="0"/>
        <pt x="30" y="270" on="1"/>
        <pt x="30" y="343" on="0"/>
        <pt x="102" y="467" on="0"/>
        <pt x="226" y="540" on="0"/>
        <pt x="300" y="540" on="1"/>
      </contour>
    </TTGlyph>
    <TTGlyph name="blacklowerlefttriangle" xMin="30" yMin="0" xMax="570" yMax="540">
      <contour>
        <pt x="30" y="0" on="1"/>
        <pt x="30" y="540" on="1"/>
        <pt x="570" y="0" on="1"/>
      </contour>
    </TTGlyph>
    <TTGlyph name="blacklowerrighttriangle" xMin="30" yMin="0" xMax="570" yMax="540">
      <contour>
        <pt x="30" y="0" on="1"/>
        <pt x="570" y="540" on="1"/>
        <pt x="570" y="0" on="1"/>
      </contour>
    </TTGlyph>
    <TTGlyph name="blackupperlefttriangle" xMin="30" yMin="0" xMax="570" yMax="540">
      <contour>
        <pt x="30" y="540" on="1"/>
        <pt x="570" y="540" on="1"/>
        <pt x="30" y="0" on="1"/>
      </contour>
    </TTGlyph>
    <TTGlyph name="blackupperrighttriangle" xMin="30" yMin="0" xMax="570" yMax="540">
      <contour>
        <pt x="30" y="540" on="1"/>
        <pt x="570" y="540" on="1"/>
        <pt x="570" y="0" on="1"/>
      </contour>
    </TTGlyph>
    <TTGlyph name="block" xMin="0" yMin="-500" xMax="600" yMax="1000">
      <contour>
        <pt x="0" y="-500" on="1"/>
        <pt x="0" y="1000" on="1"/>
        <pt x="600" y="1000" on="1"/>
        <pt x="600" y="-500" on="1"/>
      </contour>
    </TTGlyph>
    <TTGlyph name="braceleft" xMin="142" yMin="-137" xMax="457" yMax="837">
      <contour>
        <pt x="402" y="754" on="0"/>
        <pt x="346" y="722" on="0"/>
        <pt x="346" y="681" on="1"/>
        <pt x="346" y="498" on="1"/>
        <pt x="346" y="429" on="0"/>
        <pt x="287" y="361" on="0"/>
        <pt x="224" y="350" on="1"/>
        <pt x="289" y="339" on="0"/>
        <pt x="346" y="274" on="0"/>
        <pt x="346" y="202" on="1"/>
        <pt x="346" y="19" on="1"/>
        <pt x="346" y="-22" on="0"/>
        <pt x="402" y="-54" on="0"/>
        <pt x="457" y="-54" on="1"/>
        <pt x="457" y="-137" on="1"/>
        <pt x="347" y="-137" on="0"/>
        <pt x="240" y="-62" on="0"/>
        <pt x="240" y="30" on="1"/>
        <pt x="240" y="202" on="1"/>
        <pt x="240" y="255" on="0"/>
        <pt x="193" y="305" on="0"/>
        <pt x="142" y="305" on="1"/>
        <pt x="142" y="395" on="1"/>
        <pt x="192" y="395" on="0"/>
        <pt x="240" y="445" on="0"/>
        <pt x="240" y="498" on="1"/>
        <pt x="240" y="670" on="1"/>
        <pt x="240" y="763" on="0"/>
        <pt x="346" y="837" on="0"/>
        <pt x="457" y="837" on="1"/>
        <pt x="457" y="754" on="1"/>
      </contour>
    </TTGlyph>
    <TTGlyph name="braceleft.case" xMin="142" yMin="-147" xMax="457" yMax="827">
      <component glyphName="braceleft" x="0" y="-10" flags="0x0"/>
    </TTGlyph>
    <TTGlyph name="braceright" xMin="143" yMin="-137" xMax="458" yMax="837">
      <contour>
        <pt x="254" y="837" on="0"/>
        <pt x="360" y="763" on="0"/>
        <pt x="360" y="670" on="1"/>
        <pt x="360" y="498" on="1"/>
        <pt x="360" y="445" on="0"/>
        <pt x="407" y="395" on="0"/>
        <pt x="458" y="395" on="1"/>
        <pt x="458" y="305" on="1"/>
        <pt x="408" y="305" on="0"/>
        <pt x="360" y="255" on="0"/>
        <pt x="360" y="202" on="1"/>
        <pt x="360" y="30" on="1"/>
        <pt x="360" y="-62" on="0"/>
        <pt x="253" y="-137" on="0"/>
        <pt x="143" y="-137" on="1"/>
        <pt x="143" y="-54" on="1"/>
        <pt x="198" y="-54" on="0"/>
        <pt x="254" y="-22" on="0"/>
        <pt x="254" y="19" on="1"/>
        <pt x="254" y="202" on="1"/>
        <pt x="254" y="274" on="0"/>
        <pt x="311" y="339" on="0"/>
        <pt x="375" y="349" on="1"/>
        <pt x="313" y="361" on="0"/>
        <pt x="254" y="429" on="0"/>
        <pt x="254" y="498" on="1"/>
        <pt x="254" y="681" on="1"/>
        <pt x="254" y="722" on="0"/>
        <pt x="198" y="754" on="0"/>
        <pt x="143" y="754" on="1"/>
        <pt x="143" y="837" on="1"/>
      </contour>
    </TTGlyph>
    <TTGlyph name="braceright.case" xMin="143" yMin="-147" xMax="458" yMax="827">
      <component glyphName="braceright" x="0" y="-10" flags="0x0"/>
    </TTGlyph>
    <TTGlyph name="bracketleft" xMin="173" yMin="-118" xMax="426" yMax="818">
      <contour>
        <pt x="426" y="818" on="1"/>
        <pt x="426" y="729" on="1"/>
        <pt x="279" y="729" on="1"/>
        <pt x="279" y="-30" on="1"/>
        <pt x="426" y="-30" on="1"/>
        <pt x="426" y="-118" on="1"/>
        <pt x="173" y="-118" on="1"/>
        <pt x="173" y="818" on="1"/>
      </contour>
    </TTGlyph>
    <TTGlyph name="bracketleft.case" xMin="173" yMin="-128" xMax="426" yMax="808">
      <component glyphName="bracketleft" x="0" y="-10" flags="0x0"/>
    </TTGlyph>
    <TTGlyph name="bracketright" xMin="174" yMin="-118" xMax="427" yMax="818">
      <contour>
        <pt x="174" y="-118" on="1"/>
        <pt x="174" y="-29" on="1"/>
        <pt x="321" y="-29" on="1"/>
        <pt x="321" y="729" on="1"/>
        <pt x="174" y="729" on="1"/>
        <pt x="174" y="818" on="1"/>
        <pt x="427" y="818" on="1"/>
        <pt x="427" y="-118" on="1"/>
      </contour>
    </TTGlyph>
    <TTGlyph name="bracketright.case" xMin="174" yMin="-128" xMax="427" yMax="808">
      <component glyphName="bracketright" x="0" y="-10" flags="0x0"/>
    </TTGlyph>
    <TTGlyph name="breve" xMin="142" yMin="623" xMax="458" yMax="787">
      <contour>
        <pt x="230" y="623" on="0"/>
        <pt x="149" y="713" on="0"/>
        <pt x="142" y="774" on="1"/>
        <pt x="211" y="787" on="1"/>
        <pt x="221" y="748" on="0"/>
        <pt x="265" y="704" on="0"/>
        <pt x="299" y="704" on="1"/>
        <pt x="333" y="704" on="0"/>
        <pt x="378" y="748" on="0"/>
        <pt x="389" y="787" on="1"/>
        <pt x="458" y="774" on="1"/>
        <pt x="454" y="736" on="0"/>
        <pt x="415" y="667" on="0"/>
        <pt x="345" y="623" on="0"/>
        <pt x="299" y="623" on="1"/>
      </contour>
    </TTGlyph>
    <TTGlyph name="breve.case" xMin="142" yMin="756" xMax="458" yMax="902">
      <contour>
        <pt x="233" y="756" on="0"/>
        <pt x="149" y="829" on="0"/>
        <pt x="142" y="889" on="1"/>
        <pt x="212" y="902" on="1"/>
        <pt x="233" y="838" on="0"/>
        <pt x="299" y="838" on="1"/>
        <pt x="334" y="838" on="0"/>
        <pt x="379" y="871" on="0"/>
        <pt x="389" y="902" on="1"/>
        <pt x="458" y="889" on="1"/>
        <pt x="452" y="830" on="0"/>
        <pt x="366" y="756" on="0"/>
        <pt x="299" y="756" on="1"/>
      </contour>
    </TTGlyph>
    <TTGlyph name="brevecy" xMin="142" yMin="633" xMax="458" yMax="776">
      <contour>
        <pt x="233" y="633" on="0"/>
        <pt x="148" y="705" on="0"/>
        <pt x="142" y="762" on="1"/>
        <pt x="212" y="776" on="1"/>
        <pt x="229" y="715" on="0"/>
        <pt x="299" y="715" on="1"/>
        <pt x="372" y="715" on="0"/>
        <pt x="389" y="776" on="1"/>
        <pt x="458" y="762" on="1"/>
        <pt x="452" y="705" on="0"/>
        <pt x="366" y="633" on="0"/>
        <pt x="299" y="633" on="1"/>
      </contour>
    </TTGlyph>
    <TTGlyph name="brevecy.case" xMin="142" yMin="759" xMax="458" yMax="902">
      <contour>
        <pt x="233" y="759" on="0"/>
        <pt x="148" y="831" on="0"/>
        <pt x="142" y="888" on="1"/>
        <pt x="211" y="902" on="1"/>
        <pt x="228" y="841" on="0"/>
        <pt x="299" y="841" on="1"/>
        <pt x="370" y="841" on="0"/>
        <pt x="389" y="902" on="1"/>
        <pt x="458" y="888" on="1"/>
        <pt x="452" y="831" on="0"/>
        <pt x="365" y="759" on="0"/>
        <pt x="299" y="759" on="1"/>
      </contour>
    </TTGlyph>
    <TTGlyph name="brokenbar" xMin="248" yMin="-103" xMax="351" yMax="808">
      <contour>
        <pt x="248" y="450" on="1"/>
        <pt x="248" y="808" on="1"/>
        <pt x="351" y="808" on="1"/>
        <pt x="351" y="450" on="1"/>
      </contour>
      <contour>
        <pt x="248" y="-103" on="1"/>
        <pt x="248" y="256" on="1"/>
        <pt x="351" y="256" on="1"/>
        <pt x="351" y="-103" on="1"/>
      </contour>
    </TTGlyph>
    <TTGlyph name="bullet" xMin="170" yMin="212" xMax="430" yMax="471">
      <contour>
        <pt x="245" y="212" on="0"/>
        <pt x="170" y="287" on="0"/>
        <pt x="170" y="342" on="1"/>
        <pt x="170" y="397" on="0"/>
        <pt x="244" y="471" on="0"/>
        <pt x="300" y="471" on="1"/>
        <pt x="356" y="471" on="0"/>
        <pt x="430" y="397" on="0"/>
        <pt x="430" y="341" on="1"/>
        <pt x="430" y="286" on="0"/>
        <pt x="356" y="212" on="0"/>
        <pt x="300" y="212" on="1"/>
      </contour>
    </TTGlyph>
    <TTGlyph name="bulletoperator" xMin="203" yMin="245" xMax="397" yMax="439">
      <component glyphName="periodcentered" x="0" y="0" flags="0x0"/>
    </TTGlyph>
    <TTGlyph name="bullseye" xMin="30" yMin="0" xMax="570" yMax="540">
      <contour>
        <pt x="373" y="540" on="0"/>
        <pt x="497" y="467" on="0"/>
        <pt x="570" y="343" on="0"/>
        <pt x="570" y="270" on="1"/>
        <pt x="570" y="196" on="0"/>
        <pt x="497" y="72" on="0"/>
        <pt x="373" y="0" on="0"/>
        <pt x="300" y="0" on="1"/>
        <pt x="226" y="0" on="0"/>
        <pt x="102" y="72" on="0"/>
        <pt x="30" y="196" on="0"/>
        <pt x="30" y="270" on="1"/>
        <pt x="30" y="343" on="0"/>
        <pt x="102" y="467" on="0"/>
        <pt x="226" y="540" on="0"/>
        <pt x="300" y="540" on="1"/>
      </contour>
      <contour>
        <pt x="248" y="460" on="0"/>
        <pt x="161" y="409" on="0"/>
        <pt x="110" y="321" on="0"/>
        <pt x="110" y="270" on="1"/>
        <pt x="110" y="218" on="0"/>
        <pt x="161" y="131" on="0"/>
        <pt x="248" y="80" on="0"/>
        <pt x="300" y="80" on="1"/>
        <pt x="351" y="80" on="0"/>
        <pt x="439" y="131" on="0"/>
        <pt x="490" y="218" on="0"/>
        <pt x="490" y="270" on="1"/>
        <pt x="490" y="321" on="0"/>
        <pt x="438" y="408" on="0"/>
        <pt x="351" y="460" on="0"/>
        <pt x="300" y="460" on="1"/>
      </contour>
      <contour>
        <pt x="345" y="380" on="0"/>
        <pt x="410" y="315" on="0"/>
        <pt x="410" y="270" on="1"/>
        <pt x="410" y="224" on="0"/>
        <pt x="345" y="160" on="0"/>
        <pt x="300" y="160" on="1"/>
        <pt x="254" y="160" on="0"/>
        <pt x="190" y="224" on="0"/>
        <pt x="190" y="270" on="1"/>
        <pt x="190" y="315" on="0"/>
        <pt x="254" y="380" on="0"/>
        <pt x="300" y="380" on="1"/>
      </contour>
      <contour>
        <pt x="287" y="300" on="0"/>
        <pt x="270" y="282" on="0"/>
        <pt x="270" y="270" on="1"/>
        <pt x="270" y="257" on="0"/>
        <pt x="287" y="240" on="0"/>
        <pt x="300" y="240" on="1"/>
        <pt x="312" y="240" on="0"/>
        <pt x="330" y="257" on="0"/>
        <pt x="330" y="270" on="1"/>
        <pt x="330" y="282" on="0"/>
        <pt x="312" y="300" on="0"/>
        <pt x="300" y="300" on="1"/>
      </contour>
    </TTGlyph>
    <TTGlyph name="c" xMin="83" yMin="-13" xMax="526" yMax="542">
      <contour>
        <pt x="409" y="79" on="0"/>
        <pt x="474" y="127" on="1"/>
        <pt x="526" y="52" on="1"/>
        <pt x="490" y="22" on="0"/>
        <pt x="392" y="-13" on="0"/>
        <pt x="340" y="-13" on="1"/>
        <pt x="219" y="-13" on="0"/>
        <pt x="83" y="136" on="0"/>
        <pt x="83" y="261" on="1"/>
        <pt x="83" y="342" on="0"/>
        <pt x="145" y="469" on="0"/>
        <pt x="262" y="542" on="0"/>
        <pt x="342" y="542" on="1"/>
        <pt x="447" y="542" on="0"/>
        <pt x="525" y="479" on="1"/>
        <pt x="473" y="406" on="1"/>
        <pt x="410" y="452" on="0"/>
        <pt x="344" y="452" on="1"/>
        <pt x="278" y="452" on="0"/>
        <pt x="202" y="357" on="0"/>
        <pt x="202" y="261" on="1"/>
        <pt x="202" y="167" on="0"/>
        <pt x="279" y="79" on="0"/>
        <pt x="344" y="79" on="1"/>
      </contour>
    </TTGlyph>
    <TTGlyph name="cacute" xMin="83" yMin="-13" xMax="526" yMax="794">
      <component glyphName="c" x="0" y="0" flags="0x0"/>
      <component glyphName="acute" x="44" y="-10" flags="0x0"/>
    </TTGlyph>
    <TTGlyph name="cacute.loclPLK" xMin="83" yMin="-13" xMax="526" yMax="782">
      <component glyphName="c" x="0" y="0" flags="0x0"/>
      <component glyphName="acute.loclPLK" x="80" y="-10" flags="0x0"/>
    </TTGlyph>
    <TTGlyph name="capslock" xMin="0" yMin="-12" xMax="600" yMax="832">
      <contour>
        <pt x="431" y="534" on="1"/>
        <pt x="431" y="255" on="1"/>
        <pt x="169" y="255" on="1"/>
        <pt x="169" y="534" on="1"/>
        <pt x="0" y="534" on="1"/>
        <pt x="300" y="832" on="1"/>
        <pt x="600" y="534" on="1"/>
      </contour>
      <contour>
        <pt x="216" y="579" on="1"/>
        <pt x="216" y="297" on="1"/>
        <pt x="384" y="297" on="1"/>
        <pt x="384" y="579" on="1"/>
        <pt x="491" y="579" on="1"/>
        <pt x="300" y="768" on="1"/>
        <pt x="109" y="579" on="1"/>
      </contour>
      <contour>
        <pt x="431" y="16" on="0"/>
        <pt x="404" y="-12" on="0"/>
        <pt x="381" y="-12" on="1"/>
        <pt x="219" y="-12" on="1"/>
        <pt x="197" y="-12" on="0"/>
        <pt x="169" y="16" on="0"/>
        <pt x="169" y="38" on="1"/>
        <pt x="169" y="155" on="1"/>
        <pt x="431" y="155" on="1"/>
        <pt x="431" y="38" on="1"/>
      </contour>
      <contour>
        <pt x="216" y="32" on="1"/>
        <pt x="384" y="32" on="1"/>
        <pt x="384" y="113" on="1"/>
        <pt x="216" y="113" on="1"/>
      </contour>
    </TTGlyph>
    <TTGlyph name="caron" xMin="127" yMin="622" xMax="473" yMax="799">
      <contour>
        <pt x="336" y="622" on="1"/>
        <pt x="264" y="622" on="1"/>
        <pt x="127" y="749" on="1"/>
        <pt x="173" y="799" on="1"/>
        <pt x="301" y="707" on="1"/>
        <pt x="428" y="799" on="1"/>
        <pt x="473" y="749" on="1"/>
      </contour>
    </TTGlyph>
    <TTGlyph name="caron.alt" xMin="243" yMin="492" xMax="373" yMax="703">
      <contour>
        <pt x="310" y="492" on="1"/>
        <pt x="243" y="502" on="1"/>
        <pt x="273" y="703" on="1"/>
        <pt x="373" y="691" on="1"/>
      </contour>
    </TTGlyph>
    <TTGlyph name="caron.case" xMin="127" yMin="753" xMax="473" yMax="920">
      <contour>
        <pt x="336" y="753" on="1"/>
        <pt x="264" y="753" on="1"/>
        <pt x="127" y="869" on="1"/>
        <pt x="172" y="920" on="1"/>
        <pt x="300" y="838" on="1"/>
        <pt x="429" y="920" on="1"/>
        <pt x="473" y="869" on="1"/>
      </contour>
    </TTGlyph>
    <TTGlyph name="ccaron" xMin="83" yMin="-13" xMax="526" yMax="789">
      <component glyphName="c" x="0" y="0" flags="0x0"/>
      <component glyphName="caron" x="44" y="-10" flags="0x0"/>
    </TTGlyph>
    <TTGlyph name="ccedilla" xMin="83" yMin="-248" xMax="526" yMax="542">
      <contour>
        <pt x="411" y="-58" on="0"/>
        <pt x="460" y="-107" on="0"/>
        <pt x="460" y="-143" on="1"/>
        <pt x="460" y="-191" on="0"/>
        <pt x="384" y="-248" on="0"/>
        <pt x="327" y="-248" on="1"/>
        <pt x="296" y="-248" on="0"/>
        <pt x="239" y="-233" on="0"/>
        <pt x="218" y="-221" on="1"/>
        <pt x="248" y="-163" on="1"/>
        <pt x="282" y="-180" on="0"/>
        <pt x="314" y="-180" on="1"/>
        <pt x="371" y="-180" on="0"/>
        <pt x="371" y="-142" on="1"/>
        <pt x="371" y="-119" on="0"/>
        <pt x="328" y="-103" on="0"/>
        <pt x="283" y="-103" on="1"/>
        <pt x="291" y="-9" on="1"/>
        <pt x="192" y="6" on="0"/>
        <pt x="83" y="149" on="0"/>
        <pt x="83" y="261" on="1"/>
        <pt x="83" y="342" on="0"/>
        <pt x="145" y="469" on="0"/>
        <pt x="262" y="542" on="0"/>
        <pt x="342" y="542" on="1"/>
        <pt x="447" y="542" on="0"/>
        <pt x="525" y="479" on="1"/>
        <pt x="473" y="406" on="1"/>
        <pt x="410" y="452" on="0"/>
        <pt x="344" y="452" on="1"/>
        <pt x="278" y="452" on="0"/>
        <pt x="202" y="357" on="0"/>
        <pt x="202" y="261" on="1"/>
        <pt x="202" y="167" on="0"/>
        <pt x="279" y="79" on="0"/>
        <pt x="344" y="79" on="1"/>
        <pt x="409" y="79" on="0"/>
        <pt x="474" y="127" on="1"/>
        <pt x="526" y="52" on="1"/>
        <pt x="494" y="25" on="0"/>
        <pt x="409" y="-8" on="0"/>
        <pt x="363" y="-12" on="1"/>
        <pt x="363" y="-54" on="1"/>
      </contour>
    </TTGlyph>
    <TTGlyph name="ccircumflex" xMin="83" yMin="-13" xMax="526" yMax="789">
      <component glyphName="c" x="0" y="0" flags="0x0"/>
      <component glyphName="circumflex" x="44" y="-10" flags="0x0"/>
    </TTGlyph>
    <TTGlyph name="cdotaccent" xMin="83" yMin="-13" xMax="526" yMax="777">
      <component glyphName="c" x="0" y="0" flags="0x0"/>
      <component glyphName="dotaccent" x="44" y="-10" flags="0x0"/>
    </TTGlyph>
    <TTGlyph name="cedilla" xMin="179" yMin="-248" xMax="421" yMax="16">
      <contour>
        <pt x="332" y="-119" on="0"/>
        <pt x="289" y="-103" on="0"/>
        <pt x="244" y="-103" on="1"/>
        <pt x="254" y="16" on="1"/>
        <pt x="324" y="16" on="1"/>
        <pt x="324" y="-54" on="1"/>
        <pt x="372" y="-58" on="0"/>
        <pt x="421" y="-107" on="0"/>
        <pt x="421" y="-143" on="1"/>
        <pt x="421" y="-191" on="0"/>
        <pt x="345" y="-248" on="0"/>
        <pt x="288" y="-248" on="1"/>
        <pt x="257" y="-248" on="0"/>
        <pt x="200" y="-233" on="0"/>
        <pt x="179" y="-221" on="1"/>
        <pt x="209" y="-163" on="1"/>
        <pt x="243" y="-180" on="0"/>
        <pt x="275" y="-180" on="1"/>
        <pt x="332" y="-180" on="0"/>
        <pt x="332" y="-142" on="1"/>
      </contour>
    </TTGlyph>
    <TTGlyph name="cedilla.case" xMin="179" yMin="-248" xMax="421" yMax="16">
      <contour>
        <pt x="332" y="-119" on="0"/>
        <pt x="289" y="-103" on="0"/>
        <pt x="244" y="-103" on="1"/>
        <pt x="254" y="16" on="1"/>
        <pt x="324" y="16" on="1"/>
        <pt x="324" y="-54" on="1"/>
        <pt x="372" y="-58" on="0"/>
        <pt x="421" y="-107" on="0"/>
        <pt x="421" y="-143" on="1"/>
        <pt x="421" y="-191" on="0"/>
        <pt x="345" y="-248" on="0"/>
        <pt x="288" y="-248" on="1"/>
        <pt x="257" y="-248" on="0"/>
        <pt x="200" y="-233" on="0"/>
        <pt x="179" y="-221" on="1"/>
        <pt x="209" y="-163" on="1"/>
        <pt x="243" y="-180" on="0"/>
        <pt x="275" y="-180" on="1"/>
        <pt x="332" y="-180" on="0"/>
        <pt x="332" y="-142" on="1"/>
      </contour>
    </TTGlyph>
    <TTGlyph name="cent" xMin="96" yMin="-156" xMax="505" yMax="686">
      <contour>
        <pt x="449" y="528" on="0"/>
        <pt x="505" y="482" on="1"/>
        <pt x="452" y="412" on="1"/>
        <pt x="422" y="434" on="0"/>
        <pt x="371" y="452" on="0"/>
        <pt x="342" y="452" on="1"/>
        <pt x="281" y="452" on="0"/>
        <pt x="215" y="358" on="0"/>
        <pt x="215" y="261" on="1"/>
        <pt x="215" y="79" on="0"/>
        <pt x="342" y="79" on="1"/>
        <pt x="371" y="79" on="0"/>
        <pt x="422" y="98" on="0"/>
        <pt x="452" y="121" on="1"/>
        <pt x="505" y="46" on="1"/>
        <pt x="452" y="2" on="0"/>
        <pt x="380" y="-9" on="1"/>
        <pt x="380" y="-156" on="1"/>
        <pt x="291" y="-156" on="1"/>
        <pt x="291" y="-7" on="1"/>
        <pt x="196" y="8" on="0"/>
        <pt x="96" y="149" on="0"/>
        <pt x="96" y="261" on="1"/>
        <pt x="96" y="372" on="0"/>
        <pt x="198" y="520" on="0"/>
        <pt x="292" y="535" on="1"/>
        <pt x="292" y="686" on="1"/>
        <pt x="380" y="686" on="1"/>
        <pt x="380" y="537" on="1"/>
      </contour>
    </TTGlyph>
    <TTGlyph name="cent.tosf" xMin="96" yMin="-156" xMax="505" yMax="686">
      <component glyphName="cent" x="0" y="0" flags="0x0"/>
    </TTGlyph>
    <TTGlyph name="chi" xMin="40" yMin="-220" xMax="565" yMax="541">
      <contour>
        <pt x="451" y="-220" on="1"/>
        <pt x="305" y="105" on="1"/>
        <pt x="156" y="-219" on="1"/>
        <pt x="42" y="-201" on="1"/>
        <pt x="241" y="180" on="1"/>
        <pt x="189" y="303" on="0"/>
        <pt x="100" y="444" on="0"/>
        <pt x="40" y="502" on="1"/>
        <pt x="149" y="541" on="1"/>
        <pt x="197" y="488" on="0"/>
        <pt x="270" y="355" on="0"/>
        <pt x="305" y="251" on="1"/>
        <pt x="434" y="539" on="1"/>
        <pt x="545" y="523" on="1"/>
        <pt x="367" y="182" on="1"/>
        <pt x="565" y="-199" on="1"/>
      </contour>
    </TTGlyph>
    <TTGlyph name="circle" xMin="30" yMin="0" xMax="570" yMax="540">
      <contour>
        <pt x="373" y="540" on="0"/>
        <pt x="497" y="467" on="0"/>
        <pt x="570" y="343" on="0"/>
        <pt x="570" y="270" on="1"/>
        <pt x="570" y="196" on="0"/>
        <pt x="497" y="72" on="0"/>
        <pt x="373" y="0" on="0"/>
        <pt x="300" y="0" on="1"/>
        <pt x="226" y="0" on="0"/>
        <pt x="102" y="72" on="0"/>
        <pt x="30" y="196" on="0"/>
        <pt x="30" y="270" on="1"/>
        <pt x="30" y="343" on="0"/>
        <pt x="102" y="467" on="0"/>
        <pt x="226" y="540" on="0"/>
        <pt x="300" y="540" on="1"/>
      </contour>
      <contour>
        <pt x="248" y="460" on="0"/>
        <pt x="161" y="409" on="0"/>
        <pt x="110" y="321" on="0"/>
        <pt x="110" y="270" on="1"/>
        <pt x="110" y="218" on="0"/>
        <pt x="161" y="131" on="0"/>
        <pt x="248" y="80" on="0"/>
        <pt x="300" y="80" on="1"/>
        <pt x="351" y="80" on="0"/>
        <pt x="439" y="131" on="0"/>
        <pt x="490" y="218" on="0"/>
        <pt x="490" y="270" on="1"/>
        <pt x="490" y="321" on="0"/>
        <pt x="438" y="408" on="0"/>
        <pt x="351" y="460" on="0"/>
        <pt x="300" y="460" on="1"/>
      </contour>
    </TTGlyph>
    <TTGlyph name="circumflex" xMin="127" yMin="622" xMax="473" yMax="799">
      <contour>
        <pt x="264" y="799" on="1"/>
        <pt x="336" y="799" on="1"/>
        <pt x="473" y="673" on="1"/>
        <pt x="428" y="622" on="1"/>
        <pt x="301" y="714" on="1"/>
        <pt x="173" y="622" on="1"/>
        <pt x="127" y="673" on="1"/>
      </contour>
    </TTGlyph>
    <TTGlyph name="circumflex.case" xMin="127" yMin="756" xMax="473" yMax="923">
      <contour>
        <pt x="429" y="756" on="1"/>
        <pt x="300" y="838" on="1"/>
        <pt x="172" y="756" on="1"/>
        <pt x="127" y="807" on="1"/>
        <pt x="264" y="923" on="1"/>
        <pt x="336" y="923" on="1"/>
        <pt x="473" y="807" on="1"/>
      </contour>
    </TTGlyph>
    <TTGlyph name="clear" xMin="-80" yMin="28" xMax="680" yMax="673">
      <contour>
        <pt x="653" y="673" on="0"/>
        <pt x="680" y="646" on="0"/>
        <pt x="680" y="623" on="1"/>
        <pt x="680" y="78" on="1"/>
        <pt x="680" y="56" on="0"/>
        <pt x="653" y="28" on="0"/>
        <pt x="630" y="28" on="1"/>
        <pt x="-30" y="28" on="1"/>
        <pt x="-53" y="28" on="0"/>
        <pt x="-80" y="56" on="0"/>
        <pt x="-80" y="78" on="1"/>
        <pt x="-80" y="623" on="1"/>
        <pt x="-80" y="646" on="0"/>
        <pt x="-53" y="673" on="0"/>
        <pt x="-30" y="673" on="1"/>
        <pt x="630" y="673" on="1"/>
      </contour>
      <contour>
        <pt x="166" y="557" on="1"/>
        <pt x="99" y="488" on="1"/>
        <pt x="233" y="355" on="1"/>
        <pt x="99" y="221" on="1"/>
        <pt x="166" y="154" on="1"/>
        <pt x="300" y="288" on="1"/>
        <pt x="434" y="154" on="1"/>
        <pt x="501" y="221" on="1"/>
        <pt x="367" y="355" on="1"/>
        <pt x="501" y="488" on="1"/>
        <pt x="434" y="557" on="1"/>
        <pt x="300" y="422" on="1"/>
      </contour>
    </TTGlyph>
    <TTGlyph name="club" xMin="70" yMin="0" xMax="530" yMax="539">
      <contour>
        <pt x="356" y="539" on="0"/>
        <pt x="420" y="491" on="0"/>
        <pt x="420" y="444" on="1"/>
        <pt x="420" y="408" on="0"/>
        <pt x="392" y="363" on="0"/>
        <pt x="366" y="342" on="1"/>
        <pt x="386" y="351" on="0"/>
        <pt x="411" y="356" on="0"/>
        <pt x="433" y="356" on="1"/>
        <pt x="480" y="356" on="0"/>
        <pt x="530" y="295" on="0"/>
        <pt x="530" y="239" on="1"/>
        <pt x="530" y="193" on="0"/>
        <pt x="471" y="134" on="0"/>
        <pt x="426" y="134" on="1"/>
        <pt x="390" y="134" on="0"/>
        <pt x="338" y="166" on="0"/>
        <pt x="318" y="200" on="1"/>
        <pt x="334" y="65" on="1"/>
        <pt x="490" y="65" on="1"/>
        <pt x="530" y="0" on="1"/>
        <pt x="70" y="0" on="1"/>
        <pt x="110" y="65" on="1"/>
        <pt x="266" y="65" on="1"/>
        <pt x="282" y="200" on="1"/>
        <pt x="261" y="166" on="0"/>
        <pt x="209" y="134" on="0"/>
        <pt x="174" y="134" on="1"/>
        <pt x="129" y="134" on="0"/>
        <pt x="70" y="193" on="0"/>
        <pt x="70" y="239" on="1"/>
        <pt x="70" y="295" on="0"/>
        <pt x="120" y="356" on="0"/>
        <pt x="167" y="356" on="1"/>
        <pt x="189" y="356" on="0"/>
        <pt x="214" y="351" on="0"/>
        <pt x="234" y="342" on="1"/>
        <pt x="208" y="363" on="0"/>
        <pt x="180" y="408" on="0"/>
        <pt x="180" y="444" on="1"/>
        <pt x="180" y="491" on="0"/>
        <pt x="244" y="539" on="0"/>
        <pt x="300" y="539" on="1"/>
      </contour>
    </TTGlyph>
    <TTGlyph name="colon" xMin="209" yMin="-13" xMax="390" yMax="522">
      <contour>
        <pt x="209" y="469" on="0"/>
        <pt x="262" y="522" on="0"/>
        <pt x="299" y="522" on="1"/>
        <pt x="338" y="522" on="0"/>
        <pt x="390" y="469" on="0"/>
        <pt x="390" y="432" on="1"/>
        <pt x="390" y="395" on="0"/>
        <pt x="338" y="342" on="0"/>
        <pt x="299" y="342" on="1"/>
        <pt x="262" y="342" on="0"/>
        <pt x="209" y="395" on="0"/>
        <pt x="209" y="432" on="1"/>
      </contour>
      <contour>
        <pt x="209" y="114" on="0"/>
        <pt x="262" y="166" on="0"/>
        <pt x="299" y="166" on="1"/>
        <pt x="338" y="166" on="0"/>
        <pt x="390" y="114" on="0"/>
        <pt x="390" y="77" on="1"/>
        <pt x="390" y="39" on="0"/>
        <pt x="338" y="-13" on="0"/>
        <pt x="299" y="-13" on="1"/>
        <pt x="262" y="-13" on="0"/>
        <pt x="209" y="40" on="0"/>
        <pt x="209" y="77" on="1"/>
      </contour>
    </TTGlyph>
    <TTGlyph name="comma" xMin="199" yMin="-189" xMax="392" yMax="180">
      <contour>
        <pt x="339" y="180" on="0"/>
        <pt x="392" y="128" on="0"/>
        <pt x="392" y="90" on="1"/>
        <pt x="392" y="68" on="0"/>
        <pt x="379" y="24" on="0"/>
        <pt x="363" y="-12" on="1"/>
        <pt x="286" y="-189" on="1"/>
        <pt x="199" y="-189" on="1"/>
        <pt x="247" y="15" on="1"/>
        <pt x="229" y="27" on="0"/>
        <pt x="209" y="67" on="0"/>
        <pt x="209" y="90" on="1"/>
        <pt x="209" y="128" on="0"/>
        <pt x="262" y="180" on="0"/>
        <pt x="300" y="180" on="1"/>
      </contour>
    </TTGlyph>
    <TTGlyph name="copyright" xMin="21" yMin="112" xMax="579" yMax="751">
      <contour>
        <pt x="387" y="751" on="0"/>
        <pt x="513" y="667" on="0"/>
        <pt x="579" y="521" on="0"/>
        <pt x="579" y="431" on="1"/>
        <pt x="579" y="342" on="0"/>
        <pt x="513" y="196" on="0"/>
        <pt x="387" y="112" on="0"/>
        <pt x="301" y="112" on="1"/>
        <pt x="214" y="112" on="0"/>
        <pt x="87" y="196" on="0"/>
        <pt x="21" y="341" on="0"/>
        <pt x="21" y="431" on="1"/>
        <pt x="21" y="521" on="0"/>
        <pt x="88" y="666" on="0"/>
        <pt x="215" y="751" on="0"/>
        <pt x="301" y="751" on="1"/>
      </contour>
      <contour>
        <pt x="197" y="694" on="0"/>
        <pt x="88" y="546" on="0"/>
        <pt x="88" y="431" on="1"/>
        <pt x="88" y="317" on="0"/>
        <pt x="197" y="170" on="0"/>
        <pt x="301" y="170" on="1"/>
        <pt x="404" y="170" on="0"/>
        <pt x="513" y="317" on="0"/>
        <pt x="513" y="431" on="1"/>
        <pt x="513" y="546" on="0"/>
        <pt x="404" y="694" on="0"/>
        <pt x="301" y="694" on="1"/>
      </contour>
      <contour>
        <pt x="344" y="624" on="0"/>
        <pt x="397" y="604" on="0"/>
        <pt x="423" y="582" on="1"/>
        <pt x="383" y="529" on="1"/>
        <pt x="349" y="556" on="0"/>
        <pt x="313" y="556" on="1"/>
        <pt x="275" y="556" on="0"/>
        <pt x="229" y="495" on="0"/>
        <pt x="229" y="432" on="1"/>
        <pt x="229" y="370" on="0"/>
        <pt x="274" y="310" on="0"/>
        <pt x="313" y="310" on="1"/>
        <pt x="356" y="310" on="0"/>
        <pt x="391" y="342" on="1"/>
        <pt x="428" y="288" on="1"/>
        <pt x="376" y="240" on="0"/>
        <pt x="308" y="240" on="1"/>
        <pt x="232" y="240" on="0"/>
        <pt x="142" y="341" on="0"/>
        <pt x="142" y="432" on="1"/>
        <pt x="142" y="492" on="0"/>
        <pt x="185" y="579" on="0"/>
        <pt x="260" y="624" on="0"/>
        <pt x="307" y="624" on="1"/>
      </contour>
    </TTGlyph>
    <TTGlyph name="currency" xMin="33" yMin="72" xMax="567" yMax="611">
      <contour>
        <pt x="230" y="556" on="0"/>
        <pt x="301" y="556" on="1"/>
        <pt x="369" y="556" on="0"/>
        <pt x="421" y="524" on="1"/>
        <pt x="506" y="610" on="1"/>
        <pt x="567" y="549" on="1"/>
        <pt x="483" y="465" on="1"/>
        <pt x="518" y="413" on="0"/>
        <pt x="518" y="342" on="1"/>
        <pt x="518" y="272" on="0"/>
        <pt x="482" y="218" on="1"/>
        <pt x="567" y="134" on="1"/>
        <pt x="506" y="74" on="1"/>
        <pt x="420" y="158" on="1"/>
        <pt x="369" y="127" on="0"/>
        <pt x="301" y="127" on="1"/>
        <pt x="232" y="127" on="0"/>
        <pt x="179" y="158" on="1"/>
        <pt x="94" y="72" on="1"/>
        <pt x="33" y="133" on="1"/>
        <pt x="119" y="219" on="1"/>
        <pt x="85" y="270" on="0"/>
        <pt x="85" y="342" on="1"/>
        <pt x="85" y="412" on="0"/>
        <pt x="118" y="464" on="1"/>
        <pt x="33" y="550" on="1"/>
        <pt x="94" y="611" on="1"/>
        <pt x="180" y="524" on="1"/>
      </contour>
      <contour>
        <pt x="244" y="473" on="0"/>
        <pt x="184" y="404" on="0"/>
        <pt x="184" y="342" on="1"/>
        <pt x="184" y="279" on="0"/>
        <pt x="244" y="211" on="0"/>
        <pt x="301" y="211" on="1"/>
        <pt x="358" y="211" on="0"/>
        <pt x="417" y="279" on="0"/>
        <pt x="417" y="342" on="1"/>
        <pt x="417" y="404" on="0"/>
        <pt x="358" y="473" on="0"/>
        <pt x="301" y="473" on="1"/>
      </contour>
    </TTGlyph>
    <TTGlyph name="currency.tosf" xMin="33" yMin="72" xMax="567" yMax="611">
      <component glyphName="currency" x="0" y="0" flags="0x0"/>
    </TTGlyph>
    <TTGlyph name="d" xMin="57" yMin="-13" xMax="511" yMax="753">
      <contour>
        <pt x="511" y="0" on="1"/>
        <pt x="412" y="0" on="1"/>
        <pt x="404" y="65" on="1"/>
        <pt x="378" y="27" on="0"/>
        <pt x="302" y="-13" on="0"/>
        <pt x="256" y="-13" on="1"/>
        <pt x="157" y="-13" on="0"/>
        <pt x="57" y="135" on="0"/>
        <pt x="57" y="264" on="1"/>
        <pt x="57" y="345" on="0"/>
        <pt x="107" y="471" on="0"/>
        <pt x="202" y="542" on="0"/>
        <pt x="266" y="542" on="1"/>
        <pt x="347" y="542" on="0"/>
        <pt x="399" y="485" on="1"/>
        <pt x="399" y="753" on="1"/>
        <pt x="511" y="740" on="1"/>
      </contour>
      <contour>
        <pt x="237" y="456" on="0"/>
        <pt x="176" y="361" on="0"/>
        <pt x="176" y="264" on="1"/>
        <pt x="176" y="165" on="0"/>
        <pt x="232" y="73" on="0"/>
        <pt x="286" y="73" on="1"/>
        <pt x="351" y="73" on="0"/>
        <pt x="399" y="148" on="1"/>
        <pt x="399" y="397" on="1"/>
        <pt x="358" y="456" on="0"/>
        <pt x="295" y="456" on="1"/>
      </contour>
    </TTGlyph>
    <TTGlyph name="dagger" xMin="79" yMin="0" xMax="521" yMax="678">
      <contour>
        <pt x="521" y="526" on="1"/>
        <pt x="521" y="434" on="1"/>
        <pt x="353" y="434" on="1"/>
        <pt x="353" y="0" on="1"/>
        <pt x="247" y="0" on="1"/>
        <pt x="247" y="434" on="1"/>
        <pt x="79" y="434" on="1"/>
        <pt x="79" y="526" on="1"/>
        <pt x="247" y="526" on="1"/>
        <pt x="247" y="678" on="1"/>
        <pt x="353" y="678" on="1"/>
        <pt x="353" y="526" on="1"/>
      </contour>
    </TTGlyph>
    <TTGlyph name="dagger.tosf" xMin="77" yMin="0" xMax="519" yMax="678">
      <component glyphName="dagger" x="-2" y="0" flags="0x0"/>
    </TTGlyph>
    <TTGlyph name="daggerdbl" xMin="79" yMin="0" xMax="521" yMax="678">
      <contour>
        <pt x="521" y="521" on="1"/>
        <pt x="521" y="429" on="1"/>
        <pt x="353" y="429" on="1"/>
        <pt x="353" y="247" on="1"/>
        <pt x="521" y="247" on="1"/>
        <pt x="521" y="155" on="1"/>
        <pt x="353" y="155" on="1"/>
        <pt x="353" y="0" on="1"/>
        <pt x="247" y="0" on="1"/>
        <pt x="247" y="155" on="1"/>
        <pt x="79" y="155" on="1"/>
        <pt x="79" y="247" on="1"/>
        <pt x="247" y="247" on="1"/>
        <pt x="247" y="429" on="1"/>
        <pt x="79" y="429" on="1"/>
        <pt x="79" y="521" on="1"/>
        <pt x="247" y="521" on="1"/>
        <pt x="247" y="678" on="1"/>
        <pt x="353" y="678" on="1"/>
        <pt x="353" y="521" on="1"/>
      </contour>
    </TTGlyph>
    <TTGlyph name="daggerdbl.tosf" xMin="77" yMin="0" xMax="519" yMax="678">
      <component glyphName="daggerdbl" x="-2" y="0" flags="0x0"/>
    </TTGlyph>
    <TTGlyph name="dcaron" xMin="24" yMin="-13" xMax="644" yMax="754">
      <component glyphName="d" x="-32" y="0" flags="0x0"/>
      <component glyphName="caron.alt" x="271" y="50" flags="0x0"/>
    </TTGlyph>
    <TTGlyph name="dcroat" xMin="52" yMin="-13" xMax="585" yMax="753">
      <contour>
        <pt x="506" y="596" on="1"/>
        <pt x="506" y="0" on="1"/>
        <pt x="406" y="0" on="1"/>
        <pt x="398" y="65" on="1"/>
        <pt x="372" y="27" on="0"/>
        <pt x="296" y="-13" on="0"/>
        <pt x="250" y="-13" on="1"/>
        <pt x="151" y="-13" on="0"/>
        <pt x="52" y="135" on="0"/>
        <pt x="52" y="264" on="1"/>
        <pt x="52" y="345" on="0"/>
        <pt x="102" y="471" on="0"/>
        <pt x="196" y="542" on="0"/>
        <pt x="260" y="542" on="1"/>
        <pt x="341" y="542" on="0"/>
        <pt x="393" y="485" on="1"/>
        <pt x="393" y="596" on="1"/>
        <pt x="241" y="596" on="1"/>
        <pt x="241" y="673" on="1"/>
        <pt x="393" y="673" on="1"/>
        <pt x="393" y="753" on="1"/>
        <pt x="506" y="740" on="1"/>
        <pt x="506" y="673" on="1"/>
        <pt x="585" y="673" on="1"/>
        <pt x="585" y="596" on="1"/>
      </contour>
      <contour>
        <pt x="352" y="456" on="0"/>
        <pt x="290" y="456" on="1"/>
        <pt x="232" y="456" on="0"/>
        <pt x="170" y="361" on="0"/>
        <pt x="170" y="264" on="1"/>
        <pt x="170" y="73" on="0"/>
        <pt x="280" y="73" on="1"/>
        <pt x="347" y="73" on="0"/>
        <pt x="393" y="148" on="1"/>
        <pt x="393" y="397" on="1"/>
      </contour>
    </TTGlyph>
    <TTGlyph name="degree" xMin="68" yMin="429" xMax="404" yMax="753">
      <contour>
        <pt x="279" y="753" on="0"/>
        <pt x="357" y="714" on="0"/>
        <pt x="404" y="640" on="0"/>
        <pt x="404" y="591" on="1"/>
        <pt x="404" y="542" on="0"/>
        <pt x="357" y="468" on="0"/>
        <pt x="279" y="429" on="0"/>
        <pt x="236" y="429" on="1"/>
        <pt x="193" y="429" on="0"/>
        <pt x="116" y="468" on="0"/>
        <pt x="68" y="543" on="0"/>
        <pt x="68" y="592" on="1"/>
        <pt x="68" y="641" on="0"/>
        <pt x="116" y="714" on="0"/>
        <pt x="193" y="753" on="0"/>
        <pt x="236" y="753" on="1"/>
      </contour>
      <contour>
        <pt x="201" y="681" on="0"/>
        <pt x="154" y="634" on="0"/>
        <pt x="154" y="592" on="1"/>
        <pt x="154" y="550" on="0"/>
        <pt x="201" y="502" on="0"/>
        <pt x="236" y="502" on="1"/>
        <pt x="271" y="502" on="0"/>
        <pt x="318" y="549" on="0"/>
        <pt x="318" y="591" on="1"/>
        <pt x="318" y="634" on="0"/>
        <pt x="271" y="681" on="0"/>
        <pt x="236" y="681" on="1"/>
      </contour>
    </TTGlyph>
    <TTGlyph name="degree.tosf" xMin="68" yMin="429" xMax="404" yMax="753">
      <component glyphName="degree" x="0" y="0" flags="0x0"/>
    </TTGlyph>
    <TTGlyph name="deleterightKey" xMin="-80" yMin="28" xMax="740" yMax="673">
      <contour>
        <pt x="400" y="28" on="1"/>
        <pt x="-30" y="28" on="1"/>
        <pt x="-53" y="28" on="0"/>
        <pt x="-80" y="56" on="0"/>
        <pt x="-80" y="78" on="1"/>
        <pt x="-80" y="623" on="1"/>
        <pt x="-80" y="646" on="0"/>
        <pt x="-53" y="673" on="0"/>
        <pt x="-30" y="673" on="1"/>
        <pt x="400" y="673" on="1"/>
        <pt x="740" y="352" on="1"/>
      </contour>
      <contour>
        <pt x="86" y="557" on="1"/>
        <pt x="19" y="488" on="1"/>
        <pt x="153" y="355" on="1"/>
        <pt x="19" y="221" on="1"/>
        <pt x="86" y="154" on="1"/>
        <pt x="220" y="288" on="1"/>
        <pt x="354" y="154" on="1"/>
        <pt x="421" y="221" on="1"/>
        <pt x="287" y="355" on="1"/>
        <pt x="421" y="488" on="1"/>
        <pt x="354" y="557" on="1"/>
        <pt x="220" y="422" on="1"/>
      </contour>
    </TTGlyph>
    <TTGlyph name="delta" xMin="58" yMin="-13" xMax="547" yMax="753">
      <contour>
        <pt x="418" y="753" on="0"/>
        <pt x="494" y="692" on="1"/>
        <pt x="439" y="628" on="1"/>
        <pt x="408" y="651" on="0"/>
        <pt x="351" y="670" on="0"/>
        <pt x="317" y="670" on="1"/>
        <pt x="277" y="670" on="0"/>
        <pt x="233" y="638" on="0"/>
        <pt x="233" y="610" on="1"/>
        <pt x="233" y="589" on="0"/>
        <pt x="252" y="562" on="0"/>
        <pt x="296" y="538" on="0"/>
        <pt x="342" y="520" on="1"/>
        <pt x="415" y="490" on="0"/>
        <pt x="503" y="420" on="0"/>
        <pt x="547" y="319" on="0"/>
        <pt x="547" y="245" on="1"/>
        <pt x="547" y="173" on="0"/>
        <pt x="487" y="55" on="0"/>
        <pt x="376" y="-13" on="0"/>
        <pt x="302" y="-13" on="1"/>
        <pt x="227" y="-13" on="0"/>
        <pt x="117" y="53" on="0"/>
        <pt x="58" y="170" on="0"/>
        <pt x="58" y="243" on="1"/>
        <pt x="58" y="326" on="0"/>
        <pt x="143" y="446" on="0"/>
        <pt x="216" y="476" on="1"/>
        <pt x="162" y="503" on="0"/>
        <pt x="118" y="564" on="0"/>
        <pt x="118" y="609" on="1"/>
        <pt x="118" y="676" on="0"/>
        <pt x="226" y="753" on="0"/>
        <pt x="318" y="753" on="1"/>
      </contour>
      <contour>
        <pt x="228" y="411" on="0"/>
        <pt x="177" y="316" on="0"/>
        <pt x="177" y="245" on="1"/>
        <pt x="177" y="163" on="0"/>
        <pt x="242" y="73" on="0"/>
        <pt x="302" y="73" on="1"/>
        <pt x="363" y="73" on="0"/>
        <pt x="428" y="161" on="0"/>
        <pt x="428" y="246" on="1"/>
        <pt x="428" y="302" on="0"/>
        <pt x="403" y="371" on="0"/>
        <pt x="344" y="419" on="0"/>
        <pt x="288" y="443" on="1"/>
      </contour>
    </TTGlyph>
    <TTGlyph name="diamond" xMin="104" yMin="-12" xMax="496" yMax="539">
      <contour>
        <pt x="300" y="-12" on="1"/>
        <pt x="104" y="266" on="1"/>
        <pt x="300" y="539" on="1"/>
        <pt x="496" y="266" on="1"/>
      </contour>
    </TTGlyph>
    <TTGlyph name="dieresis" xMin="126" yMin="644" xMax="473" yMax="771">
      <contour>
        <pt x="164" y="644" on="0"/>
        <pt x="126" y="680" on="0"/>
        <pt x="126" y="708" on="1"/>
        <pt x="126" y="735" on="0"/>
        <pt x="164" y="771" on="0"/>
        <pt x="192" y="771" on="1"/>
        <pt x="219" y="771" on="0"/>
        <pt x="257" y="735" on="0"/>
        <pt x="257" y="708" on="1"/>
        <pt x="257" y="681" on="0"/>
        <pt x="219" y="644" on="0"/>
        <pt x="192" y="644" on="1"/>
      </contour>
      <contour>
        <pt x="381" y="644" on="0"/>
        <pt x="343" y="681" on="0"/>
        <pt x="343" y="708" on="1"/>
        <pt x="343" y="735" on="0"/>
        <pt x="381" y="771" on="0"/>
        <pt x="408" y="771" on="1"/>
        <pt x="436" y="771" on="0"/>
        <pt x="473" y="735" on="0"/>
        <pt x="473" y="708" on="1"/>
        <pt x="473" y="680" on="0"/>
        <pt x="436" y="644" on="0"/>
        <pt x="408" y="644" on="1"/>
      </contour>
    </TTGlyph>
    <TTGlyph name="dieresis.case" xMin="128" yMin="766" xMax="475" yMax="893">
      <contour>
        <pt x="165" y="766" on="0"/>
        <pt x="128" y="802" on="0"/>
        <pt x="128" y="829" on="1"/>
        <pt x="128" y="857" on="0"/>
        <pt x="165" y="893" on="0"/>
        <pt x="193" y="893" on="1"/>
        <pt x="221" y="893" on="0"/>
        <pt x="258" y="857" on="0"/>
        <pt x="258" y="829" on="1"/>
        <pt x="258" y="802" on="0"/>
        <pt x="221" y="766" on="0"/>
        <pt x="193" y="766" on="1"/>
      </contour>
      <contour>
        <pt x="382" y="766" on="0"/>
        <pt x="344" y="802" on="0"/>
        <pt x="344" y="829" on="1"/>
        <pt x="344" y="856" on="0"/>
        <pt x="382" y="893" on="0"/>
        <pt x="409" y="893" on="1"/>
        <pt x="437" y="893" on="0"/>
        <pt x="475" y="857" on="0"/>
        <pt x="475" y="829" on="1"/>
        <pt x="475" y="802" on="0"/>
        <pt x="437" y="766" on="0"/>
        <pt x="409" y="766" on="1"/>
      </contour>
    </TTGlyph>
    <TTGlyph name="dieresistonos" xMin="115" yMin="611" xMax="485" yMax="919">
      <contour>
        <pt x="336" y="723" on="1"/>
        <pt x="261" y="734" on="1"/>
        <pt x="290" y="919" on="1"/>
        <pt x="401" y="900" on="1"/>
      </contour>
      <contour>
        <pt x="206" y="736" on="0"/>
        <pt x="243" y="700" on="0"/>
        <pt x="243" y="673" on="1"/>
        <pt x="243" y="647" on="0"/>
        <pt x="206" y="611" on="0"/>
        <pt x="180" y="611" on="1"/>
        <pt x="152" y="611" on="0"/>
        <pt x="115" y="647" on="0"/>
        <pt x="115" y="673" on="1"/>
        <pt x="115" y="700" on="0"/>
        <pt x="152" y="736" on="0"/>
        <pt x="180" y="736" on="1"/>
      </contour>
      <contour>
        <pt x="448" y="736" on="0"/>
        <pt x="485" y="700" on="0"/>
        <pt x="485" y="673" on="1"/>
        <pt x="485" y="647" on="0"/>
        <pt x="448" y="611" on="0"/>
        <pt x="420" y="611" on="1"/>
        <pt x="393" y="611" on="0"/>
        <pt x="356" y="647" on="0"/>
        <pt x="356" y="673" on="1"/>
        <pt x="356" y="700" on="0"/>
        <pt x="393" y="736" on="0"/>
        <pt x="420" y="736" on="1"/>
      </contour>
    </TTGlyph>
    <TTGlyph name="divide" xMin="103" yMin="35" xMax="497" yMax="593">
      <contour>
        <pt x="332" y="593" on="0"/>
        <pt x="376" y="549" on="0"/>
        <pt x="376" y="518" on="1"/>
        <pt x="376" y="486" on="0"/>
        <pt x="332" y="442" on="0"/>
        <pt x="300" y="442" on="1"/>
        <pt x="268" y="442" on="0"/>
        <pt x="224" y="486" on="0"/>
        <pt x="224" y="518" on="1"/>
        <pt x="224" y="549" on="0"/>
        <pt x="268" y="593" on="0"/>
        <pt x="300" y="593" on="1"/>
      </contour>
      <contour>
        <pt x="103" y="269" on="1"/>
        <pt x="103" y="360" on="1"/>
        <pt x="497" y="360" on="1"/>
        <pt x="497" y="269" on="1"/>
      </contour>
      <contour>
        <pt x="332" y="187" on="0"/>
        <pt x="376" y="143" on="0"/>
        <pt x="376" y="112" on="1"/>
        <pt x="376" y="80" on="0"/>
        <pt x="332" y="35" on="0"/>
        <pt x="300" y="35" on="1"/>
        <pt x="268" y="35" on="0"/>
        <pt x="224" y="80" on="0"/>
        <pt x="224" y="112" on="1"/>
        <pt x="224" y="143" on="0"/>
        <pt x="268" y="187" on="0"/>
        <pt x="300" y="187" on="1"/>
      </contour>
    </TTGlyph>
    <TTGlyph name="divide.tosf" xMin="103" yMin="35" xMax="497" yMax="593">
      <component glyphName="divide" x="0" y="0" flags="0x0"/>
    </TTGlyph>
    <TTGlyph name="divisionslash" xMin="-285" yMin="181" xMax="285" yMax="499">
      <component glyphName="fraction" x="0" y="0" flags="0x0"/>
    </TTGlyph>
    <TTGlyph name="dkshade" xMin="0" yMin="-500" xMax="600" yMax="1000">
      <contour>
        <pt x="550" y="925" on="1"/>
        <pt x="550" y="850" on="1"/>
        <pt x="600" y="850" on="1"/>
        <pt x="600" y="775" on="1"/>
        <pt x="550" y="775" on="1"/>
        <pt x="550" y="700" on="1"/>
        <pt x="600" y="700" on="1"/>
        <pt x="600" y="625" on="1"/>
        <pt x="550" y="625" on="1"/>
        <pt x="550" y="550" on="1"/>
        <pt x="600" y="550" on="1"/>
        <pt x="600" y="475" on="1"/>
        <pt x="550" y="475" on="1"/>
        <pt x="550" y="400" on="1"/>
        <pt x="600" y="400" on="1"/>
        <pt x="600" y="325" on="1"/>
        <pt x="550" y="325" on="1"/>
        <pt x="550" y="250" on="1"/>
        <pt x="600" y="250" on="1"/>
        <pt x="600" y="175" on="1"/>
        <pt x="550" y="175" on="1"/>
        <pt x="550" y="100" on="1"/>
        <pt x="600" y="100" on="1"/>
        <pt x="600" y="25" on="1"/>
        <pt x="550" y="25" on="1"/>
        <pt x="550" y="-50" on="1"/>
        <pt x="600" y="-50" on="1"/>
        <pt x="600" y="-125" on="1"/>
        <pt x="550" y="-125" on="1"/>
        <pt x="550" y="-200" on="1"/>
        <pt x="600" y="-200" on="1"/>
        <pt x="600" y="-275" on="1"/>
        <pt x="550" y="-275" on="1"/>
        <pt x="550" y="-350" on="1"/>
        <pt x="600" y="-350" on="1"/>
        <pt x="600" y="-425" on="1"/>
        <pt x="550" y="-425" on="1"/>
        <pt x="550" y="-500" on="1"/>
        <pt x="500" y="-500" on="1"/>
        <pt x="500" y="-425" on="1"/>
        <pt x="450" y="-425" on="1"/>
        <pt x="450" y="-500" on="1"/>
        <pt x="400" y="-500" on="1"/>
        <pt x="400" y="-425" on="1"/>
        <pt x="350" y="-425" on="1"/>
        <pt x="350" y="-500" on="1"/>
        <pt x="300" y="-500" on="1"/>
        <pt x="300" y="-425" on="1"/>
        <pt x="250" y="-425" on="1"/>
        <pt x="250" y="-500" on="1"/>
        <pt x="200" y="-500" on="1"/>
        <pt x="200" y="-425" on="1"/>
        <pt x="150" y="-425" on="1"/>
        <pt x="150" y="-500" on="1"/>
        <pt x="100" y="-500" on="1"/>
        <pt x="100" y="-425" on="1"/>
        <pt x="50" y="-425" on="1"/>
        <pt x="50" y="-500" on="1"/>
        <pt x="0" y="-500" on="1"/>
        <pt x="0" y="1000" on="1"/>
        <pt x="600" y="1000" on="1"/>
        <pt x="600" y="925" on="1"/>
      </contour>
      <contour>
        <pt x="50" y="850" on="1"/>
        <pt x="100" y="850" on="1"/>
        <pt x="100" y="925" on="1"/>
        <pt x="50" y="925" on="1"/>
      </contour>
      <contour>
        <pt x="150" y="850" on="1"/>
        <pt x="200" y="850" on="1"/>
        <pt x="200" y="925" on="1"/>
        <pt x="150" y="925" on="1"/>
      </contour>
      <contour>
        <pt x="250" y="850" on="1"/>
        <pt x="300" y="850" on="1"/>
        <pt x="300" y="925" on="1"/>
        <pt x="250" y="925" on="1"/>
      </contour>
      <contour>
        <pt x="350" y="850" on="1"/>
        <pt x="400" y="850" on="1"/>
        <pt x="400" y="925" on="1"/>
        <pt x="350" y="925" on="1"/>
      </contour>
      <contour>
        <pt x="450" y="850" on="1"/>
        <pt x="500" y="850" on="1"/>
        <pt x="500" y="925" on="1"/>
        <pt x="450" y="925" on="1"/>
      </contour>
      <contour>
        <pt x="50" y="700" on="1"/>
        <pt x="100" y="700" on="1"/>
        <pt x="100" y="775" on="1"/>
        <pt x="50" y="775" on="1"/>
      </contour>
      <contour>
        <pt x="150" y="700" on="1"/>
        <pt x="200" y="700" on="1"/>
        <pt x="200" y="775" on="1"/>
        <pt x="150" y="775" on="1"/>
      </contour>
      <contour>
        <pt x="250" y="700" on="1"/>
        <pt x="300" y="700" on="1"/>
        <pt x="300" y="775" on="1"/>
        <pt x="250" y="775" on="1"/>
      </contour>
      <contour>
        <pt x="350" y="700" on="1"/>
        <pt x="400" y="700" on="1"/>
        <pt x="400" y="775" on="1"/>
        <pt x="350" y="775" on="1"/>
      </contour>
      <contour>
        <pt x="450" y="700" on="1"/>
        <pt x="500" y="700" on="1"/>
        <pt x="500" y="775" on="1"/>
        <pt x="450" y="775" on="1"/>
      </contour>
      <contour>
        <pt x="50" y="550" on="1"/>
        <pt x="100" y="550" on="1"/>
        <pt x="100" y="625" on="1"/>
        <pt x="50" y="625" on="1"/>
      </contour>
      <contour>
        <pt x="150" y="550" on="1"/>
        <pt x="200" y="550" on="1"/>
        <pt x="200" y="625" on="1"/>
        <pt x="150" y="625" on="1"/>
      </contour>
      <contour>
        <pt x="250" y="550" on="1"/>
        <pt x="300" y="550" on="1"/>
        <pt x="300" y="625" on="1"/>
        <pt x="250" y="625" on="1"/>
      </contour>
      <contour>
        <pt x="350" y="550" on="1"/>
        <pt x="400" y="550" on="1"/>
        <pt x="400" y="625" on="1"/>
        <pt x="350" y="625" on="1"/>
      </contour>
      <contour>
        <pt x="450" y="550" on="1"/>
        <pt x="500" y="550" on="1"/>
        <pt x="500" y="625" on="1"/>
        <pt x="450" y="625" on="1"/>
      </contour>
      <contour>
        <pt x="50" y="400" on="1"/>
        <pt x="100" y="400" on="1"/>
        <pt x="100" y="475" on="1"/>
        <pt x="50" y="475" on="1"/>
      </contour>
      <contour>
        <pt x="150" y="400" on="1"/>
        <pt x="200" y="400" on="1"/>
        <pt x="200" y="475" on="1"/>
        <pt x="150" y="475" on="1"/>
      </contour>
      <contour>
        <pt x="250" y="400" on="1"/>
        <pt x="300" y="400" on="1"/>
        <pt x="300" y="475" on="1"/>
        <pt x="250" y="475" on="1"/>
      </contour>
      <contour>
        <pt x="350" y="400" on="1"/>
        <pt x="400" y="400" on="1"/>
        <pt x="400" y="475" on="1"/>
        <pt x="350" y="475" on="1"/>
      </contour>
      <contour>
        <pt x="450" y="400" on="1"/>
        <pt x="500" y="400" on="1"/>
        <pt x="500" y="475" on="1"/>
        <pt x="450" y="475" on="1"/>
      </contour>
      <contour>
        <pt x="50" y="250" on="1"/>
        <pt x="100" y="250" on="1"/>
        <pt x="100" y="325" on="1"/>
        <pt x="50" y="325" on="1"/>
      </contour>
      <contour>
        <pt x="150" y="250" on="1"/>
        <pt x="200" y="250" on="1"/>
        <pt x="200" y="325" on="1"/>
        <pt x="150" y="325" on="1"/>
      </contour>
      <contour>
        <pt x="250" y="250" on="1"/>
        <pt x="300" y="250" on="1"/>
        <pt x="300" y="325" on="1"/>
        <pt x="250" y="325" on="1"/>
      </contour>
      <contour>
        <pt x="350" y="250" on="1"/>
        <pt x="400" y="250" on="1"/>
        <pt x="400" y="325" on="1"/>
        <pt x="350" y="325" on="1"/>
      </contour>
      <contour>
        <pt x="450" y="250" on="1"/>
        <pt x="500" y="250" on="1"/>
        <pt x="500" y="325" on="1"/>
        <pt x="450" y="325" on="1"/>
      </contour>
      <contour>
        <pt x="50" y="100" on="1"/>
        <pt x="100" y="100" on="1"/>
        <pt x="100" y="175" on="1"/>
        <pt x="50" y="175" on="1"/>
      </contour>
      <contour>
        <pt x="150" y="100" on="1"/>
        <pt x="200" y="100" on="1"/>
        <pt x="200" y="175" on="1"/>
        <pt x="150" y="175" on="1"/>
      </contour>
      <contour>
        <pt x="250" y="100" on="1"/>
        <pt x="300" y="100" on="1"/>
        <pt x="300" y="175" on="1"/>
        <pt x="250" y="175" on="1"/>
      </contour>
      <contour>
        <pt x="350" y="100" on="1"/>
        <pt x="400" y="100" on="1"/>
        <pt x="400" y="175" on="1"/>
        <pt x="350" y="175" on="1"/>
      </contour>
      <contour>
        <pt x="450" y="100" on="1"/>
        <pt x="500" y="100" on="1"/>
        <pt x="500" y="175" on="1"/>
        <pt x="450" y="175" on="1"/>
      </contour>
      <contour>
        <pt x="50" y="-50" on="1"/>
        <pt x="100" y="-50" on="1"/>
        <pt x="100" y="25" on="1"/>
        <pt x="50" y="25" on="1"/>
      </contour>
      <contour>
        <pt x="150" y="-50" on="1"/>
        <pt x="200" y="-50" on="1"/>
        <pt x="200" y="25" on="1"/>
        <pt x="150" y="25" on="1"/>
      </contour>
      <contour>
        <pt x="250" y="-50" on="1"/>
        <pt x="300" y="-50" on="1"/>
        <pt x="300" y="25" on="1"/>
        <pt x="250" y="25" on="1"/>
      </contour>
      <contour>
        <pt x="350" y="-50" on="1"/>
        <pt x="400" y="-50" on="1"/>
        <pt x="400" y="25" on="1"/>
        <pt x="350" y="25" on="1"/>
      </contour>
      <contour>
        <pt x="450" y="-50" on="1"/>
        <pt x="500" y="-50" on="1"/>
        <pt x="500" y="25" on="1"/>
        <pt x="450" y="25" on="1"/>
      </contour>
      <contour>
        <pt x="50" y="-200" on="1"/>
        <pt x="100" y="-200" on="1"/>
        <pt x="100" y="-125" on="1"/>
        <pt x="50" y="-125" on="1"/>
      </contour>
      <contour>
        <pt x="150" y="-200" on="1"/>
        <pt x="200" y="-200" on="1"/>
        <pt x="200" y="-125" on="1"/>
        <pt x="150" y="-125" on="1"/>
      </contour>
      <contour>
        <pt x="250" y="-200" on="1"/>
        <pt x="300" y="-200" on="1"/>
        <pt x="300" y="-125" on="1"/>
        <pt x="250" y="-125" on="1"/>
      </contour>
      <contour>
        <pt x="350" y="-200" on="1"/>
        <pt x="400" y="-200" on="1"/>
        <pt x="400" y="-125" on="1"/>
        <pt x="350" y="-125" on="1"/>
      </contour>
      <contour>
        <pt x="450" y="-200" on="1"/>
        <pt x="500" y="-200" on="1"/>
        <pt x="500" y="-125" on="1"/>
        <pt x="450" y="-125" on="1"/>
      </contour>
      <contour>
        <pt x="50" y="-350" on="1"/>
        <pt x="100" y="-350" on="1"/>
        <pt x="100" y="-275" on="1"/>
        <pt x="50" y="-275" on="1"/>
      </contour>
      <contour>
        <pt x="150" y="-350" on="1"/>
        <pt x="200" y="-350" on="1"/>
        <pt x="200" y="-275" on="1"/>
        <pt x="150" y="-275" on="1"/>
      </contour>
      <contour>
        <pt x="250" y="-350" on="1"/>
        <pt x="300" y="-350" on="1"/>
        <pt x="300" y="-275" on="1"/>
        <pt x="250" y="-275" on="1"/>
      </contour>
      <contour>
        <pt x="350" y="-350" on="1"/>
        <pt x="400" y="-350" on="1"/>
        <pt x="400" y="-275" on="1"/>
        <pt x="350" y="-275" on="1"/>
      </contour>
      <contour>
        <pt x="450" y="-350" on="1"/>
        <pt x="500" y="-350" on="1"/>
        <pt x="500" y="-275" on="1"/>
        <pt x="450" y="-275" on="1"/>
      </contour>
    </TTGlyph>
    <TTGlyph name="dnblock" xMin="0" yMin="-500" xMax="600" yMax="250">
      <contour>
        <pt x="0" y="-500" on="1"/>
        <pt x="0" y="250" on="1"/>
        <pt x="600" y="250" on="1"/>
        <pt x="600" y="-500" on="1"/>
      </contour>
    </TTGlyph>
    <TTGlyph name="dollar" xMin="58" yMin="-156" xMax="546" yMax="851">
      <contour>
        <pt x="456" y="691" on="0"/>
        <pt x="536" y="622" on="1"/>
        <pt x="475" y="559" on="1"/>
        <pt x="418" y="608" on="0"/>
        <pt x="347" y="616" on="1"/>
        <pt x="347" y="409" on="1"/>
        <pt x="442" y="378" on="0"/>
        <pt x="546" y="279" on="0"/>
        <pt x="546" y="195" on="1"/>
        <pt x="546" y="116" on="0"/>
        <pt x="442" y="3" on="0"/>
        <pt x="347" y="-10" on="1"/>
        <pt x="347" y="-156" on="1"/>
        <pt x="274" y="-156" on="1"/>
        <pt x="274" y="-13" on="1"/>
        <pt x="207" y="-8" on="0"/>
        <pt x="97" y="44" on="0"/>
        <pt x="58" y="82" on="1"/>
        <pt x="119" y="150" on="1"/>
        <pt x="190" y="83" on="0"/>
        <pt x="274" y="76" on="1"/>
        <pt x="274" y="326" on="1"/>
        <pt x="177" y="358" on="0"/>
        <pt x="84" y="452" on="0"/>
        <pt x="84" y="522" on="1"/>
        <pt x="84" y="592" on="0"/>
        <pt x="185" y="692" on="0"/>
        <pt x="274" y="701" on="1"/>
        <pt x="274" y="851" on="1"/>
        <pt x="347" y="851" on="1"/>
        <pt x="347" y="702" on="1"/>
      </contour>
      <contour>
        <pt x="237" y="608" on="0"/>
        <pt x="194" y="564" on="0"/>
        <pt x="194" y="529" on="1"/>
        <pt x="194" y="497" on="0"/>
        <pt x="227" y="454" on="0"/>
        <pt x="274" y="434" on="1"/>
        <pt x="274" y="615" on="1"/>
      </contour>
      <contour>
        <pt x="433" y="97" on="0"/>
        <pt x="433" y="187" on="1"/>
        <pt x="433" y="225" on="0"/>
        <pt x="395" y="278" on="0"/>
        <pt x="347" y="300" on="1"/>
        <pt x="347" y="80" on="1"/>
      </contour>
    </TTGlyph>
    <TTGlyph name="dollar.tosf" xMin="58" yMin="-156" xMax="546" yMax="851">
      <component glyphName="dollar" x="0" y="0" flags="0x0"/>
    </TTGlyph>
    <TTGlyph name="dotaccent" xMin="226" yMin="645" xMax="373" yMax="787">
      <contour>
        <pt x="332" y="787" on="0"/>
        <pt x="373" y="747" on="0"/>
        <pt x="373" y="717" on="1"/>
        <pt x="373" y="686" on="0"/>
        <pt x="332" y="645" on="0"/>
        <pt x="299" y="645" on="1"/>
        <pt x="267" y="645" on="0"/>
        <pt x="226" y="686" on="0"/>
        <pt x="226" y="717" on="1"/>
        <pt x="226" y="747" on="0"/>
        <pt x="267" y="787" on="0"/>
        <pt x="299" y="787" on="1"/>
      </contour>
    </TTGlyph>
    <TTGlyph name="dotaccent.case" xMin="228" yMin="767" xMax="375" yMax="908">
      <contour>
        <pt x="334" y="908" on="0"/>
        <pt x="375" y="868" on="0"/>
        <pt x="375" y="838" on="1"/>
        <pt x="375" y="808" on="0"/>
        <pt x="334" y="767" on="0"/>
        <pt x="301" y="767" on="1"/>
        <pt x="269" y="767" on="0"/>
        <pt x="228" y="808" on="0"/>
        <pt x="228" y="838" on="1"/>
        <pt x="228" y="868" on="0"/>
        <pt x="268" y="908" on="0"/>
        <pt x="301" y="908" on="1"/>
      </contour>
    </TTGlyph>
    <TTGlyph name="dotlessi" xMin="107" yMin="0" xMax="521" yMax="528">
      <contour>
        <pt x="521" y="82" on="1"/>
        <pt x="521" y="0" on="1"/>
        <pt x="107" y="0" on="1"/>
        <pt x="107" y="82" on="1"/>
        <pt x="265" y="82" on="1"/>
        <pt x="265" y="446" on="1"/>
        <pt x="112" y="446" on="1"/>
        <pt x="112" y="528" on="1"/>
        <pt x="378" y="528" on="1"/>
        <pt x="378" y="82" on="1"/>
      </contour>
    </TTGlyph>
    <TTGlyph name="e" xMin="66" yMin="-13" xMax="535" yMax="542">
      <contour>
        <pt x="187" y="151" on="0"/>
        <pt x="266" y="74" on="0"/>
        <pt x="326" y="74" on="1"/>
        <pt x="405" y="74" on="0"/>
        <pt x="464" y="123" on="1"/>
        <pt x="513" y="53" on="1"/>
        <pt x="476" y="22" on="0"/>
        <pt x="376" y="-13" on="0"/>
        <pt x="321" y="-13" on="1"/>
        <pt x="200" y="-13" on="0"/>
        <pt x="66" y="138" on="0"/>
        <pt x="66" y="264" on="1"/>
        <pt x="66" y="343" on="0"/>
        <pt x="124" y="470" on="0"/>
        <pt x="232" y="542" on="0"/>
        <pt x="304" y="542" on="1"/>
        <pt x="411" y="542" on="0"/>
        <pt x="535" y="401" on="0"/>
        <pt x="535" y="278" on="1"/>
        <pt x="535" y="248" on="0"/>
        <pt x="532" y="228" on="1"/>
        <pt x="182" y="228" on="1"/>
      </contour>
      <contour>
        <pt x="253" y="459" on="0"/>
        <pt x="187" y="381" on="0"/>
        <pt x="182" y="305" on="1"/>
        <pt x="426" y="305" on="1"/>
        <pt x="424" y="380" on="0"/>
        <pt x="363" y="459" on="0"/>
        <pt x="306" y="459" on="1"/>
      </contour>
    </TTGlyph>
    <TTGlyph name="eacute" xMin="66" yMin="-13" xMax="535" yMax="804">
      <component glyphName="e" x="0" y="0" flags="0x0"/>
      <component glyphName="acute" x="9" y="0" flags="0x0"/>
    </TTGlyph>
    <TTGlyph name="ebreve" xMin="66" yMin="-13" xMax="535" yMax="787">
      <component glyphName="e" x="0" y="0" flags="0x0"/>
      <component glyphName="breve" x="9" y="0" flags="0x0"/>
    </TTGlyph>
    <TTGlyph name="ecaron" xMin="66" yMin="-13" xMax="535" yMax="799">
      <component glyphName="e" x="0" y="0" flags="0x0"/>
      <component glyphName="caron" x="9" y="0" flags="0x0"/>
    </TTGlyph>
    <TTGlyph name="ecircumflex" xMin="66" yMin="-13" xMax="535" yMax="799">
      <component glyphName="e" x="0" y="0" flags="0x0"/>
      <component glyphName="circumflex" x="9" y="0" flags="0x0"/>
    </TTGlyph>
    <TTGlyph name="edieresis" xMin="66" yMin="-13" xMax="535" yMax="771">
      <component glyphName="e" x="0" y="0" flags="0x0"/>
      <component glyphName="dieresis" x="9" y="0" flags="0x0"/>
    </TTGlyph>
    <TTGlyph name="edotaccent" xMin="66" yMin="-13" xMax="535" yMax="787">
      <component glyphName="e" x="0" y="0" flags="0x0"/>
      <component glyphName="dotaccent" x="9" y="0" flags="0x0"/>
    </TTGlyph>
    <TTGlyph name="egrave" xMin="66" yMin="-13" xMax="535" yMax="804">
      <component glyphName="e" x="0" y="0" flags="0x0"/>
      <component glyphName="grave" x="9" y="0" flags="0x0"/>
    </TTGlyph>
    <TTGlyph name="eight" xMin="57" yMin="-13" xMax="543" yMax="704">
      <contour>
        <pt x="516" y="477" on="0"/>
        <pt x="459" y="405" on="0"/>
        <pt x="401" y="372" on="1"/>
        <pt x="470" y="341" on="0"/>
        <pt x="543" y="247" on="0"/>
        <pt x="543" y="186" on="1"/>
        <pt x="543" y="130" on="0"/>
        <pt x="484" y="39" on="0"/>
        <pt x="373" y="-13" on="0"/>
        <pt x="298" y="-13" on="1"/>
        <pt x="222" y="-13" on="0"/>
        <pt x="113" y="39" on="0"/>
        <pt x="57" y="128" on="0"/>
        <pt x="57" y="183" on="1"/>
        <pt x="57" y="301" on="0"/>
        <pt x="191" y="361" on="1"/>
        <pt x="135" y="390" on="0"/>
        <pt x="84" y="463" on="0"/>
        <pt x="84" y="520" on="1"/>
        <pt x="84" y="579" on="0"/>
        <pt x="146" y="662" on="0"/>
        <pt x="245" y="704" on="0"/>
        <pt x="300" y="704" on="1"/>
        <pt x="359" y="704" on="0"/>
        <pt x="457" y="663" on="0"/>
        <pt x="516" y="583" on="0"/>
        <pt x="516" y="526" on="1"/>
      </contour>
      <contour>
        <pt x="193" y="486" on="0"/>
        <pt x="223" y="444" on="0"/>
        <pt x="277" y="417" on="0"/>
        <pt x="325" y="400" on="1"/>
        <pt x="369" y="427" on="0"/>
        <pt x="407" y="481" on="0"/>
        <pt x="407" y="520" on="1"/>
        <pt x="407" y="567" on="0"/>
        <pt x="351" y="622" on="0"/>
        <pt x="300" y="622" on="1"/>
        <pt x="249" y="622" on="0"/>
        <pt x="193" y="568" on="0"/>
        <pt x="193" y="519" on="1"/>
      </contour>
      <contour>
        <pt x="428" y="225" on="0"/>
        <pt x="390" y="276" on="0"/>
        <pt x="325" y="308" on="0"/>
        <pt x="264" y="329" on="1"/>
        <pt x="172" y="282" on="0"/>
        <pt x="172" y="187" on="1"/>
        <pt x="172" y="133" on="0"/>
        <pt x="237" y="72" on="0"/>
        <pt x="299" y="72" on="1"/>
        <pt x="360" y="72" on="0"/>
        <pt x="428" y="136" on="0"/>
        <pt x="428" y="185" on="1"/>
      </contour>
    </TTGlyph>
    <TTGlyph name="eight.dnom" xMin="139" yMin="-6" xMax="461" yMax="327">
      <contour>
        <pt x="444" y="214" on="0"/>
        <pt x="408" y="182" on="0"/>
        <pt x="375" y="176" on="1"/>
        <pt x="418" y="163" on="0"/>
        <pt x="461" y="125" on="0"/>
        <pt x="461" y="94" on="1"/>
        <pt x="461" y="49" on="0"/>
        <pt x="374" y="-6" on="0"/>
        <pt x="298" y="-6" on="1"/>
        <pt x="222" y="-6" on="0"/>
        <pt x="139" y="47" on="0"/>
        <pt x="139" y="92" on="1"/>
        <pt x="139" y="149" on="0"/>
        <pt x="218" y="169" on="1"/>
        <pt x="188" y="179" on="0"/>
        <pt x="157" y="214" on="0"/>
        <pt x="157" y="242" on="1"/>
        <pt x="157" y="279" on="0"/>
        <pt x="236" y="327" on="0"/>
        <pt x="300" y="327" on="1"/>
        <pt x="366" y="327" on="0"/>
        <pt x="444" y="279" on="0"/>
        <pt x="444" y="244" on="1"/>
      </contour>
      <contour>
        <pt x="244" y="227" on="0"/>
        <pt x="274" y="210" on="0"/>
        <pt x="312" y="202" on="1"/>
        <pt x="336" y="210" on="0"/>
        <pt x="357" y="226" on="0"/>
        <pt x="357" y="239" on="1"/>
        <pt x="357" y="251" on="0"/>
        <pt x="328" y="267" on="0"/>
        <pt x="300" y="267" on="1"/>
        <pt x="272" y="267" on="0"/>
        <pt x="244" y="251" on="0"/>
        <pt x="244" y="240" on="1"/>
      </contour>
      <contour>
        <pt x="371" y="113" on="0"/>
        <pt x="328" y="132" on="0"/>
        <pt x="279" y="141" on="1"/>
        <pt x="255" y="134" on="0"/>
        <pt x="229" y="111" on="0"/>
        <pt x="229" y="97" on="1"/>
        <pt x="229" y="60" on="0"/>
        <pt x="299" y="60" on="1"/>
        <pt x="333" y="60" on="0"/>
        <pt x="371" y="80" on="0"/>
        <pt x="371" y="95" on="1"/>
      </contour>
    </TTGlyph>
    <TTGlyph name="eight.numr" xMin="139" yMin="363" xMax="461" yMax="696">
      <component glyphName="eight.dnom" x="0" y="369" flags="0x0"/>
    </TTGlyph>
    <TTGlyph name="eight.tosf" xMin="57" yMin="-13" xMax="543" yMax="704">
      <contour>
        <pt x="516" y="477" on="0"/>
        <pt x="459" y="404" on="0"/>
        <pt x="401" y="372" on="1"/>
        <pt x="470" y="341" on="0"/>
        <pt x="543" y="247" on="0"/>
        <pt x="543" y="186" on="1"/>
        <pt x="543" y="130" on="0"/>
        <pt x="484" y="39" on="0"/>
        <pt x="373" y="-13" on="0"/>
        <pt x="298" y="-13" on="1"/>
        <pt x="222" y="-13" on="0"/>
        <pt x="113" y="39" on="0"/>
        <pt x="57" y="128" on="0"/>
        <pt x="57" y="183" on="1"/>
        <pt x="57" y="301" on="0"/>
        <pt x="191" y="361" on="1"/>
        <pt x="135" y="391" on="0"/>
        <pt x="84" y="464" on="0"/>
        <pt x="84" y="520" on="1"/>
        <pt x="84" y="578" on="0"/>
        <pt x="146" y="662" on="0"/>
        <pt x="245" y="704" on="0"/>
        <pt x="300" y="704" on="1"/>
        <pt x="358" y="704" on="0"/>
        <pt x="457" y="663" on="0"/>
        <pt x="516" y="582" on="0"/>
        <pt x="516" y="526" on="1"/>
      </contour>
      <contour>
        <pt x="193" y="486" on="0"/>
        <pt x="223" y="444" on="0"/>
        <pt x="277" y="417" on="0"/>
        <pt x="325" y="400" on="1"/>
        <pt x="369" y="427" on="0"/>
        <pt x="407" y="481" on="0"/>
        <pt x="407" y="520" on="1"/>
        <pt x="407" y="567" on="0"/>
        <pt x="351" y="622" on="0"/>
        <pt x="300" y="622" on="1"/>
        <pt x="249" y="622" on="0"/>
        <pt x="193" y="568" on="0"/>
        <pt x="193" y="519" on="1"/>
      </contour>
      <contour>
        <pt x="428" y="225" on="0"/>
        <pt x="390" y="276" on="0"/>
        <pt x="325" y="308" on="0"/>
        <pt x="264" y="329" on="1"/>
        <pt x="172" y="282" on="0"/>
        <pt x="172" y="187" on="1"/>
        <pt x="172" y="133" on="0"/>
        <pt x="237" y="72" on="0"/>
        <pt x="299" y="72" on="1"/>
        <pt x="360" y="72" on="0"/>
        <pt x="428" y="136" on="0"/>
        <pt x="428" y="185" on="1"/>
      </contour>
    </TTGlyph>
    <TTGlyph name="eightinferior" xMin="139" yMin="-199" xMax="461" yMax="134">
      <component glyphName="eight.dnom" x="0" y="-193" flags="0x0"/>
    </TTGlyph>
    <TTGlyph name="eightsuperior" xMin="139" yMin="309" xMax="461" yMax="642">
      <component glyphName="eight.dnom" x="0" y="315" flags="0x0"/>
    </TTGlyph>
    <TTGlyph name="ellipsis" xMin="25" yMin="-14" xMax="575" yMax="135">
      <contour>
        <pt x="25" y="91" on="0"/>
        <pt x="68" y="135" on="0"/>
        <pt x="99" y="135" on="1"/>
        <pt x="130" y="135" on="0"/>
        <pt x="174" y="91" on="0"/>
        <pt x="174" y="60" on="1"/>
        <pt x="174" y="29" on="0"/>
        <pt x="130" y="-14" on="0"/>
        <pt x="99" y="-14" on="1"/>
        <pt x="68" y="-14" on="0"/>
        <pt x="25" y="29" on="0"/>
        <pt x="25" y="60" on="1"/>
      </contour>
      <contour>
        <pt x="225" y="91" on="0"/>
        <pt x="269" y="135" on="0"/>
        <pt x="300" y="135" on="1"/>
        <pt x="331" y="135" on="0"/>
        <pt x="374" y="91" on="0"/>
        <pt x="374" y="60" on="1"/>
        <pt x="374" y="29" on="0"/>
        <pt x="331" y="-14" on="0"/>
        <pt x="300" y="-14" on="1"/>
        <pt x="269" y="-14" on="0"/>
        <pt x="225" y="29" on="0"/>
        <pt x="225" y="60" on="1"/>
      </contour>
      <contour>
        <pt x="426" y="91" on="0"/>
        <pt x="469" y="135" on="0"/>
        <pt x="500" y="135" on="1"/>
        <pt x="531" y="135" on="0"/>
        <pt x="575" y="91" on="0"/>
        <pt x="575" y="60" on="1"/>
        <pt x="575" y="29" on="0"/>
        <pt x="531" y="-14" on="0"/>
        <pt x="500" y="-14" on="1"/>
        <pt x="469" y="-14" on="0"/>
        <pt x="426" y="29" on="0"/>
        <pt x="426" y="60" on="1"/>
      </contour>
    </TTGlyph>
    <TTGlyph name="emacron" xMin="66" yMin="-13" xMax="535" yMax="751">
      <component glyphName="e" x="0" y="0" flags="0x0"/>
      <component glyphName="macron" x="9" y="0" flags="0x0"/>
    </TTGlyph>
    <TTGlyph name="emdash" xMin="0" yMin="267" xMax="600" yMax="359">
      <contour>
        <pt x="600" y="359" on="1"/>
        <pt x="600" y="267" on="1"/>
        <pt x="0" y="267" on="1"/>
        <pt x="0" y="359" on="1"/>
      </contour>
    </TTGlyph>
    <TTGlyph name="emdash.case" xMin="0" yMin="307" xMax="600" yMax="399">
      <component glyphName="emdash" x="0" y="40" flags="0x0"/>
    </TTGlyph>
    <TTGlyph name="endash" xMin="31" yMin="267" xMax="570" yMax="359">
      <contour>
        <pt x="570" y="359" on="1"/>
        <pt x="570" y="267" on="1"/>
        <pt x="31" y="267" on="1"/>
        <pt x="31" y="359" on="1"/>
      </contour>
    </TTGlyph>
    <TTGlyph name="endash.case" xMin="31" yMin="307" xMax="570" yMax="399">
      <component glyphName="endash" x="0" y="40" flags="0x0"/>
    </TTGlyph>
    <TTGlyph name="eng" xMin="89" yMin="-215" xMax="512" yMax="542">
      <contour>
        <pt x="512" y="-36" on="0"/>
        <pt x="472" y="-131" on="0"/>
        <pt x="398" y="-188" on="0"/>
        <pt x="336" y="-215" on="1"/>
        <pt x="295" y="-133" on="1"/>
        <pt x="334" y="-116" on="0"/>
        <pt x="377" y="-80" on="0"/>
        <pt x="400" y="-18" on="0"/>
        <pt x="400" y="34" on="1"/>
        <pt x="400" y="330" on="1"/>
        <pt x="400" y="379" on="0"/>
        <pt x="389" y="431" on="0"/>
        <pt x="356" y="456" on="0"/>
        <pt x="324" y="456" on="1"/>
        <pt x="289" y="456" on="0"/>
        <pt x="225" y="412" on="0"/>
        <pt x="201" y="378" on="1"/>
        <pt x="201" y="0" on="1"/>
        <pt x="89" y="0" on="1"/>
        <pt x="89" y="528" on="1"/>
        <pt x="186" y="528" on="1"/>
        <pt x="194" y="460" on="1"/>
        <pt x="227" y="499" on="0"/>
        <pt x="317" y="542" on="0"/>
        <pt x="365" y="542" on="1"/>
        <pt x="438" y="542" on="0"/>
        <pt x="512" y="461" on="0"/>
        <pt x="512" y="385" on="1"/>
        <pt x="512" y="41" on="1"/>
      </contour>
    </TTGlyph>
    <TTGlyph name="eogonek" xMin="66" yMin="-239" xMax="535" yMax="542">
      <contour>
        <pt x="535" y="248" on="0"/>
        <pt x="532" y="228" on="1"/>
        <pt x="182" y="228" on="1"/>
        <pt x="187" y="151" on="0"/>
        <pt x="266" y="74" on="0"/>
        <pt x="326" y="74" on="1"/>
        <pt x="405" y="74" on="0"/>
        <pt x="464" y="123" on="1"/>
        <pt x="513" y="53" on="1"/>
        <pt x="471" y="18" on="0"/>
        <pt x="413" y="0" on="1"/>
        <pt x="344" y="-28" on="0"/>
        <pt x="293" y="-81" on="0"/>
        <pt x="293" y="-113" on="1"/>
        <pt x="293" y="-161" on="0"/>
        <pt x="349" y="-161" on="1"/>
        <pt x="377" y="-161" on="0"/>
        <pt x="408" y="-154" on="1"/>
        <pt x="398" y="-231" on="1"/>
        <pt x="368" y="-239" on="0"/>
        <pt x="336" y="-239" on="1"/>
        <pt x="277" y="-239" on="0"/>
        <pt x="203" y="-179" on="0"/>
        <pt x="203" y="-131" on="1"/>
        <pt x="203" y="-56" on="0"/>
        <pt x="290" y="-12" on="1"/>
        <pt x="183" y="-2" on="0"/>
        <pt x="66" y="147" on="0"/>
        <pt x="66" y="264" on="1"/>
        <pt x="66" y="343" on="0"/>
        <pt x="124" y="470" on="0"/>
        <pt x="232" y="542" on="0"/>
        <pt x="304" y="542" on="1"/>
        <pt x="411" y="542" on="0"/>
        <pt x="535" y="401" on="0"/>
        <pt x="535" y="278" on="1"/>
      </contour>
      <contour>
        <pt x="424" y="380" on="0"/>
        <pt x="363" y="459" on="0"/>
        <pt x="306" y="459" on="1"/>
        <pt x="253" y="459" on="0"/>
        <pt x="187" y="381" on="0"/>
        <pt x="182" y="305" on="1"/>
        <pt x="426" y="305" on="1"/>
      </contour>
    </TTGlyph>
    <TTGlyph name="epsilon" xMin="76" yMin="-13" xMax="557" yMax="542">
      <contour>
        <pt x="248" y="234" on="0"/>
        <pt x="195" y="197" on="0"/>
        <pt x="195" y="158" on="1"/>
        <pt x="195" y="119" on="0"/>
        <pt x="262" y="73" on="0"/>
        <pt x="324" y="73" on="1"/>
        <pt x="424" y="73" on="0"/>
        <pt x="502" y="124" on="1"/>
        <pt x="557" y="55" on="1"/>
        <pt x="514" y="24" on="0"/>
        <pt x="390" y="-13" on="0"/>
        <pt x="316" y="-13" on="1"/>
        <pt x="209" y="-13" on="0"/>
        <pt x="76" y="73" on="0"/>
        <pt x="76" y="151" on="1"/>
        <pt x="76" y="210" on="0"/>
        <pt x="142" y="273" on="0"/>
        <pt x="211" y="282" on="1"/>
        <pt x="154" y="295" on="0"/>
        <pt x="96" y="356" on="0"/>
        <pt x="96" y="400" on="1"/>
        <pt x="96" y="467" on="0"/>
        <pt x="220" y="542" on="0"/>
        <pt x="316" y="542" on="1"/>
        <pt x="374" y="542" on="0"/>
        <pt x="485" y="515" on="0"/>
        <pt x="526" y="487" on="1"/>
        <pt x="474" y="422" on="1"/>
        <pt x="414" y="458" on="0"/>
        <pt x="326" y="458" on="1"/>
        <pt x="271" y="458" on="0"/>
        <pt x="211" y="422" on="0"/>
        <pt x="211" y="386" on="1"/>
        <pt x="211" y="353" on="0"/>
        <pt x="266" y="315" on="0"/>
        <pt x="315" y="315" on="1"/>
        <pt x="414" y="315" on="1"/>
        <pt x="402" y="234" on="1"/>
        <pt x="308" y="234" on="1"/>
      </contour>
    </TTGlyph>
    <TTGlyph name="epsilontonos" xMin="76" yMin="-13" xMax="557" yMax="825">
      <component glyphName="epsilon" x="0" y="0" flags="0x0"/>
      <component glyphName="tonos" x="49" y="0" flags="0x0"/>
    </TTGlyph>
    <TTGlyph name="equal" xMin="93" yMin="166" xMax="507" yMax="456">
      <contour>
        <pt x="93" y="364" on="1"/>
        <pt x="93" y="456" on="1"/>
        <pt x="507" y="456" on="1"/>
        <pt x="507" y="364" on="1"/>
      </contour>
      <contour>
        <pt x="93" y="166" on="1"/>
        <pt x="93" y="258" on="1"/>
        <pt x="507" y="258" on="1"/>
        <pt x="507" y="166" on="1"/>
      </contour>
    </TTGlyph>
    <TTGlyph name="equal.dnom" xMin="174" yMin="69" xMax="425" yMax="263">
      <contour>
        <pt x="174" y="193" on="1"/>
        <pt x="174" y="263" on="1"/>
        <pt x="425" y="263" on="1"/>
        <pt x="425" y="193" on="1"/>
      </contour>
      <contour>
        <pt x="174" y="69" on="1"/>
        <pt x="174" y="140" on="1"/>
        <pt x="425" y="140" on="1"/>
        <pt x="425" y="69" on="1"/>
      </contour>
    </TTGlyph>
    <TTGlyph name="equal.numr" xMin="174" yMin="438" xMax="425" yMax="632">
      <component glyphName="equal.dnom" x="0" y="368" flags="0x0"/>
    </TTGlyph>
    <TTGlyph name="equal.tosf" xMin="93" yMin="166" xMax="507" yMax="456">
      <component glyphName="equal" x="0" y="0" flags="0x0"/>
    </TTGlyph>
    <TTGlyph name="equalsuperior" xMin="174" yMin="384" xMax="425" yMax="578">
      <component glyphName="equal.dnom" x="0" y="315" flags="0x0"/>
    </TTGlyph>
    <TTGlyph name="equivalence" xMin="93" yMin="69" xMax="507" yMax="556">
      <contour>
        <pt x="93" y="464" on="1"/>
        <pt x="93" y="556" on="1"/>
        <pt x="507" y="556" on="1"/>
        <pt x="507" y="464" on="1"/>
      </contour>
      <contour>
        <pt x="93" y="266" on="1"/>
        <pt x="93" y="359" on="1"/>
        <pt x="507" y="359" on="1"/>
        <pt x="507" y="266" on="1"/>
      </contour>
      <contour>
        <pt x="93" y="69" on="1"/>
        <pt x="93" y="161" on="1"/>
        <pt x="507" y="161" on="1"/>
        <pt x="507" y="69" on="1"/>
      </contour>
    </TTGlyph>
    <TTGlyph name="estimated" xMin="21" yMin="-12" xMax="583" yMax="701">
      <contour>
        <pt x="429" y="701" on="0"/>
        <pt x="566" y="572" on="0"/>
        <pt x="583" y="468" on="1"/>
        <pt x="583" y="334" on="1"/>
        <pt x="151" y="334" on="1"/>
        <pt x="151" y="73" on="1"/>
        <pt x="208" y="26" on="0"/>
        <pt x="305" y="26" on="1"/>
        <pt x="373" y="26" on="0"/>
        <pt x="472" y="77" on="0"/>
        <pt x="498" y="123" on="1"/>
        <pt x="547" y="123" on="1"/>
        <pt x="515" y="61" on="0"/>
        <pt x="396" y="-12" on="0"/>
        <pt x="304" y="-12" on="1"/>
        <pt x="181" y="-12" on="0"/>
        <pt x="40" y="111" on="0"/>
        <pt x="21" y="214" on="1"/>
        <pt x="21" y="468" on="1"/>
        <pt x="38" y="572" on="0"/>
        <pt x="175" y="701" on="0"/>
        <pt x="302" y="701" on="1"/>
      </contour>
      <contour>
        <pt x="205" y="662" on="0"/>
        <pt x="151" y="620" on="1"/>
        <pt x="151" y="373" on="1"/>
        <pt x="450" y="373" on="1"/>
        <pt x="450" y="619" on="1"/>
        <pt x="426" y="638" on="0"/>
        <pt x="348" y="662" on="0"/>
        <pt x="303" y="662" on="1"/>
      </contour>
    </TTGlyph>
    <TTGlyph name="eta" xMin="66" yMin="-216" xMax="514" yMax="542">
      <contour>
        <pt x="440" y="542" on="0"/>
        <pt x="514" y="461" on="0"/>
        <pt x="514" y="385" on="1"/>
        <pt x="514" y="-203" on="1"/>
        <pt x="402" y="-216" on="1"/>
        <pt x="402" y="330" on="1"/>
        <pt x="402" y="379" on="0"/>
        <pt x="391" y="431" on="0"/>
        <pt x="358" y="456" on="0"/>
        <pt x="326" y="456" on="1"/>
        <pt x="291" y="456" on="0"/>
        <pt x="226" y="411" on="0"/>
        <pt x="203" y="378" on="1"/>
        <pt x="203" y="0" on="1"/>
        <pt x="90" y="0" on="1"/>
        <pt x="90" y="365" on="1"/>
        <pt x="90" y="441" on="0"/>
        <pt x="66" y="526" on="1"/>
        <pt x="171" y="541" on="1"/>
        <pt x="178" y="528" on="0"/>
        <pt x="192" y="478" on="0"/>
        <pt x="194" y="457" on="1"/>
        <pt x="228" y="498" on="0"/>
        <pt x="319" y="542" on="0"/>
        <pt x="367" y="542" on="1"/>
      </contour>
    </TTGlyph>
    <TTGlyph name="etatonos" xMin="66" yMin="-216" xMax="514" yMax="825">
      <component glyphName="eta" x="0" y="0" flags="0x0"/>
      <component glyphName="tonos" x="36" y="0" flags="0x0"/>
    </TTGlyph>
    <TTGlyph name="eth" xMin="57" yMin="-13" xMax="542" yMax="783">
      <contour>
        <pt x="180" y="660" on="0"/>
        <pt x="118" y="672" on="1"/>
        <pt x="141" y="752" on="1"/>
        <pt x="231" y="736" on="0"/>
        <pt x="289" y="708" on="1"/>
        <pt x="360" y="783" on="1"/>
        <pt x="423" y="728" on="1"/>
        <pt x="364" y="668" on="1"/>
        <pt x="455" y="607" on="0"/>
        <pt x="542" y="410" on="0"/>
        <pt x="542" y="269" on="1"/>
        <pt x="542" y="186" on="0"/>
        <pt x="482" y="58" on="0"/>
        <pt x="370" y="-13" on="0"/>
        <pt x="295" y="-13" on="1"/>
        <pt x="228" y="-13" on="0"/>
        <pt x="120" y="46" on="0"/>
        <pt x="57" y="158" on="0"/>
        <pt x="57" y="235" on="1"/>
        <pt x="57" y="307" on="0"/>
        <pt x="115" y="419" on="0"/>
        <pt x="213" y="481" on="0"/>
        <pt x="270" y="481" on="1"/>
        <pt x="317" y="481" on="0"/>
        <pt x="390" y="450" on="0"/>
        <pt x="419" y="419" on="1"/>
        <pt x="388" y="534" on="0"/>
        <pt x="298" y="601" on="1"/>
        <pt x="228" y="529" on="1"/>
        <pt x="153" y="565" on="1"/>
        <pt x="225" y="641" on="1"/>
      </contour>
      <contour>
        <pt x="428" y="298" on="0"/>
        <pt x="425" y="331" on="1"/>
        <pt x="403" y="363" on="0"/>
        <pt x="334" y="397" on="0"/>
        <pt x="293" y="397" on="1"/>
        <pt x="239" y="397" on="0"/>
        <pt x="171" y="317" on="0"/>
        <pt x="171" y="238" on="1"/>
        <pt x="171" y="157" on="0"/>
        <pt x="238" y="72" on="0"/>
        <pt x="295" y="72" on="1"/>
        <pt x="359" y="72" on="0"/>
        <pt x="428" y="169" on="0"/>
        <pt x="428" y="263" on="1"/>
      </contour>
    </TTGlyph>
    <TTGlyph name="exclam" xMin="224" yMin="-13" xMax="376" yMax="690">
      <contour>
        <pt x="251" y="238" on="1"/>
        <pt x="237" y="690" on="1"/>
        <pt x="360" y="690" on="1"/>
        <pt x="347" y="238" on="1"/>
      </contour>
      <contour>
        <pt x="332" y="138" on="0"/>
        <pt x="376" y="94" on="0"/>
        <pt x="376" y="63" on="1"/>
        <pt x="376" y="31" on="0"/>
        <pt x="332" y="-13" on="0"/>
        <pt x="299" y="-13" on="1"/>
        <pt x="268" y="-13" on="0"/>
        <pt x="224" y="31" on="0"/>
        <pt x="224" y="63" on="1"/>
        <pt x="224" y="94" on="0"/>
        <pt x="268" y="138" on="0"/>
        <pt x="299" y="138" on="1"/>
      </contour>
    </TTGlyph>
    <TTGlyph name="exclamdown" xMin="224" yMin="-200" xMax="376" yMax="504">
      <contour>
        <pt x="331" y="504" on="0"/>
        <pt x="376" y="459" on="0"/>
        <pt x="376" y="427" on="1"/>
        <pt x="376" y="396" on="0"/>
        <pt x="331" y="352" on="0"/>
        <pt x="299" y="352" on="1"/>
        <pt x="268" y="352" on="0"/>
        <pt x="224" y="396" on="0"/>
        <pt x="224" y="427" on="1"/>
        <pt x="224" y="459" on="0"/>
        <pt x="268" y="504" on="0"/>
        <pt x="299" y="504" on="1"/>
      </contour>
      <contour>
        <pt x="237" y="-200" on="1"/>
        <pt x="253" y="252" on="1"/>
        <pt x="346" y="252" on="1"/>
        <pt x="362" y="-200" on="1"/>
      </contour>
    </TTGlyph>
    <TTGlyph name="exclamdown.case" xMin="224" yMin="0" xMax="376" yMax="704">
      <contour>
        <pt x="332" y="704" on="0"/>
        <pt x="376" y="659" on="0"/>
        <pt x="376" y="627" on="1"/>
        <pt x="376" y="596" on="0"/>
        <pt x="332" y="552" on="0"/>
        <pt x="300" y="552" on="1"/>
        <pt x="269" y="552" on="0"/>
        <pt x="224" y="596" on="0"/>
        <pt x="224" y="627" on="1"/>
        <pt x="224" y="659" on="0"/>
        <pt x="268" y="704" on="0"/>
        <pt x="300" y="704" on="1"/>
      </contour>
      <contour>
        <pt x="238" y="0" on="1"/>
        <pt x="254" y="451" on="1"/>
        <pt x="347" y="451" on="1"/>
        <pt x="363" y="0" on="1"/>
      </contour>
    </TTGlyph>
    <TTGlyph name="f" xMin="87" yMin="0" xMax="568" yMax="753">
      <contour>
        <pt x="496" y="753" on="0"/>
        <pt x="568" y="722" on="1"/>
        <pt x="534" y="644" on="1"/>
        <pt x="484" y="666" on="0"/>
        <pt x="421" y="666" on="1"/>
        <pt x="369" y="666" on="0"/>
        <pt x="319" y="626" on="0"/>
        <pt x="319" y="583" on="1"/>
        <pt x="319" y="490" on="1"/>
        <pt x="496" y="490" on="1"/>
        <pt x="484" y="407" on="1"/>
        <pt x="319" y="407" on="1"/>
        <pt x="319" y="0" on="1"/>
        <pt x="207" y="0" on="1"/>
        <pt x="207" y="407" on="1"/>
        <pt x="87" y="407" on="1"/>
        <pt x="87" y="490" on="1"/>
        <pt x="207" y="490" on="1"/>
        <pt x="207" y="585" on="1"/>
        <pt x="207" y="635" on="0"/>
        <pt x="258" y="711" on="0"/>
        <pt x="350" y="753" on="0"/>
        <pt x="410" y="753" on="1"/>
      </contour>
    </TTGlyph>
    <TTGlyph name="female" xMin="139" yMin="0" xMax="460" yMax="539">
      <contour>
        <pt x="343" y="539" on="0"/>
        <pt x="417" y="497" on="0"/>
        <pt x="460" y="425" on="0"/>
        <pt x="460" y="381" on="1"/>
        <pt x="460" y="321" on="0"/>
        <pt x="383" y="236" on="0"/>
        <pt x="324" y="228" on="1"/>
        <pt x="324" y="145" on="1"/>
        <pt x="420" y="145" on="1"/>
        <pt x="420" y="105" on="1"/>
        <pt x="324" y="105" on="1"/>
        <pt x="324" y="0" on="1"/>
        <pt x="276" y="0" on="1"/>
        <pt x="276" y="105" on="1"/>
        <pt x="180" y="105" on="1"/>
        <pt x="180" y="145" on="1"/>
        <pt x="276" y="145" on="1"/>
        <pt x="276" y="227" on="1"/>
        <pt x="217" y="235" on="0"/>
        <pt x="139" y="321" on="0"/>
        <pt x="139" y="381" on="1"/>
        <pt x="139" y="425" on="0"/>
        <pt x="182" y="497" on="0"/>
        <pt x="255" y="539" on="0"/>
        <pt x="299" y="539" on="1"/>
      </contour>
      <contour>
        <pt x="251" y="493" on="0"/>
        <pt x="190" y="429" on="0"/>
        <pt x="190" y="381" on="1"/>
        <pt x="190" y="333" on="0"/>
        <pt x="251" y="270" on="0"/>
        <pt x="299" y="270" on="1"/>
        <pt x="347" y="270" on="0"/>
        <pt x="409" y="333" on="0"/>
        <pt x="409" y="381" on="1"/>
        <pt x="409" y="429" on="0"/>
        <pt x="347" y="493" on="0"/>
        <pt x="299" y="493" on="1"/>
      </contour>
    </TTGlyph>
    <TTGlyph name="fi" xMin="16" yMin="0" xMax="589" yMax="753">
      <contour>
        <pt x="314" y="82" on="1"/>
        <pt x="395" y="82" on="1"/>
        <pt x="395" y="445" on="1"/>
        <pt x="212" y="445" on="1"/>
        <pt x="212" y="0" on="1"/>
        <pt x="102" y="0" on="1"/>
        <pt x="102" y="445" on="1"/>
        <pt x="16" y="445" on="1"/>
        <pt x="16" y="528" on="1"/>
        <pt x="102" y="528" on="1"/>
        <pt x="102" y="585" on="1"/>
        <pt x="102" y="660" on="0"/>
        <pt x="213" y="753" on="0"/>
        <pt x="304" y="753" on="1"/>
        <pt x="392" y="753" on="0"/>
        <pt x="462" y="722" on="1"/>
        <pt x="429" y="644" on="1"/>
        <pt x="378" y="666" on="0"/>
        <pt x="315" y="666" on="1"/>
        <pt x="262" y="666" on="0"/>
        <pt x="212" y="626" on="0"/>
        <pt x="212" y="583" on="1"/>
        <pt x="212" y="528" on="1"/>
        <pt x="506" y="528" on="1"/>
        <pt x="506" y="82" on="1"/>
        <pt x="589" y="82" on="1"/>
        <pt x="589" y="0" on="1"/>
        <pt x="314" y="0" on="1"/>
      </contour>
    </TTGlyph>
    <TTGlyph name="figuredash" xMin="34" yMin="269" xMax="566" yMax="361">
      <contour>
        <pt x="566" y="361" on="1"/>
        <pt x="566" y="269" on="1"/>
        <pt x="34" y="269" on="1"/>
        <pt x="34" y="361" on="1"/>
      </contour>
    </TTGlyph>
    <TTGlyph name="figuredash.tosf" xMin="34" yMin="269" xMax="566" yMax="361">
      <component glyphName="figuredash" x="0" y="0" flags="0x0"/>
    </TTGlyph>
    <TTGlyph name="filledbox" xMin="30" yMin="0" xMax="570" yMax="540">
      <contour>
        <pt x="30" y="0" on="1"/>
        <pt x="30" y="540" on="1"/>
        <pt x="570" y="540" on="1"/>
        <pt x="570" y="0" on="1"/>
      </contour>
    </TTGlyph>
    <TTGlyph name="filledrect" xMin="30" yMin="0" xMax="570" yMax="270">
      <contour>
        <pt x="30" y="0" on="1"/>
        <pt x="30" y="270" on="1"/>
        <pt x="570" y="270" on="1"/>
        <pt x="570" y="0" on="1"/>
      </contour>
    </TTGlyph>
    <TTGlyph name="firsttonechinese" xMin="158" yMin="679" xMax="441" yMax="760">
      <contour>
        <pt x="158" y="760" on="1"/>
        <pt x="441" y="760" on="1"/>
        <pt x="441" y="679" on="1"/>
        <pt x="158" y="679" on="1"/>
      </contour>
    </TTGlyph>
</ttFont>
